<?xml version="1.0" encoding="utf-8"?>
<!-- Generator: Adobe Illustrator 14.0.0, SVG Export Plug-In  -->
<!DOCTYPE svg PUBLIC "-//W3C//DTD SVG 1.1//EN" "http://www.w3.org/Graphics/SVG/1.1/DTD/svg11.dtd" [
	<!ENTITY ns_flows "http://ns.adobe.com/Flows/1.0/">
]>
<svg version="1.1"
	 xmlns="http://www.w3.org/2000/svg" xmlns:xlink="http://www.w3.org/1999/xlink" xmlns:a="http://ns.adobe.com/AdobeSVGViewerExtensions/3.0/"
	 x="0px" y="0px" width="100%" height="100%" viewBox="0 0 24 24" enable-background="new 0 0 24 24" xml:space="preserve">
<defs>
</defs>
<path fill="#4594d0" transform="rotate({angle}, 12, 12)" d="M12,0C5.3837891,0,0,5.3837891,0,12s5.3837891,12,12,12s12-5.3837891,12-12S18.6162109,0,12,0z
	 M12,21.2919922c-5.1240234,0-9.2919922-4.1679688-9.2919922-9.2919922S6.8759766,2.7080078,12,2.7080078
	S21.2919922,6.8759766,21.2919922,12S17.1240234,21.2919922,12,21.2919922z M14.8740234,7.0957031
	c0,0,0-0.0029297-0.0009766-0.0048828l0,0c0-0.0019531-0.0009766-0.0029297-0.0009766-0.0029297
	c-0.0185547-0.0888672-0.0449219-0.1738281-0.0800781-0.2539063c-0.0175781-0.0390625-0.0410156-0.0742188-0.0605469-0.1113281
	c-0.0214844-0.0390625-0.0400391-0.0810547-0.0654297-0.1181641c-0.0283203-0.0429688-0.0644531-0.0800781-0.0986328-0.1191406
	c-0.0224609-0.0263672-0.0429688-0.0566406-0.0683594-0.0810547c-0.0341797-0.0351563-0.0761719-0.0634766-0.1152344-0.0947266
	c-0.0292969-0.0224609-0.0556641-0.0488281-0.0869141-0.0693359c-0.0400391-0.0263672-0.0830078-0.046875-0.1259766-0.0693359
	c-0.0341797-0.0175781-0.0673828-0.0390625-0.1025391-0.0537109c-0.0546875-0.0224609-0.1103516-0.0371094-0.1660156-0.0527344
	c-0.0292969-0.0068359-0.0566406-0.0185547-0.0859375-0.0244141c-0.0888672-0.0185547-0.1816406-0.0283203-0.2753906-0.0273438
	h-3.0810547c-0.09375-0.0009766-0.1855469,0.0087891-0.2753906,0.0273438
	c-0.0322266,0.0058594-0.0634766,0.0195313-0.09375,0.0283203C10.0371094,6.0830078,9.984375,6.0957031,9.9335938,6.1162109
	C9.8945313,6.1337891,9.8583984,6.15625,9.8203125,6.1757813C9.7802734,6.1962891,9.7412109,6.2148438,9.703125,6.2402344
	C9.6689453,6.2626953,9.6396484,6.2900391,9.6074219,6.3164063C9.5712891,6.3457031,9.5332031,6.3710938,9.5009766,6.4042969
	C9.4746094,6.4316406,9.4511719,6.4638672,9.4257813,6.4941406c-0.03125,0.0361328-0.0644531,0.0703125-0.0908203,0.109375
	C9.3066406,6.6455078,9.2861328,6.6904297,9.2636719,6.7333984C9.2451172,6.7675781,9.2236328,6.7988281,9.2089844,6.8339844
	c-0.0351563,0.0800781-0.0625,0.1650391-0.0810547,0.2529297c0,0,0,0.0019531,0,0.0039063l0,0
	C9.1269531,7.0927734,9.1259766,7.0947266,9.1259766,7.0947266l-1.9326172,9.2792969
	c-0.1533203,0.7314453,0.3173828,1.4492188,1.0498047,1.6015625c0.09375,0.0185547,0.1855469,0.0292969,0.2773438,0.0292969
	c0.6269531,0,1.1894531-0.4394531,1.3232422-1.078125l0.4199219-2.0166016h3.4726563l0.4199219,2.0166016
	c0.1337891,0.6386719,0.6962891,1.078125,1.3232422,1.078125c0.0917969,0,0.1845703-0.0107422,0.2773438-0.0292969
	c0.7333984-0.1523438,1.203125-0.8701172,1.0498047-1.6015625L14.8740234,7.0957031z M10.828125,12.2021484l0.7255859-3.4814453
	h0.8935547l0.7246094,3.4814453H10.828125z"/>
</svg>
