<?xml version="1.0" encoding="utf-8"?>
<!-- Generator: Adobe Illustrator 14.0.0, SVG Export Plug-In  -->
<!DOCTYPE svg PUBLIC "-//W3C//DTD SVG 1.1//EN" "http://www.w3.org/Graphics/SVG/1.1/DTD/svg11.dtd" [
	<!ENTITY ns_flows "http://ns.adobe.com/Flows/1.0/">
]>
<svg version="1.1"
	 xmlns="http://www.w3.org/2000/svg" xmlns:xlink="http://www.w3.org/1999/xlink" xmlns:a="http://ns.adobe.com/AdobeSVGViewerExtensions/3.0/"
	 x="0px" y="0px" width="100%" height="100%" viewBox="0 0 24 24" enable-background="new 0 0 24 24" xml:space="preserve">
<defs>
</defs>
<circle fill="#FFFFFF" cx="12" cy="12" r="12"/>
<path fill="#4594d0" transform="rotate(-135, 12, 12)" d="M12,0C5.3837891,0,0,5.3837891,0,12s5.3837891,12,12,12s12-5.3837891,12-12S18.6162109,0,12,0z
	 M15.7568359,17.9755859c-0.0927734,0.0185547-0.1855469,0.0292969-0.2773438,0.0292969
	c-0.6269531,0-1.1894531-0.4394531-1.3232422-1.078125l-0.4199219-2.0166016h-3.4726563L9.84375,16.9267578
	c-0.1337891,0.6386719-0.6962891,1.078125-1.3232422,1.078125c-0.0917969,0-0.1835938-0.0107422-0.2773438-0.0292969
	c-0.7324219-0.1523438-1.203125-0.8701172-1.0498047-1.6015625l1.9326172-9.2792969c0,0,0.0009766-0.0019531,0.0019531-0.0039063
	c0-0.0019531,0-0.0039063,0-0.0039063c0.0185547-0.0878906,0.0458984-0.1728516,0.0810547-0.2529297
	c0.0146484-0.0351563,0.0361328-0.0664063,0.0546875-0.1005859c0.0224609-0.0429688,0.0429688-0.0878906,0.0712891-0.1298828
	c0.0263672-0.0390625,0.0595703-0.0732422,0.0908203-0.109375c0.0253906-0.0302734,0.0488281-0.0625,0.0751953-0.0898438
	c0.0322266-0.0332031,0.0703125-0.0585938,0.1064453-0.0878906C9.6396484,6.2900391,9.6689453,6.2626953,9.703125,6.2402344
	c0.0380859-0.0253906,0.0771484-0.0439453,0.1171875-0.0644531C9.8583984,6.15625,9.8945313,6.1337891,9.9335938,6.1162109
	c0.0507813-0.0205078,0.1035156-0.0332031,0.1572266-0.0478516c0.0302734-0.0087891,0.0615234-0.0224609,0.09375-0.0283203
	c0.0898438-0.0185547,0.1816406-0.0283203,0.2753906-0.0273438h3.0810547
	c0.09375-0.0009766,0.1865234,0.0087891,0.2753906,0.0273438c0.0292969,0.0058594,0.0566406,0.0175781,0.0859375,0.0244141
	c0.0556641,0.015625,0.1113281,0.0302734,0.1660156,0.0527344c0.0351563,0.0146484,0.0683594,0.0361328,0.1025391,0.0537109
	c0.0429688,0.0224609,0.0859375,0.0429688,0.1259766,0.0693359c0.03125,0.0205078,0.0576172,0.046875,0.0869141,0.0693359
	c0.0390625,0.03125,0.0810547,0.0595703,0.1152344,0.0947266c0.0253906,0.0244141,0.0458984,0.0546875,0.0683594,0.0810547
	c0.0341797,0.0390625,0.0703125,0.0761719,0.0986328,0.1191406c0.0253906,0.0371094,0.0439453,0.0791016,0.0654297,0.1181641
	c0.0195313,0.0371094,0.0429688,0.0722656,0.0605469,0.1113281c0.0351563,0.0800781,0.0615234,0.1650391,0.0800781,0.2539063
	c0,0,0.0009766,0.0009766,0.0009766,0.0029297c0.0009766,0.0019531,0.0009766,0.0048828,0.0009766,0.0048828l1.9326172,9.2783203
	C16.9599609,17.1054688,16.4902344,17.8232422,15.7568359,17.9755859z M10.828125,12.2021484l0.7255859-3.4814453h0.8935547
	l0.7246094,3.4814453H10.828125z"/>
<radialGradient gradientTransform="rotate({backgroundAngle}, 12, 12)" id="SVGID_1_" cx="12" cy="3.1728516" r="22.2501049" gradientUnits="userSpaceOnUse">
	<stop  offset="0.351515" style="stop-color:#FFFFFF;stop-opacity:0.4"/>
	<stop  offset="0.842424" style="stop-color:#FFFFFF;stop-opacity:0"/>
</radialGradient>
<path fill="url(#SVGID_1_)" d="M12,0C5.3828125,0,0,5.3828125,0,12s5.3828125,12,12,12s12-5.3828125,12-12S18.6171875,0,12,0z"/>
</svg>
