<?xml version="1.0" encoding="utf-8"?>
<!-- Generator: Adobe Illustrator 14.0.0, SVG Export Plug-In  -->
<!DOCTYPE svg PUBLIC "-//W3C//DTD SVG 1.1//EN" "http://www.w3.org/Graphics/SVG/1.1/DTD/svg11.dtd" [
	<!ENTITY ns_flows "http://ns.adobe.com/Flows/1.0/">
]>
<svg version="1.1"
	 xmlns="http://www.w3.org/2000/svg" xmlns:xlink="http://www.w3.org/1999/xlink" xmlns:a="http://ns.adobe.com/AdobeSVGViewerExtensions/3.0/"
	 x="0px" y="0px" width="100%" height="100%" viewBox="0 0 24 24" enable-background="new 0 0 24 24" xml:space="preserve">
<defs>
</defs>
<path fill="{color}" transform="rotate({angle}, 12, 12)" d="M18.7695313,11.9980469c-0.0009766,0.3486328-0.1308594,0.6943359-0.3964844,0.9589844l-5.4150391,5.4160156
	c-0.0634766,0.0615234-0.1328125,0.1171875-0.2070313,0.1679688c-0.0341797,0.0224609-0.0712891,0.0371094-0.1064453,0.0576172
	c-0.0419922,0.0234375-0.0810547,0.0478516-0.1269531,0.0673828c-0.0449219,0.0175781-0.0927734,0.0292969-0.1386719,0.0439453
	c-0.0390625,0.0087891-0.0742188,0.0244141-0.1132813,0.0322266c-0.1757813,0.0351563-0.3554688,0.0351563-0.5302734,0
	c-0.0390625-0.0078125-0.0751953-0.0234375-0.1123047-0.0322266c-0.046875-0.0146484-0.0957031-0.0263672-0.140625-0.0439453
	c-0.0439453-0.0195313-0.0839844-0.0439453-0.1259766-0.0664063C11.3212891,18.578125,11.2832031,18.5634766,11.25,18.5410156
	c-0.0751953-0.0507813-0.1445313-0.1064453-0.2070313-0.1699219l-5.4160156-5.4140625
	c-0.5283203-0.5273438-0.5273438-1.3867188,0-1.9140625c0.5292969-0.5292969,1.3867188-0.5292969,1.9150391,0l3.1044922,3.1035156
	l0.0009766-7.5625c-0.0009766-0.7470703,0.6064453-1.3535156,1.3535156-1.3535156s1.3525391,0.6064453,1.3535156,1.3535156
	v7.5644531l3.1044922-3.1054688c0.5283203-0.5292969,1.3867188-0.5292969,1.9140625,0
	C18.6386719,11.3066406,18.7695313,11.6542969,18.7695313,11.9980469z M24,11.9980469C24,18.6171875,18.6171875,24,12,24
	C5.3837891,24,0,18.6162109,0,12.0009766C0,5.3828125,5.3828125,0,12.0009766,0
	C18.6171875-0.0019531,24.0009766,5.3828125,24,11.9980469z M21.2929688,11.9980469
	C21.2929688,6.8759766,17.125,2.7080078,12,2.7050781c-5.1230469,0.0029297-9.2910156,4.1708984-9.2919922,9.2929688
	c0.0009766,5.125,4.1689453,9.2929688,9.2919922,9.2929688C17.1240234,21.2910156,21.2929688,17.1230469,21.2929688,11.9980469z"/>
</svg>
