<?xml version="1.0" encoding="utf-8"?>
<!-- Generator: Adobe Illustrator 16.0.3, SVG Export Plug-In . SVG Version: 6.00 Build 0)  -->
<!DOCTYPE svg PUBLIC "-//W3C//DTD SVG 1.1//EN" "http://www.w3.org/Graphics/SVG/1.1/DTD/svg11.dtd">
<svg version="1.1" id="Layer_1" xmlns="http://www.w3.org/2000/svg" xmlns:xlink="http://www.w3.org/1999/xlink" x="0px" y="0px"
	 width="100%" height="100%" viewBox="0 0 16 16" xml:space="preserve">
<path transform="rotate(0, 6.5, 7)" fill="#fff" d="M12.561,6.439c-0.586-0.586-1.535-0.586-2.121,0L8,8.879V1.5C8,0.672,7.328,0,6.5,0S5,0.672,5,1.5v7.379
	L2.561,6.439c-0.586-0.586-1.535-0.586-2.121,0s-0.586,1.535,0,2.121l5,5c0.139,0.139,0.306,0.25,0.49,0.326
	c0.008,0.003,0.016,0.004,0.023,0.007C6.123,13.96,6.307,14,6.5,14s0.377-0.04,0.547-0.106c0.008-0.003,0.016-0.004,0.023-0.007
	c0.185-0.076,0.352-0.188,0.49-0.326l5-5C13.146,7.975,13.146,7.025,12.561,6.439z"/>
</svg>
