<?xml version="1.0" encoding="utf-8"?>
<!-- Generator: Adobe Illustrator 14.0.0, SVG Export Plug-In  -->
<!DOCTYPE svg PUBLIC "-//W3C//DTD SVG 1.1//EN" "http://www.w3.org/Graphics/SVG/1.1/DTD/svg11.dtd" [
	<!ENTITY ns_flows "http://ns.adobe.com/Flows/1.0/">
]>
<svg version="1.1"
	 xmlns="http://www.w3.org/2000/svg" xmlns:xlink="http://www.w3.org/1999/xlink" xmlns:a="http://ns.adobe.com/AdobeSVGViewerExtensions/3.0/"
	 x="0px" y="0px" width="100%" height="100%" viewBox="0 0 24 24" enable-background="new 0 0 24 24" xml:space="preserve">
<defs>
</defs>
<circle fill="#FFFFFF" cx="12" cy="12" r="12"/>
<path fill="#4594d0" transform="rotate(-90, 12, 12)" d="M12.0009766,0C5.3828125,0,0,5.3828125,0,12.0009766C0,18.6162109,5.3837891,24,12,24
	c6.6171875,0,12-5.3828125,12-12.0019531C24.0009766,5.3828125,18.6171875-0.0019531,12.0009766,0z M18.3730469,12.9570313
	l-5.4150391,5.4160156c-0.0634766,0.0615234-0.1328125,0.1171875-0.2070313,0.1679688
	c-0.0341797,0.0224609-0.0712891,0.0371094-0.1064453,0.0576172c-0.0419922,0.0234375-0.0810547,0.0478516-0.1269531,0.0673828
	c-0.0449219,0.0175781-0.0927734,0.0292969-0.1386719,0.0439453c-0.0390625,0.0087891-0.0742188,0.0244141-0.1132813,0.0322266
	c-0.1757813,0.0351563-0.3554688,0.0351563-0.5302734,0c-0.0390625-0.0078125-0.0751953-0.0234375-0.1123047-0.0322266
	c-0.046875-0.0146484-0.0957031-0.0263672-0.140625-0.0439453c-0.0439453-0.0195313-0.0839844-0.0439453-0.1259766-0.0664063
	C11.3212891,18.578125,11.2832031,18.5634766,11.25,18.5410156c-0.0751953-0.0507813-0.1445313-0.1064453-0.2070313-0.1699219
	l-5.4160156-5.4140625c-0.5283203-0.5273438-0.5273438-1.3867188,0-1.9140625c0.5292969-0.5292969,1.3867188-0.5292969,1.9150391,0
	l3.1044922,3.1035156l0.0009766-7.5625c-0.0009766-0.7470703,0.6064453-1.3535156,1.3535156-1.3535156
	s1.3525391,0.6064453,1.3535156,1.3535156v7.5644531l3.1044922-3.1054688c0.5283203-0.5292969,1.3867188-0.5292969,1.9140625,0
	c0.265625,0.2636719,0.3964844,0.6113281,0.3964844,0.9550781C18.7685547,12.3466797,18.6386719,12.6923828,18.3730469,12.9570313z"
	/>
<radialGradient gradientTransform="rotate({backgroundAngle}, 12, 12)" id="SVGID_1_" cx="12" cy="3.1728516" r="22.2501049" gradientUnits="userSpaceOnUse">
	<stop  offset="0.351515" style="stop-color:#FFFFFF;stop-opacity:0.4"/>
	<stop  offset="0.842424" style="stop-color:#FFFFFF;stop-opacity:0"/>
</radialGradient>
<path fill="url(#SVGID_1_)" d="M12,0C5.3828125,0,0,5.3828125,0,12s5.3828125,12,12,12s12-5.3828125,12-12S18.6171875,0,12,0z"/>
</svg>
