<?xml version="1.0" encoding="utf-8"?>
<!-- Generator: Adobe Illustrator 14.0.0, SVG Export Plug-In  -->
<!DOCTYPE svg PUBLIC "-//W3C//DTD SVG 1.1//EN" "http://www.w3.org/Graphics/SVG/1.1/DTD/svg11.dtd" [
	<!ENTITY ns_flows "http://ns.adobe.com/Flows/1.0/">
]>
<svg version="1.1"
	 xmlns="http://www.w3.org/2000/svg" xmlns:xlink="http://www.w3.org/1999/xlink" xmlns:a="http://ns.adobe.com/AdobeSVGViewerExtensions/3.0/"
	 x="0px" y="0px" width="100%" height="100%" viewBox="0 0 24 24" enable-background="new 0 0 24 24" xml:space="preserve">
<defs>
</defs>
<circle fill="#FFFFFF" cx="12" cy="11.9995117" r="11.9995117"/>
<circle fill="{color}" transform="rotate({angle}, 12, 12)" cx="14.2148438" cy="14.215332" r="1.8461914"/>
<path fill="{color}" transform="rotate({angle}, 12, 12)" d="M15.2880859,9.7939453V9.0791016c-0.0634766,0.0097656-0.1269531,0.0195313-0.1933594,0.0195313
	c-0.6826172,0-1.2460938-0.5039063-1.3408203-1.1601563H12.953125c-0.09375,0.65625-0.6582031,1.1601563-1.3398438,1.1601563
	H8.7119141v5.4160156h0.9638672c-0.0058594-0.0996094-0.0146484-0.1982422-0.0146484-0.2998047
	c0-2.5107422,2.0429688-4.5537109,4.5537109-4.5537109C14.5849609,9.6611328,14.9433594,9.7099609,15.2880859,9.7939453z"/>
<path fill="{color}" transform="rotate({angle}, 12, 12)" d="M11.9980469,0C5.3828125-0.0009766-0.0019531,5.3828125,0,11.9980469
	c0,6.6181641,5.3828125,12.0009766,12.0009766,12.0009766C18.6162109,23.9990234,24,18.6152344,24,12
	C24,5.3828125,18.6171875,0,11.9980469,0z M14.2148438,18.7695313c-1.3583984,0-2.5761719-0.6005859-3.4111328-1.546875H7.3583984
	c-0.7480469,0-1.3544922-0.6064453-1.3544922-1.3544922V7.7451172c0-0.7480469,0.6064453-1.3544922,1.3544922-1.3544922h2.9140625
	c0.0947266-0.65625,0.6582031-1.1601563,1.3408203-1.1601563h3.4814453c0.7470703,0,1.3535156,0.6064453,1.3535156,1.3535156
	v0.2138672c0.0634766-0.0097656,0.1269531-0.0205078,0.1933594-0.0205078c0.7480469,0,1.3544922,0.6064453,1.3544922,1.3544922
	v3.546875c0.4882813,0.7255859,0.7734375,1.5986328,0.7734375,2.5361328
	C18.7695313,16.7265625,16.7265625,18.7695313,14.2148438,18.7695313z"/>
<radialGradient gradientTransform="rotate({backgroundAngle}, 12, 12)" id="SVGID_1_" cx="12" cy="3.1728516" r="22.2501049" gradientUnits="userSpaceOnUse">
	<stop  offset="0.351515" style="stop-color:#FFFFFF;stop-opacity:0.4"/>
	<stop  offset="0.842424" style="stop-color:#FFFFFF;stop-opacity:0"/>
</radialGradient>
<path fill="url(#SVGID_1_)" d="M12,0.0009766C5.3828125,0.0009766,0,5.3837891,0,12s5.3828125,12,12,12s12-5.3837891,12-12
	S18.6171875,0.0009766,12,0.0009766z"/>
</svg>
