<?xml version="1.0" encoding="utf-8"?>
<!-- Generator: Adobe Illustrator 14.0.0, SVG Export Plug-In  -->
<!DOCTYPE svg PUBLIC "-//W3C//DTD SVG 1.1//EN" "http://www.w3.org/Graphics/SVG/1.1/DTD/svg11.dtd" [
	<!ENTITY ns_flows "http://ns.adobe.com/Flows/1.0/">
]>
<svg version="1.1"
	 xmlns="http://www.w3.org/2000/svg" xmlns:xlink="http://www.w3.org/1999/xlink" xmlns:a="http://ns.adobe.com/AdobeSVGViewerExtensions/3.0/"
	 x="0px" y="0px" width="100%" height="100%" viewBox="0 0 24 24" enable-background="new 0 0 24 24" xml:space="preserve">
<defs>
</defs>
<path fill="{color}" transform="rotate({angle}, 12, 12)" d="M12,0C5.3828125,0,0,5.3828125,0,12s5.3828125,12,12,12s12-5.3828125,12-12S18.6171875,0,12,0z
	 M12,21.2929688c-5.1240234,0-9.2919922-4.1689453-9.2919922-9.2929688S6.8759766,2.7080078,12,2.7080078
	S21.2919922,6.8759766,21.2919922,12S17.1240234,21.2929688,12,21.2929688z M17.9960938,11.6787109v-3.546875
	c0-0.7480469-0.6064453-1.3544922-1.3544922-1.3544922c-0.0664063,0-0.1298828,0.0107422-0.1933594,0.0205078V6.5839844
	c0-0.7470703-0.6064453-1.3535156-1.3535156-1.3535156h-3.4814453c-0.6826172,0-1.2460938,0.5039063-1.3408203,1.1601563H7.3583984
	c-0.7480469,0-1.3544922,0.6064453-1.3544922,1.3544922v8.1230469c0,0.7480469,0.6064453,1.3544922,1.3544922,1.3544922h3.4453125
	c0.8349609,0.9462891,2.0527344,1.546875,3.4111328,1.546875c2.5117188,0,4.5546875-2.0429688,4.5546875-4.5546875
	C18.7695313,13.2773438,18.484375,12.4042969,17.9960938,11.6787109z M8.7119141,14.5146484V9.0986328h2.9013672
	c0.6816406,0,1.2460938-0.5039063,1.3398438-1.1601563h0.8007813c0.0947266,0.65625,0.6582031,1.1601563,1.3408203,1.1601563
	c0.0664063,0,0.1298828-0.0097656,0.1933594-0.0195313v0.7148438c-0.3447266-0.0839844-0.703125-0.1328125-1.0732422-0.1328125
	c-2.5107422,0-4.5537109,2.0429688-4.5537109,4.5537109c0,0.1015625,0.0087891,0.2001953,0.0146484,0.2998047H8.7119141z
	 M14.2148438,16.0615234c-1.0175781,0-1.8457031-0.828125-1.8457031-1.8466797c0-1.0175781,0.828125-1.8457031,1.8457031-1.8457031
	c1.0185547,0,1.8466797,0.828125,1.8466797,1.8457031C16.0615234,15.2333984,15.2333984,16.0615234,14.2148438,16.0615234z"/>
</svg>
