<?xml version="1.0" encoding="utf-8"?>
<!-- Generator: Adobe Illustrator 14.0.0, SVG Export Plug-In  -->
<!DOCTYPE svg PUBLIC "-//W3C//DTD SVG 1.1//EN" "http://www.w3.org/Graphics/SVG/1.1/DTD/svg11.dtd" [
	<!ENTITY ns_flows "http://ns.adobe.com/Flows/1.0/">
]>
<svg version="1.1"
	 xmlns="http://www.w3.org/2000/svg" xmlns:xlink="http://www.w3.org/1999/xlink" xmlns:a="http://ns.adobe.com/AdobeSVGViewerExtensions/3.0/"
	 x="0px" y="0px" width="100%" height="100%" viewBox="0 0 24 24" enable-background="new 0 0 24 24" xml:space="preserve">
<defs>
</defs>
<path fill="{color}" transform="rotate({angle}, 12, 12)" d="M12,24C5.3828125,24,0,18.6171875,0,12C0,5.3833008,5.3828125,0,12,0s12,5.3833008,12,12
	C24,18.6171875,18.6171875,24,12,24L12,24z M12,2.7080078c-5.1240234,0-9.2919922,4.1689453-9.2919922,9.2919922
	S6.8759766,21.2919922,12,21.2919922S21.2919922,17.1230469,21.2919922,12S17.1240234,2.7080078,12,2.7080078L12,2.7080078z
	 M11.2255859,18.7695313c0.0380859,0,0.0761719-0.0009766,0.1132813-0.0039063
	c0.4404297-0.0380859,0.8349609-0.2871094,1.0576172-0.6679688l5.4150391-9.2836914
	c0.3759766-0.6459961,0.1582031-1.4741211-0.4873047-1.8515625c-0.6464844-0.3774414-1.4755859-0.1586914-1.8515625,0.4863281
	l-4.4433594,7.6176758l-2.6308594-3.1591797c-0.4785156-0.5742188-1.3330078-0.652832-1.9072266-0.1728516
	c-0.5742188,0.4780273-0.6513672,1.3310547-0.1728516,1.9052734l3.8681641,4.6425781
	C10.4453125,18.5927734,10.8261719,18.7695313,11.2255859,18.7695313L11.2255859,18.7695313z"/>
</svg>
