<?xml version="1.0" encoding="utf-8"?>
<!-- Generator: Adobe Illustrator 14.0.0, SVG Export Plug-In  -->
<!DOCTYPE svg PUBLIC "-//W3C//DTD SVG 1.1//EN" "http://www.w3.org/Graphics/SVG/1.1/DTD/svg11.dtd" [
	<!ENTITY ns_flows "http://ns.adobe.com/Flows/1.0/">
]>
<svg version="1.1"
	 xmlns="http://www.w3.org/2000/svg" xmlns:xlink="http://www.w3.org/1999/xlink" xmlns:a="http://ns.adobe.com/AdobeSVGViewerExtensions/3.0/"
	 x="0px" y="0px" width="100%" height="100%" viewBox="0 0 24 24" enable-background="new 0 0 24 24" xml:space="preserve">
<defs>
</defs>
<path fill="{color}" d="M12,24C5.383,24,0,18.617,0,12C0,5.383,5.383,0,12,0s12,5.383,12,12C24,18.617,18.617,24,12,24L12,24z
	 M12,2.708c-5.124,0-9.292,4.168-9.292,9.292c0,5.124,4.168,9.293,9.292,9.293s9.292-4.169,9.292-9.293
	C21.292,6.876,17.124,2.708,12,2.708L12,2.708z M12,18.383c-3.52,0-6.383-2.863-6.383-6.383c0-3.519,2.863-6.383,6.383-6.383
	S18.383,8.481,18.383,12C18.383,15.52,15.52,18.383,12,18.383L12,18.383z M12,8.325c-2.026,0-3.675,1.648-3.675,3.675
	S9.974,15.675,12,15.675s3.675-1.648,3.675-3.675S14.026,8.325,12,8.325L12,8.325z"/>
</svg>
