<?xml version="1.0" encoding="utf-8"?>
<!-- Generator: Adobe Illustrator 14.0.0, SVG Export Plug-In  -->
<!DOCTYPE svg PUBLIC "-//W3C//DTD SVG 1.1//EN" "http://www.w3.org/Graphics/SVG/1.1/DTD/svg11.dtd" [
	<!ENTITY ns_flows "http://ns.adobe.com/Flows/1.0/">
]>
<svg version="1.1"
	 xmlns="http://www.w3.org/2000/svg" xmlns:xlink="http://www.w3.org/1999/xlink" xmlns:a="http://ns.adobe.com/AdobeSVGViewerExtensions/3.0/"
	 x="0px" y="0px" width="100%" height="100%" viewBox="0 0 24 24" enable-background="new 0 0 24 24" xml:space="preserve">
<defs>
</defs>
<circle fill="#FFFFFF" cx="12" cy="12" r="12"/>
<path fill="{color}" d="M12,8.325c-2.026,0-3.675,1.648-3.675,3.675c0,2.026,1.648,3.674,3.675,3.674s3.675-1.648,3.675-3.674
	C15.675,9.973,14.026,8.325,12,8.325z"/>
<path fill="{color}" d="M12,0C5.383,0,0,5.383,0,12s5.383,12,12,12s12-5.383,12-12S18.617,0,12,0z M12,18.383
	c-3.52,0-6.383-2.864-6.383-6.383S8.48,5.617,12,5.617S18.383,8.48,18.383,12S15.52,18.383,12,18.383z"/>
<radialGradient gradientTransform="rotate({backgroundAngle}, 12, 12)" id="SVGID_1_" cx="12" cy="3.1729" r="22.2501" gradientUnits="userSpaceOnUse">
	<stop  offset="0.3515" style="stop-color:#FFFFFF;stop-opacity:0.4"/>
	<stop  offset="0.8424" style="stop-color:#FFFFFF;stop-opacity:0"/>
</radialGradient>
<path fill="url(#SVGID_1_)" d="M12,0C5.383,0,0,5.383,0,12s5.383,12,12,12s12-5.383,12-12S18.617,0,12,0z"/>
</svg>
