<?xml version="1.0" encoding="utf-8"?>
<!-- Generator: Adobe Illustrator 14.0.0, SVG Export Plug-In  -->
<!DOCTYPE svg PUBLIC "-//W3C//DTD SVG 1.1//EN" "http://www.w3.org/Graphics/SVG/1.1/DTD/svg11.dtd" [
	<!ENTITY ns_flows "http://ns.adobe.com/Flows/1.0/">
]>
<svg version="1.1"
	 xmlns="http://www.w3.org/2000/svg" xmlns:xlink="http://www.w3.org/1999/xlink" xmlns:a="http://ns.adobe.com/AdobeSVGViewerExtensions/3.0/"
	 x="0px" y="0px" width="100%" height="100%" viewBox="0 0.0058594 24 24" enable-background="new 0 0.0058594 24 24"
	 xml:space="preserve">
<defs>
</defs>
<path fill="#3fa96c" transform="rotate({angle}, 12, 12)" d="M20.484375,3.515625C18.2177734,1.2480469,15.203125,0,11.9970703,0S5.7773438,1.2480469,3.5097656,3.515625
	c-4.6796875,4.6796875-4.6796875,12.2949219,0,16.9746094c2.2675781,2.265625,5.28125,3.515625,8.4873047,3.515625
	s6.2207031-1.25,8.4873047-3.515625C22.7519531,18.2226563,24,15.2089844,24,12.0039063
	C24,8.796875,22.7519531,5.78125,20.484375,3.515625z M18.5693359,18.5761719
	c-1.7548828,1.7539063-4.0888672,2.7207031-6.5722656,2.7207031s-4.8164063-0.9667969-6.5722656-2.7207031
	c-3.6240234-3.625-3.6240234-9.5214844,0-13.1464844c1.7558594-1.7539063,4.0898438-2.7207031,6.5722656-2.7207031
	c0.2617188,0,0.5205078,0.0136719,0.7783203,0.0351563L8.0302734,7.4882813
	C7.9824219,7.5351563,7.9453125,7.5878906,7.90625,7.6386719C7.8554688,7.6777344,7.8027344,7.7148438,7.7568359,7.7617188
	C6.6230469,8.8945313,6,10.4003906,6,12.0019531s0.6230469,3.109375,1.7558594,4.2421875
	c1.1699219,1.1679688,2.7050781,1.7539063,4.2412109,1.7539063s3.0712891-0.5859375,4.2412109-1.7539063
	c0.046875-0.046875,0.0839844-0.0996094,0.1230469-0.1503906c0.0507813-0.0390625,0.1035156-0.0761719,0.1503906-0.1230469
	l2.7353516-2.7363281c0.5292969-0.5292969,0.5292969-1.3867188,0-1.9160156c-0.5283203-0.5273438-1.3857422-0.5273438-1.9150391,0
	l-2.7363281,2.7363281c-0.046875,0.046875-0.0839844,0.0996094-0.1230469,0.1503906
	c-0.0507813,0.0390625-0.1035156,0.0761719-0.1503906,0.1230469c-1.2822266,1.2832031-3.3691406,1.2832031-4.6503906,0
	c-0.6210938-0.6210938-0.9628906-1.4472656-0.9628906-2.3261719c0-0.8769531,0.3417969-1.703125,0.9628906-2.3242188
	C9.71875,9.6308594,9.7558594,9.578125,9.7949219,9.5273438c0.0507813-0.0390625,0.1035156-0.0761719,0.1503906-0.1230469
	l5.875-5.875c0.8652344,0.390625,1.6728516,0.9140625,2.3945313,1.5664063
	c-0.1464844,0.0644531-0.2841797,0.1523438-0.4042969,0.2734375l-4.8554688,4.8554688
	c-0.5292969,0.5292969-0.5292969,1.3867188,0,1.9140625c0.2636719,0.265625,0.6113281,0.3964844,0.9570313,0.3964844
	c0.3466797,0,0.6933594-0.1308594,0.9580078-0.3964844l4.8564453-4.8554688
	c0.0605469-0.0605469,0.1132813-0.1269531,0.1601563-0.1953125c0.9140625,1.4609375,1.4042969,3.1503906,1.4042969,4.9160156
	C21.2910156,14.4863281,20.3242188,16.8203125,18.5693359,18.5761719z"/>
</svg>
