<?xml version="1.0" encoding="utf-8"?>
<!-- Generator: Adobe Illustrator 14.0.0, SVG Export Plug-In  -->
<!DOCTYPE svg PUBLIC "-//W3C//DTD SVG 1.1//EN" "http://www.w3.org/Graphics/SVG/1.1/DTD/svg11.dtd" [
	<!ENTITY ns_flows "http://ns.adobe.com/Flows/1.0/">
]>
<svg version="1.1"
	 xmlns="http://www.w3.org/2000/svg" xmlns:xlink="http://www.w3.org/1999/xlink" xmlns:a="http://ns.adobe.com/AdobeSVGViewerExtensions/3.0/"
	 x="0px" y="0px" width="100%" height="100%" viewBox="0 0 24 24" enable-background="new 0 0 24 24" xml:space="preserve">
<defs>
</defs>
<circle fill="#FFFFFF" cx="12" cy="12" r="12"/>
<path fill="{color}" transform="rotate({angle}, 12, 12)" d="M12,0C5.3828125,0,0,5.3828125,0,12c0,6.6162109,5.3828125,12,12,12s12-5.3837891,12-12
	C24,5.3828125,18.6171875,0,12,0z M19.2470703,13.2324219L16.5117188,15.96875
	c-0.046875,0.046875-0.0996094,0.0839844-0.1503906,0.1230469c-0.0390625,0.0507813-0.0761719,0.1035156-0.1230469,0.1503906
	c-1.1699219,1.1679688-2.7050781,1.7539063-4.2412109,1.7539063s-3.0712891-0.5859375-4.2412109-1.7539063
	C6.6230469,15.109375,6,13.6015625,6,12s0.6230469-3.1074219,1.7568359-4.2402344
	C7.8027344,7.7128906,7.8554688,7.6757813,7.90625,7.6367188c0.0390625-0.0507813,0.0761719-0.1035156,0.1240234-0.1503906
	l4.7412109-4.7402344C13.8476563,2.8359375,14.8710938,3.109375,15.8125,3.5351563L9.9453125,9.4023438
	c-0.046875,0.046875-0.0996094,0.0839844-0.1503906,0.1230469C9.7558594,9.5761719,9.71875,9.6289063,9.671875,9.6757813
	C9.0507813,10.296875,8.7089844,11.1230469,8.7089844,12c0,0.8789063,0.3417969,1.7050781,0.9628906,2.3261719
	c1.28125,1.2832031,3.3681641,1.2832031,4.6503906,0c0.046875-0.046875,0.0996094-0.0839844,0.1503906-0.1230469
	c0.0390625-0.0507813,0.0761719-0.1035156,0.1230469-0.1503906l2.7363281-2.7363281
	c0.5292969-0.5273438,1.3867188-0.5273438,1.9150391,0C19.7763672,11.8457031,19.7763672,12.703125,19.2470703,13.2324219z
	 M19.7265625,7.28125l-4.8564453,4.8554688c-0.2646484,0.265625-0.6113281,0.3964844-0.9580078,0.3964844
	c-0.3457031,0-0.6933594-0.1308594-0.9570313-0.3964844c-0.5292969-0.5273438-0.5292969-1.3847656,0-1.9140625l4.8554688-4.8554688
	C17.9267578,5.25,18.0615234,5.1660156,18.203125,5.1015625c0.6474609,0.5830078,1.2109375,1.2539063,1.6748047,1.9951172
	C19.8330078,7.1611328,19.7841797,7.2246094,19.7265625,7.28125z"/>
<radialGradient gradientTransform="rotate({backgroundAngle}, 12, 12)" id="SVGID_1_" cx="12" cy="3.1728516" r="22.2501049" gradientUnits="userSpaceOnUse">
	<stop  offset="0.351515" style="stop-color:#FFFFFF;stop-opacity:0.4"/>
	<stop  offset="0.842424" style="stop-color:#FFFFFF;stop-opacity:0"/>
</radialGradient>
<path fill="url(#SVGID_1_)" d="M12,0C5.3828125,0,0,5.3828125,0,12s5.3828125,12,12,12s12-5.3828125,12-12S18.6171875,0,12,0z"/>
</svg>
