<?xml version="1.0" encoding="utf-8"?>
<!-- Generator: Adobe Illustrator 14.0.0, SVG Export Plug-In  -->
<!DOCTYPE svg PUBLIC "-//W3C//DTD SVG 1.1//EN" "http://www.w3.org/Graphics/SVG/1.1/DTD/svg11.dtd" [
	<!ENTITY ns_flows "http://ns.adobe.com/Flows/1.0/">
]>
<svg version="1.1"
	 xmlns="http://www.w3.org/2000/svg" xmlns:xlink="http://www.w3.org/1999/xlink" xmlns:a="http://ns.adobe.com/AdobeSVGViewerExtensions/3.0/"
	 x="0px" y="0px" width="100%" height="100%" viewBox="0 0 24 24" enable-background="new 0 0 24 24" xml:space="preserve">
<defs>
</defs>
<circle fill="#FFFFFF" cx="12" cy="12" r="12"/>
<path fill="{color}" transform="rotate({angle}, 12, 12)" d="M12,0C5.3730469,0,0,5.3730469,0,12s5.3730469,12,12,12s12-5.3730469,12-12S18.6269531,0,12,0z
	 M15.0273438,7.0585938l0.3867188-0.3867188c0.5283203-0.5292969,1.3857422-0.5292969,1.9140625,0
	c0.5292969,0.5283203,0.5292969,1.3857422,0,1.9140625l-0.3867188,0.3867188
	c-0.2646484,0.2646484-0.6103516,0.3964844-0.9570313,0.3964844s-0.6933594-0.1318359-0.9570313-0.3964844
	C14.4980469,8.4443359,14.4980469,7.5869141,15.0273438,7.0585938z M6.671875,6.671875
	c0.5283203-0.5292969,1.3857422-0.5292969,1.9140625,0l0.3867188,0.3867188c0.5292969,0.5283203,0.5292969,1.3857422,0,1.9140625
	C8.7089844,9.2373047,8.3623047,9.3691406,8.015625,9.3691406S7.3232422,9.2373047,7.0585938,8.9726563L6.671875,8.5859375
	C6.1425781,8.0576172,6.1425781,7.2001953,6.671875,6.671875z M4.4570313,12c0-0.7480469,0.6064453-1.3544922,1.3535156-1.3544922
	h0.5029297c0.7480469,0,1.3535156,0.6064453,1.3535156,1.3544922c0,0.7470703-0.6054688,1.3535156-1.3535156,1.3535156H5.8105469
	C5.0634766,13.3535156,4.4570313,12.7470703,4.4570313,12z M8.9726563,16.9423828l-0.3867188,0.3867188
	c-0.2646484,0.2636719-0.6103516,0.3955078-0.9570313,0.3955078s-0.6933594-0.1318359-0.9580078-0.3964844
	c-0.5283203-0.5292969-0.5273438-1.3867188,0.0009766-1.9150391l0.3876953-0.3867188
	c0.5292969-0.5273438,1.3857422-0.5283203,1.9150391,0.0009766C9.5019531,15.5556641,9.5019531,16.4130859,8.9726563,16.9423828z
	 M13.3535156,18.1894531c0,0.7470703-0.6054688,1.3535156-1.3535156,1.3535156s-1.3535156-0.6064453-1.3535156-1.3535156v-0.5029297
	c0-0.7480469,0.6054688-1.3544922,1.3535156-1.3544922s1.3535156,0.6064453,1.3535156,1.3544922V18.1894531z M16.4384766,16.4384766
	c-0.2646484,0.2646484-0.6103516,0.3964844-0.9570313,0.3964844s-0.6923828-0.1318359-0.9570313-0.3964844l-3.4814453-3.4814453
	C10.7890625,12.703125,10.6464844,12.359375,10.6464844,12V6.5839844V5.8105469
	c0-0.7470703,0.6054688-1.3535156,1.3535156-1.3535156s1.3535156,0.6064453,1.3535156,1.3535156v0.7734375v4.8544922
	l3.0849609,3.0859375C16.9677734,15.0527344,16.9677734,15.9101563,16.4384766,16.4384766z M18.1894531,13.3535156h-0.5029297
	c-0.7480469,0-1.3535156-0.6064453-1.3535156-1.3535156c0-0.7480469,0.6054688-1.3544922,1.3535156-1.3544922h0.5029297
	c0.7470703,0,1.3535156,0.6064453,1.3535156,1.3544922C19.5429688,12.7470703,18.9365234,13.3535156,18.1894531,13.3535156z"/>
<radialGradient gradientTransform="rotate({backgroundAngle}, 12, 12)" id="SVGID_1_" cx="12" cy="3.1728516" r="22.2501049" gradientUnits="userSpaceOnUse">
	<stop  offset="0.351515" style="stop-color:#FFFFFF;stop-opacity:0.4"/>
	<stop  offset="0.842424" style="stop-color:#FFFFFF;stop-opacity:0"/>
</radialGradient>
<path fill="url(#SVGID_1_)" d="M12,0C5.3828125,0,0,5.3828125,0,12s5.3828125,12,12,12s12-5.3828125,12-12S18.6171875,0,12,0z"/>
</svg>
