<?xml version="1.0" encoding="utf-8"?>
<!-- Generator: Adobe Illustrator 14.0.0, SVG Export Plug-In  -->
<!DOCTYPE svg PUBLIC "-//W3C//DTD SVG 1.1//EN" "http://www.w3.org/Graphics/SVG/1.1/DTD/svg11.dtd" [
	<!ENTITY ns_flows "http://ns.adobe.com/Flows/1.0/">
]>
<svg version="1.1"
	 xmlns="http://www.w3.org/2000/svg" xmlns:xlink="http://www.w3.org/1999/xlink" xmlns:a="http://ns.adobe.com/AdobeSVGViewerExtensions/3.0/"
	 x="0px" y="0px" width="100%" height="100%" viewBox="0 0 24 24" enable-background="new 0 0 24 24" xml:space="preserve">
<defs>
</defs>
<path fill="{color}" transform="rotate({angle}, 12, 12)" d="M12,0C5.3828125,0,0,5.3828125,0,12c0,6.6162109,5.3828125,12,12,12s12-5.3837891,12-12
	C24,5.3828125,18.6171875,0,12,0z M12,21.2919922c-5.1240234,0-9.2919922-4.1679688-9.2919922-9.2919922
	S6.8759766,2.7080078,12,2.7080078S21.2919922,6.8759766,21.2919922,12S17.1240234,21.2919922,12,21.2919922z
	 M16.4384766,14.5244141c0.5292969,0.5283203,0.5292969,1.3857422,0,1.9140625
	c-0.2646484,0.2646484-0.6103516,0.3964844-0.9570313,0.3964844s-0.6923828-0.1318359-0.9570313-0.3964844l-3.4814453-3.4814453
	C10.7890625,12.703125,10.6464844,12.359375,10.6464844,12V6.5839844V5.8105469
	c0-0.7470703,0.6054688-1.3535156,1.3535156-1.3535156s1.3535156,0.6064453,1.3535156,1.3535156v0.7734375v4.8544922
	L16.4384766,14.5244141z M6.3134766,13.3535156H5.8105469c-0.7470703,0-1.3535156-0.6064453-1.3535156-1.3535156
	c0-0.7480469,0.6064453-1.3544922,1.3535156-1.3544922h0.5029297c0.7480469,0,1.3535156,0.6064453,1.3535156,1.3544922
	C7.6669922,12.7470703,7.0615234,13.3535156,6.3134766,13.3535156z M8.9746094,15.0273438
	c0.5273438,0.5283203,0.5273438,1.3857422-0.0019531,1.9150391l-0.3867188,0.3867188
	c-0.2646484,0.2636719-0.6103516,0.3955078-0.9570313,0.3955078s-0.6933594-0.1318359-0.9580078-0.3964844
	c-0.5283203-0.5292969-0.5273438-1.3867188,0.0009766-1.9150391l0.3876953-0.3867188
	C7.5888672,14.4990234,8.4453125,14.4980469,8.9746094,15.0273438z M6.671875,8.5859375
	c-0.5292969-0.5283203-0.5292969-1.3857422,0-1.9140625c0.5283203-0.5292969,1.3857422-0.5292969,1.9140625,0l0.3867188,0.3867188
	c0.5292969,0.5283203,0.5292969,1.3857422,0,1.9140625C8.7089844,9.2373047,8.3623047,9.3691406,8.015625,9.3691406
	S7.3232422,9.2373047,7.0585938,8.9726563L6.671875,8.5859375z M13.3535156,17.6865234v0.5029297
	c0,0.7470703-0.6054688,1.3535156-1.3535156,1.3535156s-1.3535156-0.6064453-1.3535156-1.3535156v-0.5029297
	c0-0.7480469,0.6054688-1.3544922,1.3535156-1.3544922S13.3535156,16.9384766,13.3535156,17.6865234z M19.5429688,12
	c0,0.7470703-0.6064453,1.3535156-1.3535156,1.3535156h-0.5029297c-0.7480469,0-1.3535156-0.6064453-1.3535156-1.3535156
	c0-0.7480469,0.6054688-1.3544922,1.3535156-1.3544922h0.5029297C18.9365234,10.6455078,19.5429688,11.2519531,19.5429688,12z
	 M15.0273438,8.9726563c-0.5292969-0.5283203-0.5292969-1.3857422,0-1.9140625l0.3867188-0.3867188
	c0.5283203-0.5292969,1.3857422-0.5292969,1.9140625,0c0.5292969,0.5283203,0.5292969,1.3857422,0,1.9140625l-0.3867188,0.3867188
	c-0.2646484,0.2646484-0.6103516,0.3964844-0.9570313,0.3964844S15.2910156,9.2373047,15.0273438,8.9726563z"/>
</svg>
