<?xml version="1.0" encoding="utf-8"?>
<!-- Generator: Adobe Illustrator 14.0.0, SVG Export Plug-In  -->
<!DOCTYPE svg PUBLIC "-//W3C//DTD SVG 1.1//EN" "http://www.w3.org/Graphics/SVG/1.1/DTD/svg11.dtd" [
	<!ENTITY ns_flows "http://ns.adobe.com/Flows/1.0/">
]>
<svg version="1.1"
	 xmlns="http://www.w3.org/2000/svg" xmlns:xlink="http://www.w3.org/1999/xlink" xmlns:a="http://ns.adobe.com/AdobeSVGViewerExtensions/3.0/"
	 x="0px" y="0px" width="100%" height="100%" viewBox="0 0 24 24" enable-background="new 0 0 24 24" xml:space="preserve">
<defs>
</defs>
<circle fill="#FFFFFF" cx="12" cy="12" r="12"/>
<path fill="{color}" transform="rotate({angle}, 12, 12)" d="M12,0C5.3828125,0,0,5.3828125,0,12s5.3828125,12,12,12s12-5.3828125,12-12S18.6171875,0,12,0z
	 M10.6464844,17.9960938H7.9375v-1.9345703H6.0039063v-2.7070313h3.2871094c0.7480469,0,1.3554688,0.6054688,1.3554688,1.3535156
	V17.9960938z M10.6464844,9.2910156c0,0.7480469-0.6074219,1.3554688-1.3554688,1.3554688H6.0039063V7.9375H7.9375V6.0039063
	h2.7089844V9.2910156z M17.9960938,16.0615234h-1.9355469v1.9345703h-2.7070313v-3.2880859
	c0-0.7480469,0.6054688-1.3535156,1.3535156-1.3535156h3.2890625V16.0615234z M17.9960938,10.6464844h-3.2890625
	c-0.7480469,0-1.3535156-0.6074219-1.3535156-1.3554688V6.0039063h2.7070313V7.9375h1.9355469V10.6464844z"/>
<radialGradient gradientTransform="rotate({backgroundAngle}, 12, 12)" id="SVGID_1_" cx="12" cy="3.1728516" r="22.2501049" gradientUnits="userSpaceOnUse">
	<stop  offset="0.351515" style="stop-color:#FFFFFF;stop-opacity:0.4"/>
	<stop  offset="0.842424" style="stop-color:#FFFFFF;stop-opacity:0"/>
</radialGradient>
<path fill="url(#SVGID_1_)" d="M12,0C5.3828125,0,0,5.3828125,0,12s5.3828125,12,12,12s12-5.3828125,12-12S18.6171875,0,12,0z"/>
</svg>
