<?xml version="1.0" encoding="utf-8"?>
<!-- Generator: Adobe Illustrator 14.0.0, SVG Export Plug-In  -->
<!DOCTYPE svg PUBLIC "-//W3C//DTD SVG 1.1//EN" "http://www.w3.org/Graphics/SVG/1.1/DTD/svg11.dtd" [
	<!ENTITY ns_flows "http://ns.adobe.com/Flows/1.0/">
]>
<svg version="1.1"
	 xmlns="http://www.w3.org/2000/svg" xmlns:xlink="http://www.w3.org/1999/xlink" xmlns:a="http://ns.adobe.com/AdobeSVGViewerExtensions/3.0/"
	 x="0px" y="0px" width="100%" height="100%" viewBox="0 0 24 24" enable-background="new 0 0 24 24" xml:space="preserve">
<defs>
</defs>
<path fill="#4594d0" transform="rotate({angle}, 12, 12)" d="M12,24C5.3828125,24,0,18.6171875,0,12S5.3828125,0,12,0s12,5.3828125,12,12S18.6171875,24,12,24L12,24z
	 M12,2.7080078c-5.1230469,0-9.2910156,4.1689453-9.2910156,9.2919922c0,5.1240234,4.1679688,9.2929688,9.2910156,9.2929688
	c5.125,0,9.2929688-4.1689453,9.2929688-9.2929688C21.2929688,6.8769531,17.125,2.7080078,12,2.7080078L12,2.7080078z
	 M13.3535156,8.7128906h1.9355469v1.9335938h2.7070313V7.359375c0-0.7480469-0.6054688-1.3554688-1.3535156-1.3554688h-3.2890625
	V8.7128906z M8.7128906,10.6464844V8.7128906h1.9335938V6.0039063H7.359375c-0.7480469,0-1.3554688,0.6074219-1.3554688,1.3554688
	v3.2871094H8.7128906z M10.6464844,15.2890625H8.7128906v-1.9345703H6.0039063v3.2880859
	c0,0.7480469,0.6074219,1.3535156,1.3554688,1.3535156h3.2871094V15.2890625z M15.2890625,13.3544922v1.9345703h-1.9355469
	v2.7070313h3.2890625c0.7480469,0,1.3535156-0.6054688,1.3535156-1.3535156v-3.2880859H15.2890625z"/>
</svg>
