<?xml version="1.0" encoding="utf-8"?>
<!-- Generator: Adobe Illustrator 14.0.0, SVG Export Plug-In  -->
<!DOCTYPE svg PUBLIC "-//W3C//DTD SVG 1.1//EN" "http://www.w3.org/Graphics/SVG/1.1/DTD/svg11.dtd" [
	<!ENTITY ns_flows "http://ns.adobe.com/Flows/1.0/">
]>
<svg version="1.1"
	 xmlns="http://www.w3.org/2000/svg" xmlns:xlink="http://www.w3.org/1999/xlink" xmlns:a="http://ns.adobe.com/AdobeSVGViewerExtensions/3.0/"
	 x="0px" y="0px" width="100%" height="100%" viewBox="0 0 24 24" enable-background="new 0 0 24 24" xml:space="preserve">
<defs>
</defs>
<path fill="{color}" transform="rotate({angle}, 12, 12)" d="M12,24C5.3828125,24,0,18.6171875,0,12S5.3828125,0,12,0s12,5.3828125,12,12S18.6171875,24,12,24L12,24z
	 M12,2.7080078c-5.1230469,0-9.2910156,4.1689453-9.2910156,9.2919922c0,5.1240234,4.1679688,9.2929688,9.2910156,9.2929688
	c5.125,0,9.2929688-4.1689453,9.2929688-9.2929688C21.2929688,6.8769531,17.125,2.7080078,12,2.7080078L12,2.7080078z
	 M17.9960938,7.9375h-1.9355469V6.0039063h-2.7070313v3.2871094c0,0.7480469,0.6054688,1.3554688,1.3535156,1.3554688h3.2890625
	V7.9375z M7.9375,6.0039063V7.9375H6.0039063v2.7089844h3.2871094c0.7480469,0,1.3554688-0.6074219,1.3554688-1.3554688V6.0039063
	H7.9375z M6.0039063,16.0615234H7.9375v1.9345703h2.7089844v-3.2880859c0-0.7480469-0.6074219-1.3535156-1.3554688-1.3535156
	H6.0039063V16.0615234z M16.0605469,17.9960938v-1.9345703h1.9355469v-2.7070313h-3.2890625
	c-0.7480469,0-1.3535156,0.6054688-1.3535156,1.3535156v3.2880859H16.0605469z"/>
</svg>
