<?xml version="1.0" encoding="utf-8"?>
<!-- Generator: Adobe Illustrator 14.0.0, SVG Export Plug-In  -->
<!DOCTYPE svg PUBLIC "-//W3C//DTD SVG 1.1//EN" "http://www.w3.org/Graphics/SVG/1.1/DTD/svg11.dtd" [
	<!ENTITY ns_flows "http://ns.adobe.com/Flows/1.0/">
]>
<svg version="1.1"
	 xmlns="http://www.w3.org/2000/svg" xmlns:xlink="http://www.w3.org/1999/xlink" xmlns:a="http://ns.adobe.com/AdobeSVGViewerExtensions/3.0/"
	 x="0px" y="0px" width="100%" height="100%" viewBox="0 0 24 24" enable-background="new 0 0 24 24" xml:space="preserve">
<defs>
</defs>
<circle fill="#FFFFFF" cx="12" cy="12" r="12"/>
<path fill="{color}" transform="rotate({angle}, 12, 12)" d="M12,0C5.3828125,0,0,5.3828125,0,12c0,6.6162109,5.3828125,12,12,12s12-5.3837891,12-12
	C24,5.3828125,18.6171875,0,12,0z M15.0947266,17.2226563h-3.8691406c-0.0419922,0-0.0820313-0.0087891-0.1230469-0.0117188
	c-2.3037109-0.1054688-4.2216797-1.7060547-4.7998047-3.8564453h-3.484375
	c-0.0654297-0.4433594-0.1113281-0.8930664-0.1113281-1.3549805c0-0.4604492,0.0458984-0.909668,0.1113281-1.3520508h2.2148438
	v-0.0009766h1.2695313c0.5800781-2.1552734,2.5029297-3.7602539,4.8154297-3.8574219
	c0.0361328-0.0029297,0.0712891-0.0117188,0.1074219-0.0117188h0.1074219c0.0029297,0,0.0039063,0,0.0068359,0
	c0.0019531,0,0.0029297,0,0.0039063,0h3.7509766c0.7470703,0,1.3535156,0.6069336,1.3535156,1.3544922
	c0,0.7480469-0.6064453,1.3535156-1.3535156,1.3535156h-3.7617188C9.9501953,9.4907227,8.8261719,10.6157227,8.8261719,12
	c0,1.3867188,1.1269531,2.5146484,2.5136719,2.5146484c0.0019531,0,0.0029297,0.0009766,0.0039063,0.0009766h3.7509766
	c0.7470703,0,1.3535156,0.6054688,1.3535156,1.3535156C16.4482422,16.6162109,15.8417969,17.2226563,15.0947266,17.2226563z
	 M18.9628906,13.3554688h-7.7373047c-0.7470703,0-1.3535156-0.6069336-1.3535156-1.3544922
	c0-0.7480469,0.6064453-1.3535156,1.3535156-1.3535156h7.7373047c0.7480469,0,1.3535156,0.6054688,1.3535156,1.3535156
	C20.3164063,12.7485352,19.7109375,13.3554688,18.9628906,13.3554688z"/>
<radialGradient gradientTransform="rotate({backgroundAngle}, 12, 12)" id="SVGID_1_" cx="12" cy="3.1728516" r="22.2501049" gradientUnits="userSpaceOnUse">
	<stop  offset="0.351515" style="stop-color:#FFFFFF;stop-opacity:0.4"/>
	<stop  offset="0.842424" style="stop-color:#FFFFFF;stop-opacity:0"/>
</radialGradient>
<path fill="url(#SVGID_1_)" d="M12,0C5.3828125,0,0,5.3828125,0,11.9995117C0,18.6171875,5.3828125,24,12,24
	s12-5.3828125,12-12.0004883C24,5.3828125,18.6171875,0,12,0z"/>
</svg>
