<?xml version="1.0" encoding="utf-8"?>
<!-- Generator: Adobe Illustrator 14.0.0, SVG Export Plug-In  -->
<!DOCTYPE svg PUBLIC "-//W3C//DTD SVG 1.1//EN" "http://www.w3.org/Graphics/SVG/1.1/DTD/svg11.dtd" [
	<!ENTITY ns_flows "http://ns.adobe.com/Flows/1.0/">
]>
<svg version="1.1"
	 xmlns="http://www.w3.org/2000/svg" xmlns:xlink="http://www.w3.org/1999/xlink" xmlns:a="http://ns.adobe.com/AdobeSVGViewerExtensions/3.0/"
	 x="0px" y="0px" width="100%" height="100%" viewBox="0 0 24 24" enable-background="new 0 0 24 24" xml:space="preserve">
<defs>
</defs>
<path fill="#6e88c5" transform="rotate({angle}, 12, 12)" d="M12,0C5.3828125,0,0,5.3833008,0,12c0,6.6171875,5.3828125,12,12,12s12-5.3828125,12-12
	C24,5.3833008,18.6171875,0,12,0z M12,21.2919922c-4.6621094,0-8.5234375-3.4550781-9.1816406-7.9375h3.484375
	c0.578125,2.1503906,2.4960938,3.7509766,4.7998047,3.8564453c0.0410156,0.0019531,0.0810547,0.0117188,0.1230469,0.0117188
	h3.8691406c0.7470703,0,1.3535156-0.6074219,1.3535156-1.3535156c0-0.7480469-0.6064453-1.3535156-1.3535156-1.3535156H11.34375
	c-0.0009766,0-0.0019531-0.0009766-0.0039063-0.0009766c-1.3867188,0-2.5136719-1.1279297-2.5136719-2.5146484
	c0-1.3842773,1.1240234-2.5092773,2.5068359-2.5146484h3.7617188c0.7470703,0,1.3535156-0.6054688,1.3535156-1.3535156
	c0-0.7475586-0.6064453-1.3540039-1.3535156-1.3540039H11.34375c-0.0009766,0-0.0019531,0-0.0039063,0
	c-0.0029297,0-0.0039063,0-0.0068359,0h-0.1074219c-0.0361328,0-0.0712891,0.0087891-0.1074219,0.0117188
	c-2.3125,0.097168-4.2353516,1.7016602-4.8154297,3.8569336H2.8173828C3.4765625,6.1640625,7.3369141,2.7080078,12,2.7080078
	c5.1230469,0,9.2919922,4.1689453,9.2919922,9.2919922S17.1230469,21.2919922,12,21.2919922z M20.3164063,12.0009766
	c0,0.7475586-0.6054688,1.3544922-1.3535156,1.3544922h-7.7373047c-0.7470703,0-1.3535156-0.6069336-1.3535156-1.3544922
	c0-0.7480469,0.6064453-1.3535156,1.3535156-1.3535156h7.7373047
	C19.7109375,10.6474609,20.3164063,11.2529297,20.3164063,12.0009766z"/>
</svg>
