<?xml version="1.0" encoding="utf-8"?>
<!-- Generator: Adobe Illustrator 14.0.0, SVG Export Plug-In  -->
<!DOCTYPE svg PUBLIC "-//W3C//DTD SVG 1.1//EN" "http://www.w3.org/Graphics/SVG/1.1/DTD/svg11.dtd" [
	<!ENTITY ns_flows "http://ns.adobe.com/Flows/1.0/">
]>
<svg version="1.1"
	 xmlns="http://www.w3.org/2000/svg" xmlns:xlink="http://www.w3.org/1999/xlink" xmlns:a="http://ns.adobe.com/AdobeSVGViewerExtensions/3.0/"
	 x="0px" y="0px" width="100%" height="100%" viewBox="0 0 24 24" enable-background="new 0 0 24 24" xml:space="preserve">
<defs>
</defs>
<path fill="#4ca24e" transform="rotate({angle}, 12, 12)" d="M12,24C5.3828125,24,0,18.6171875,0,12S5.3837891-0.0009766,12,0c6.6171875,0,12,5.3828125,12,12
	S18.6171875,23.9990234,12,24L12,24z M12,2.7080078C6.8769531,2.7070313,2.7070313,6.8769531,2.7070313,12
	S6.8769531,21.2910156,12,21.2919922c5.1230469,0,9.2919922-4.1689453,9.2919922-9.2919922S17.1230469,2.7080078,12,2.7080078
	L12,2.7080078z M18.7695313,12c0,0.7470703-0.6064453,1.3544922-1.3535156,1.3535156h-4.0625v4.0625
	c0,0.7470703-0.6054688,1.3535156-1.3535156,1.3535156s-1.3544922-0.6064453-1.3535156-1.3535156l-0.0009766-4.0625
	l-4.0615234,0.0009766c-0.7480469,0-1.3535156-0.6064453-1.3535156-1.3554688c0-0.7470703,0.6054688-1.3535156,1.3535156-1.3535156
	h4.0615234V6.5839844c0-0.7470703,0.6064453-1.3544922,1.3544922-1.3544922
	c0.7480469,0.0009766,1.3535156,0.6074219,1.3535156,1.3544922v4.0615234h4.0625
	C18.1630859,10.6455078,18.7695313,11.2519531,18.7695313,12z"/>
</svg>
