<?xml version="1.0" encoding="utf-8"?>
<!-- Generator: Adobe Illustrator 14.0.0, SVG Export Plug-In  -->
<!DOCTYPE svg PUBLIC "-//W3C//DTD SVG 1.1//EN" "http://www.w3.org/Graphics/SVG/1.1/DTD/svg11.dtd" [
	<!ENTITY ns_flows "http://ns.adobe.com/Flows/1.0/">
]>
<svg version="1.1"
	 xmlns="http://www.w3.org/2000/svg" xmlns:xlink="http://www.w3.org/1999/xlink" xmlns:a="http://ns.adobe.com/AdobeSVGViewerExtensions/3.0/"
	 x="0px" y="0px" width="100%" height="100%" viewBox="0 0 24 24" enable-background="new 0 0 24 24" xml:space="preserve">
<defs>
</defs>
<path fill="{color}" transform="rotate({angle}, 12, 12)" d="M12,0C5.3837891,0,0,5.3837891,0,12s5.3837891,12,12,12s12-5.3837891,12-12S18.6162109,0,12,0z
	 M12,21.2919922c-5.1240234,0-9.2919922-4.1679688-9.2919922-9.2919922S6.8759766,2.7080078,12,2.7080078
	S21.2919922,6.8759766,21.2919922,12S17.1240234,21.2919922,12,21.2919922z M16.6416016,6.0039063H7.3583984
	c-0.7480469,0-1.3544922,0.6064453-1.3544922,1.3544922v9.2832031c0,0.7480469,0.6064453,1.3544922,1.3544922,1.3544922h9.2832031
	c0.7480469,0,1.3544922-0.6064453,1.3544922-1.3544922V7.3583984C17.9960938,6.6103516,17.3896484,6.0039063,16.6416016,6.0039063z
	 M13.3740234,8.7119141l-4.6621094,4.6621094V8.7119141H13.3740234z M10.6269531,15.2880859l4.6611328-4.6621094v4.6621094
	H10.6269531z"/>
</svg>
