<?xml version="1.0" encoding="utf-8"?>
<!-- Generator: Adobe Illustrator 14.0.0, SVG Export Plug-In  -->
<!DOCTYPE svg PUBLIC "-//W3C//DTD SVG 1.1//EN" "http://www.w3.org/Graphics/SVG/1.1/DTD/svg11.dtd" [
	<!ENTITY ns_flows "http://ns.adobe.com/Flows/1.0/">
]>
<svg version="1.1"
	 xmlns="http://www.w3.org/2000/svg" xmlns:xlink="http://www.w3.org/1999/xlink" xmlns:a="http://ns.adobe.com/AdobeSVGViewerExtensions/3.0/"
	 x="0px" y="0px" width="100%" height="100%" viewBox="0 0 24 24" enable-background="new 0 0 24 24" xml:space="preserve">
<defs>
</defs>
<circle fill="#FFFFFF" cx="12" cy="12" r="12"/>
<path fill="{color}" transform="rotate({angle}, 12, 12)" d="M12,0C5.383,0,0,5.383,0,12s5.383,12,12,12s12-5.383,12-12S18.617,0,12,0z M15.982,17.416
	c0,0.02-0.006,0.039-0.006,0.059c-0.002,0.048-0.008,0.096-0.016,0.144c-0.006,0.041-0.014,0.083-0.023,0.123
	c-0.01,0.044-0.023,0.086-0.039,0.129c-0.016,0.041-0.031,0.082-0.049,0.122c-0.02,0.038-0.039,0.075-0.063,0.113
	c-0.023,0.04-0.049,0.079-0.078,0.116c-0.012,0.017-0.02,0.035-0.033,0.052c-0.012,0.016-0.029,0.025-0.041,0.04
	c-0.041,0.045-0.084,0.086-0.129,0.126c-0.029,0.023-0.057,0.048-0.086,0.069c-0.049,0.036-0.102,0.065-0.154,0.095
	c-0.029,0.016-0.059,0.034-0.088,0.047c-0.064,0.029-0.133,0.05-0.201,0.068c-0.021,0.006-0.043,0.016-0.064,0.02
	c-0.092,0.02-0.188,0.031-0.283,0.031h-0.002c-0.084,0-0.168-0.01-0.25-0.025c-0.029-0.005-0.055-0.015-0.084-0.021
	c-0.053-0.014-0.104-0.028-0.156-0.049c-0.031-0.012-0.061-0.026-0.09-0.041c-0.045-0.021-0.088-0.044-0.131-0.07
	c-0.029-0.019-0.059-0.038-0.088-0.06c-0.02-0.014-0.039-0.024-0.057-0.039l-3.883-3.176H7.356c-0.748,0-1.355-0.606-1.355-1.354
	v-3.869c0-0.747,0.607-1.354,1.355-1.354h2.532l3.883-3.176c0.016-0.013,0.033-0.021,0.051-0.033
	c0.037-0.028,0.076-0.054,0.115-0.077s0.076-0.044,0.115-0.063s0.078-0.034,0.119-0.048c0.043-0.017,0.088-0.03,0.133-0.041
	c0.039-0.011,0.078-0.017,0.119-0.023c0.049-0.007,0.098-0.013,0.148-0.015c0.018-0.001,0.037-0.006,0.057-0.006
	s0.039,0.005,0.061,0.006c0.049,0.003,0.098,0.008,0.146,0.015c0.041,0.007,0.082,0.015,0.121,0.024
	c0.045,0.011,0.088,0.025,0.131,0.04c0.039,0.015,0.078,0.03,0.117,0.049s0.078,0.04,0.117,0.063
	c0.037,0.022,0.072,0.045,0.107,0.071c0.035,0.025,0.068,0.054,0.102,0.084c0.035,0.03,0.066,0.063,0.098,0.097
	c0.016,0.017,0.033,0.03,0.047,0.047s0.021,0.035,0.033,0.052c0.029,0.037,0.055,0.076,0.078,0.116
	c0.023,0.038,0.043,0.075,0.063,0.113c0.018,0.04,0.033,0.081,0.049,0.122c0.016,0.043,0.029,0.085,0.039,0.129
	c0.01,0.04,0.018,0.082,0.023,0.123c0.008,0.048,0.014,0.096,0.016,0.144c0,0.02,0.006,0.039,0.006,0.059V17.416z"/>
<path fill="{color}" transform="rotate({angle}, 12, 12)" d="M11.172,11.153c-0.027,0.021-0.057,0.04-0.086,0.06c-0.043,0.026-0.088,0.05-0.133,0.071
	c-0.029,0.014-0.059,0.028-0.09,0.04c-0.051,0.021-0.104,0.035-0.156,0.049c-0.027,0.007-0.055,0.016-0.082,0.021
	c-0.084,0.016-0.168,0.025-0.252,0.025H8.71v1.16h1.663c0.02,0,0.039,0.006,0.059,0.006c0.049,0.002,0.096,0.008,0.143,0.015
	c0.043,0.007,0.084,0.014,0.125,0.023c0.043,0.011,0.084,0.024,0.127,0.04c0.043,0.015,0.084,0.03,0.123,0.05
	c0.039,0.018,0.076,0.039,0.113,0.061c0.039,0.024,0.08,0.05,0.117,0.078c0.016,0.013,0.035,0.021,0.051,0.034l2.043,1.672V9.441
	l-2.043,1.672C11.213,11.129,11.191,11.139,11.172,11.153z"/>
<radialGradient gradientTransform="rotate({backgroundAngle}, 12, 12)" id="SVGID_1_" cx="12" cy="3.1729" r="22.2501" gradientUnits="userSpaceOnUse">
	<stop  offset="0.3515" style="stop-color:#FFFFFF;stop-opacity:0.4"/>
	<stop  offset="0.8424" style="stop-color:#FFFFFF;stop-opacity:0"/>
</radialGradient>
<path fill="url(#SVGID_1_)" d="M12,0C5.383,0,0,5.383,0,12s5.383,12,12,12s12-5.383,12-12S18.617,0,12,0z"/>
</svg>
