<?xml version="1.0" encoding="utf-8"?>
<!-- Generator: Adobe Illustrator 14.0.0, SVG Export Plug-In  -->
<!DOCTYPE svg PUBLIC "-//W3C//DTD SVG 1.1//EN" "http://www.w3.org/Graphics/SVG/1.1/DTD/svg11.dtd" [
	<!ENTITY ns_flows "http://ns.adobe.com/Flows/1.0/">
]>
<svg version="1.1"
	 xmlns="http://www.w3.org/2000/svg" xmlns:xlink="http://www.w3.org/1999/xlink" xmlns:a="http://ns.adobe.com/AdobeSVGViewerExtensions/3.0/"
	 x="0px" y="0px" width="100%" height="100%" viewBox="0 0 24 24" enable-background="new 0 0 24 24" xml:space="preserve">
<defs>
</defs>
<path fill="{color}" transform="rotate({angle}, 12, 12)" d="M12,0C5.383,0,0,5.383,0,12s5.383,12,12,12s12-5.383,12-12S18.617,0,12,0z M12,21.292
	c-5.124,0-9.292-4.168-9.292-9.292S6.876,2.708,12,2.708S21.292,6.876,21.292,12S17.124,21.292,12,21.292z M15.961,6.382
	c-0.006-0.041-0.014-0.083-0.023-0.123c-0.01-0.044-0.023-0.086-0.039-0.129c-0.016-0.041-0.031-0.082-0.049-0.122
	c-0.02-0.038-0.039-0.075-0.063-0.113c-0.023-0.04-0.049-0.079-0.078-0.116c-0.012-0.017-0.02-0.035-0.033-0.052
	s-0.031-0.03-0.047-0.047c-0.031-0.034-0.063-0.066-0.098-0.097c-0.033-0.03-0.066-0.059-0.102-0.084
	c-0.035-0.026-0.07-0.049-0.107-0.071c-0.039-0.023-0.078-0.045-0.117-0.063s-0.078-0.034-0.117-0.049
	c-0.043-0.015-0.086-0.029-0.131-0.04c-0.039-0.01-0.08-0.018-0.121-0.024c-0.049-0.007-0.098-0.012-0.146-0.015
	c-0.021-0.001-0.041-0.006-0.061-0.006s-0.039,0.005-0.057,0.006c-0.051,0.002-0.1,0.008-0.148,0.015
	c-0.041,0.007-0.08,0.013-0.119,0.023c-0.045,0.011-0.09,0.024-0.133,0.041c-0.041,0.014-0.08,0.029-0.119,0.048
	s-0.076,0.039-0.115,0.063s-0.078,0.049-0.115,0.077c-0.018,0.012-0.035,0.021-0.051,0.033L9.889,8.712H7.356
	c-0.748,0-1.355,0.606-1.355,1.354v3.869c0,0.747,0.607,1.354,1.355,1.354h2.532l3.883,3.176c0.018,0.015,0.037,0.025,0.057,0.039
	c0.029,0.021,0.059,0.041,0.088,0.06c0.043,0.026,0.086,0.05,0.131,0.07c0.029,0.015,0.059,0.029,0.09,0.041
	c0.053,0.021,0.104,0.035,0.156,0.049c0.029,0.007,0.055,0.017,0.084,0.021c0.082,0.016,0.166,0.025,0.25,0.025l0,0h0.002
	c0.096,0,0.191-0.012,0.283-0.031c0.021-0.004,0.043-0.014,0.064-0.02c0.068-0.019,0.137-0.039,0.201-0.068
	c0.029-0.013,0.059-0.031,0.088-0.047c0.053-0.029,0.105-0.059,0.154-0.095c0.029-0.021,0.057-0.046,0.086-0.069
	c0.045-0.04,0.088-0.081,0.129-0.126c0.012-0.015,0.029-0.024,0.041-0.04c0.014-0.017,0.021-0.035,0.033-0.052
	c0.029-0.037,0.055-0.076,0.078-0.116c0.023-0.038,0.043-0.075,0.063-0.113c0.018-0.04,0.033-0.081,0.049-0.122
	c0.016-0.043,0.029-0.085,0.039-0.129c0.01-0.04,0.018-0.082,0.023-0.123c0.008-0.048,0.014-0.096,0.016-0.144
	c0-0.02,0.006-0.039,0.006-0.059V6.584c0-0.02-0.006-0.039-0.006-0.059C15.975,6.478,15.969,6.43,15.961,6.382z M11.23,12.887
	c-0.016-0.014-0.035-0.021-0.051-0.034c-0.037-0.028-0.078-0.054-0.117-0.078c-0.037-0.021-0.074-0.043-0.113-0.061
	c-0.039-0.02-0.08-0.035-0.123-0.05c-0.043-0.016-0.084-0.029-0.127-0.04c-0.041-0.01-0.082-0.017-0.125-0.023
	c-0.047-0.007-0.094-0.013-0.143-0.015c-0.02,0-0.039-0.006-0.059-0.006H8.71v-1.16h1.663l0,0l0,0c0.084,0,0.168-0.01,0.252-0.025
	c0.027-0.006,0.055-0.015,0.082-0.021c0.053-0.014,0.105-0.028,0.156-0.049c0.031-0.012,0.061-0.026,0.09-0.04
	c0.045-0.021,0.09-0.045,0.133-0.071c0.029-0.02,0.059-0.039,0.086-0.06c0.02-0.015,0.041-0.024,0.059-0.04l2.043-1.672v5.117
	L11.23,12.887z"/>
</svg>
