<?xml version="1.0" encoding="utf-8"?>
<!-- Generator: Adobe Illustrator 14.0.0, SVG Export Plug-In  -->
<!DOCTYPE svg PUBLIC "-//W3C//DTD SVG 1.1//EN" "http://www.w3.org/Graphics/SVG/1.1/DTD/svg11.dtd" [
	<!ENTITY ns_flows "http://ns.adobe.com/Flows/1.0/">
]>
<svg version="1.1"
	 xmlns="http://www.w3.org/2000/svg" xmlns:xlink="http://www.w3.org/1999/xlink" xmlns:a="http://ns.adobe.com/AdobeSVGViewerExtensions/3.0/"
	 x="0px" y="0px" width="100%" height="100%" viewBox="0 0 24 24" enable-background="new 0 0 24 24" xml:space="preserve">
<defs>
</defs>
<path fill="{color}" transform="rotate({angle}, 12, 12)" d="M20.4892578,3.5112305c4.6806641,4.6811523,4.6806641,12.2963867,0,16.9780273
	c-4.6806641,4.6806641-12.2978516,4.6806641-16.9785156,0c-4.6806641-4.6816406-4.6806641-12.296875,0-16.9780273
	C8.1914063-1.1704102,15.8085938-1.1704102,20.4892578,3.5112305L20.4892578,3.5112305z M5.4267578,18.5742188
	c3.6240234,3.6240234,9.5224609,3.6240234,13.1474609,0c3.625-3.625,3.625-9.5229492-0.0009766-13.1474609
	c-3.6240234-3.625-9.5224609-3.625-13.1474609,0C1.8017578,9.0512695,1.8007813,14.9492188,5.4267578,18.5742188
	L5.4267578,18.5742188z"/>
</svg>
