<?xml version="1.0" encoding="utf-8"?>
<!-- Generator: Adobe Illustrator 14.0.0, SVG Export Plug-In  -->
<!DOCTYPE svg PUBLIC "-//W3C//DTD SVG 1.1//EN" "http://www.w3.org/Graphics/SVG/1.1/DTD/svg11.dtd" [
	<!ENTITY ns_flows "http://ns.adobe.com/Flows/1.0/">
]>
<svg version="1.1"
	 xmlns="http://www.w3.org/2000/svg" xmlns:xlink="http://www.w3.org/1999/xlink" xmlns:a="http://ns.adobe.com/AdobeSVGViewerExtensions/3.0/"
	 x="0px" y="0px" width="100%" height="100%" viewBox="0 0 24 24" enable-background="new 0 0 24 24" xml:space="preserve">
<defs>
</defs>
<path fill="{color}" transform="rotate({angle}, 12, 12)" d="M12,0C5.3828125,0,0,5.3828125,0,12s5.3828125,12,12,12s12-5.3828125,12-12S18.6171875,0,12,0z
	 M12,21.2919922c-5.1240234,0-9.2919922-4.1689453-9.2919922-9.2919922c0-5.1240234,4.1679688-9.2929688,9.2919922-9.2929688
	S21.2929688,6.8759766,21.2929688,12C21.2929688,17.1230469,17.1240234,21.2919922,12,21.2919922z M18.8984375,13.9082031
	C18.0458984,16.9980469,15.2089844,19.15625,12,19.15625c-3.9453125,0-7.15625-3.2099609-7.15625-7.15625
	S8.0546875,4.84375,12,4.84375c2.0322266,0,3.9755859,0.8681641,5.3320313,2.3828125
	c0.390625,0.4355469,0.7265625,0.9179688,0.9980469,1.4326172c0.3496094,0.6611328,0.0976563,1.4804688-0.5644531,1.8291016
	c-0.6611328,0.3505859-1.4804688,0.0976563-1.8291016-0.5634766c-0.1689453-0.3203125-0.3779297-0.6201172-0.6210938-0.8916016
	C14.4716797,8.0917969,13.2636719,7.5517578,12,7.5517578C9.546875,7.5517578,7.5517578,9.546875,7.5517578,12
	S9.546875,16.4482422,12,16.4482422c1.3232422,0,2.5439453-0.5898438,3.3710938-1.5478516h-2.984375
	c-0.7480469,0-1.3535156-0.6054688-1.3535156-1.3535156s0.6054688-1.3535156,1.3535156-1.3535156H17.59375
	c0.4228516,0,0.8212891,0.1972656,1.0771484,0.5332031C18.9267578,13.0634766,19.0117188,13.5,18.8984375,13.9082031z"/>
</svg>
