<?xml version="1.0" encoding="utf-8"?>
<!-- Generator: Adobe Illustrator 14.0.0, SVG Export Plug-In  -->
<!DOCTYPE svg PUBLIC "-//W3C//DTD SVG 1.1//EN" "http://www.w3.org/Graphics/SVG/1.1/DTD/svg11.dtd" [
	<!ENTITY ns_flows "http://ns.adobe.com/Flows/1.0/">
]>
<svg version="1.1"
	 xmlns="http://www.w3.org/2000/svg" xmlns:xlink="http://www.w3.org/1999/xlink" xmlns:a="http://ns.adobe.com/AdobeSVGViewerExtensions/3.0/"
	 x="0px" y="0px" width="100%" height="100%" viewBox="0 0 24 24" enable-background="new 0 0 24 24" xml:space="preserve">
<defs>
</defs>
<path fill="#fff" transform="rotate(90, 12, 12)" d="M12,0C5.3828125,0,0,5.3828125,0,12s5.3828125,12,12,12s12-5.3828125,12-12S18.6171875,0,12,0z
	 M12,21.2929688c-5.1240234,0-9.2929688-4.1689453-9.2929688-9.2929688S6.8759766,2.7070313,12,2.7070313
	S21.2929688,6.8759766,21.2929688,12S17.1240234,21.2929688,12,21.2929688z M17.4160156,6.0039063H6.5839844
	c-0.7480469,0-1.3535156,0.6054688-1.3535156,1.3535156v9.2851563c0,0.7470703,0.6054688,1.3535156,1.3535156,1.3535156h10.8320313
	c0.7480469,0,1.3535156-0.6064453,1.3535156-1.3535156V7.3574219C18.7695313,6.609375,18.1640625,6.0039063,17.4160156,6.0039063z
	 M15.7021484,8.7119141L12,10.8271484L8.2978516,8.7119141H15.7021484z M7.9375,15.2880859V11.625l3.390625,1.9375
	C11.5361328,13.6816406,11.7675781,13.7412109,12,13.7412109s0.4628906-0.0595703,0.671875-0.1787109L16.0625,11.625v3.6630859
	H7.9375z"/>
</svg>
