<?xml version="1.0" encoding="utf-8"?>
<!-- Generator: Adobe Illustrator 14.0.0, SVG Export Plug-In  -->
<!DOCTYPE svg PUBLIC "-//W3C//DTD SVG 1.1//EN" "http://www.w3.org/Graphics/SVG/1.1/DTD/svg11.dtd" [
	<!ENTITY ns_flows "http://ns.adobe.com/Flows/1.0/">
]>
<svg version="1.1"
	 xmlns="http://www.w3.org/2000/svg" xmlns:xlink="http://www.w3.org/1999/xlink" xmlns:a="http://ns.adobe.com/AdobeSVGViewerExtensions/3.0/"
	 x="0px" y="0px" width="100%" height="100%" viewBox="0 0 24 24" enable-background="new 0 0 24 24" xml:space="preserve">
<defs>
</defs>
<circle fill="#FFFFFF" cx="12" cy="12" r="12"/>
<path fill="{color}" transform="rotate({angle}, 12, 12)" d="M12.0019531,0.0019531c-6.6171875,0-12,5.3828125-12,12s5.3828125,12,12,12s12-5.3828125,12-12
	S18.6191406,0.0019531,12.0019531,0.0019531z M18.7714844,16.6445313c0,0.7470703-0.6054688,1.3535156-1.3535156,1.3535156
	H6.5859375c-0.7480469,0-1.3535156-0.6064453-1.3535156-1.3535156V7.359375c0-0.7480469,0.6054688-1.3535156,1.3535156-1.3535156
	h10.8320313c0.7480469,0,1.3535156,0.6054688,1.3535156,1.3535156V16.6445313z M15.7041016,8.7138672l-3.7021484,2.1152344
	L8.2998047,8.7138672H15.7041016z M7.9394531,15.2900391v-3.6630859l3.390625,1.9375
	c0.2080078,0.1191406,0.4394531,0.1787109,0.671875,0.1787109s0.4628906-0.0595703,0.671875-0.1787109l3.390625-1.9375v3.6630859
	H7.9394531z"/>
<radialGradient gradientTransform="rotate({backgroundAngle}, 12, 12)" id="SVGID_1_" cx="12" cy="3.1728516" r="22.2501049" gradientUnits="userSpaceOnUse">
	<stop  offset="0.351515" style="stop-color:#FFFFFF;stop-opacity:0.4"/>
	<stop  offset="0.842424" style="stop-color:#FFFFFF;stop-opacity:0"/>
</radialGradient>
<path fill="url(#SVGID_1_)" d="M12,0C5.3828125,0,0,5.3828125,0,12s5.3828125,12,12,12s12-5.3828125,12-12S18.6171875,0,12,0z"/>
</svg>
