<?xml version="1.0" encoding="utf-8"?>
<!-- Generator: Adobe Illustrator 14.0.0, SVG Export Plug-In  -->
<!DOCTYPE svg PUBLIC "-//W3C//DTD SVG 1.1//EN" "http://www.w3.org/Graphics/SVG/1.1/DTD/svg11.dtd" [
	<!ENTITY ns_flows "http://ns.adobe.com/Flows/1.0/">
]>
<svg version="1.1"
	 xmlns="http://www.w3.org/2000/svg" xmlns:xlink="http://www.w3.org/1999/xlink" xmlns:a="http://ns.adobe.com/AdobeSVGViewerExtensions/3.0/"
	 x="0px" y="0px" width="100%" height="100%" viewBox="0 0 24 24" enable-background="new 0 0 24 24" xml:space="preserve">
<defs>
</defs>
<path fill="{color}" transform="rotate({angle}, 12, 12)" d="M12,0C5.3828125,0,0,5.3828125,0,12s5.3828125,12,12,12s12-5.3828125,12-12S18.6171875,0,12,0z
	 M12,21.2919922c-5.1230469,0-9.2929688-4.1689453-9.2929688-9.2919922c0-5.1240234,4.1699219-9.2919922,9.2929688-9.2919922
	S21.2929688,6.8759766,21.2929688,12C21.2929688,17.1230469,17.1230469,21.2919922,12,21.2919922z M18.7597656,9.5136719
	c-0.0449219-0.3623047-0.234375-0.6914063-0.5234375-0.9121094l-4.0703125-3.0947266
	c-0.5214844-0.3964844-1.25-0.3632813-1.7324219,0.0791016l-6.7636719,6.1884766
	c-0.2714844,0.25-0.4316406,0.5996094-0.4394531,0.9697266c-0.0078125,0.3691406,0.1347656,0.7255859,0.3964844,0.9863281
	l4.640625,4.6416016c0.0625,0.0625,0.1328125,0.1191406,0.2070313,0.1679688
	c0.0175781,0.0126953,0.0371094,0.0205078,0.0546875,0.03125c0.0585938,0.0341797,0.1152344,0.0683594,0.1777344,0.09375
	c0.0253906,0.0107422,0.0546875,0.0166016,0.0820313,0.0263672c0.0546875,0.0185547,0.1113281,0.0390625,0.1699219,0.0517578
	c0.0839844,0.0166016,0.1699219,0.0244141,0.2578125,0.0253906c0.0039063,0,0.0058594,0.0009766,0.0097656,0.0009766h4.640625
	c0.7480469,0,1.3554688-0.6064453,1.3554688-1.3544922c0-0.7470703-0.6074219-1.3535156-1.3554688-1.3535156h-1.8242188
	l4.4296875-5.5371094C18.7011719,10.2402344,18.8046875,9.875,18.7597656,9.5136719z M11.1132813,15.3886719l-2.5703125-2.5712891
	l4.8847656-4.4707031l2.0644531,1.5703125L11.1132813,15.3886719z"/>
</svg>
