<?xml version="1.0" encoding="utf-8"?>
<!-- Generator: Adobe Illustrator 14.0.0, SVG Export Plug-In  -->
<!DOCTYPE svg PUBLIC "-//W3C//DTD SVG 1.1//EN" "http://www.w3.org/Graphics/SVG/1.1/DTD/svg11.dtd" [
	<!ENTITY ns_flows "http://ns.adobe.com/Flows/1.0/">
]>
<svg version="1.1"
	 xmlns="http://www.w3.org/2000/svg" xmlns:xlink="http://www.w3.org/1999/xlink" xmlns:a="http://ns.adobe.com/AdobeSVGViewerExtensions/3.0/"
	 x="0px" y="0px" width="100%" height="100%" viewBox="0 0 24 24" enable-background="new 0 0 24 24" xml:space="preserve">
<defs>
</defs>
<path fill="{color}" transform="rotate({angle}, 12, 12)" d="M12,24C5.3828125,24,0,18.6171875,0,12S5.3828125,0,12,0s12,5.3828125,12,12S18.6171875,24,12,24L12,24z
	 M12,2.7080078c-5.1230469,0-9.2919922,4.1689453-9.2919922,9.2919922c0,5.1240234,4.1689453,9.2929688,9.2919922,9.2929688
	c5.1240234,0,9.2919922-4.1689453,9.2919922-9.2929688C21.2919922,6.8769531,17.1240234,2.7080078,12,2.7080078L12,2.7080078z
	 M11.2265625,18.7685547c-0.3583984,0-0.703125-0.140625-0.9570313-0.3955078l-4.6425781-4.6416016
	c-0.2617188-0.2607422-0.4042969-0.6181641-0.3964844-0.9873047c0.0087891-0.3691406,0.1679688-0.7197266,0.4394531-0.96875
	l6.7626953-6.1894531c0.4833984-0.4433594,1.2138672-0.4746094,1.734375-0.0800781l4.0683594,3.0957031
	c0.2900391,0.2207031,0.4794922,0.5488281,0.5244141,0.9121094c0.0449219,0.3613281-0.0585938,0.7265625-0.2871094,1.0117188
	l-6.1894531,7.7363281c-0.2402344,0.3007813-0.5976563,0.484375-0.9824219,0.5058594
	C11.2763672,18.7685547,11.2519531,18.7685547,11.2265625,18.7685547L11.2265625,18.7685547z M8.5429688,12.8173828
	l2.5712891,2.5712891l4.3779297-5.4716797l-2.0644531-1.5703125L8.5429688,12.8173828L8.5429688,12.8173828z"/>
</svg>
