<?xml version="1.0" encoding="utf-8"?>
<!-- Generator: Adobe Illustrator 14.0.0, SVG Export Plug-In  -->
<!DOCTYPE svg PUBLIC "-//W3C//DTD SVG 1.1//EN" "http://www.w3.org/Graphics/SVG/1.1/DTD/svg11.dtd" [
	<!ENTITY ns_flows "http://ns.adobe.com/Flows/1.0/">
]>
<svg version="1.1"
	 xmlns="http://www.w3.org/2000/svg" xmlns:xlink="http://www.w3.org/1999/xlink" xmlns:a="http://ns.adobe.com/AdobeSVGViewerExtensions/3.0/"
	 x="0px" y="0px" width="100%" height="100%" viewBox="0 0 24 24" enable-background="new 0 0 24 24" xml:space="preserve">
<defs>
</defs>
<circle fill="#FFFFFF" cx="12" cy="12" r="12"/>
<path fill="{color}" transform="rotate({angle}, 12, 12)" d="M12,0C5.3828125,0,0,5.3828125,0,12s5.3828125,12,12,12s12-5.3828125,12-12S18.6171875,0,12,0z
	 M18.4726563,10.5244141l-4.4296875,5.5371094h1.8242188c0.7480469,0,1.3554688,0.6064453,1.3554688,1.3535156
	c0,0.7480469-0.6074219,1.3544922-1.3554688,1.3544922h-4.640625c-0.0039063,0-0.0058594-0.0009766-0.0097656-0.0009766
	c-0.0878906-0.0009766-0.1738281-0.0087891-0.2578125-0.0253906c-0.0585938-0.0126953-0.1152344-0.0332031-0.1699219-0.0517578
	c-0.0273438-0.0097656-0.0566406-0.015625-0.0820313-0.0263672c-0.0625-0.0253906-0.1191406-0.0595703-0.1777344-0.09375
	c-0.0175781-0.0107422-0.0371094-0.0185547-0.0546875-0.03125c-0.0742188-0.0488281-0.1445313-0.1054688-0.2070313-0.1679688
	l-4.640625-4.6416016c-0.2617188-0.2607422-0.4042969-0.6171875-0.3964844-0.9863281
	c0.0078125-0.3701172,0.1679688-0.7197266,0.4394531-0.9697266l6.7636719-6.1884766
	c0.4824219-0.4423828,1.2109375-0.4755859,1.7324219-0.0791016l4.0703125,3.0947266
	c0.2890625,0.2207031,0.4785156,0.5498047,0.5234375,0.9121094C18.8046875,9.875,18.7011719,10.2402344,18.4726563,10.5244141z
	 M11.1132813,15.3886719l-2.5703125-2.5712891l4.8847656-4.4707031l2.0644531,1.5703125L11.1132813,15.3886719z"/>
<radialGradient gradientTransform="rotate({backgroundAngle}, 12, 12)" id="SVGID_1_" cx="12" cy="3.1728516" r="22.2501049" gradientUnits="userSpaceOnUse">
	<stop  offset="0.351515" style="stop-color:#FFFFFF;stop-opacity:0.4"/>
	<stop  offset="0.842424" style="stop-color:#FFFFFF;stop-opacity:0"/>
</radialGradient>
<path fill="url(#SVGID_1_)" d="M12,0C5.3828125,0,0,5.3828125,0,12s5.3828125,12,12,12s12-5.3828125,12-12S18.6171875,0,12,0z"/>
</svg>
