<?xml version="1.0" encoding="utf-8"?>
<!-- Generator: Adobe Illustrator 14.0.0, SVG Export Plug-In  -->
<!DOCTYPE svg PUBLIC "-//W3C//DTD SVG 1.1//EN" "http://www.w3.org/Graphics/SVG/1.1/DTD/svg11.dtd" [
	<!ENTITY ns_flows "http://ns.adobe.com/Flows/1.0/">
]>
<svg version="1.1"
	 xmlns="http://www.w3.org/2000/svg" xmlns:xlink="http://www.w3.org/1999/xlink" xmlns:a="http://ns.adobe.com/AdobeSVGViewerExtensions/3.0/"
	 x="0px" y="0px" width="100%" height="100%" viewBox="0 0 24 24" enable-background="new 0 0 24 24" xml:space="preserve">
<defs>
</defs>
<circle fill="#FFFFFF" cx="12" cy="12" r="12"/>
<path fill="{color}" transform="rotate({angle}, 12, 12)" d="M12,0C5.3828125,0,0,5.3828125,0,12s5.3828125,12,12,12s12-5.3828125,12-12S18.6171875,0,12,0z
	 M18.4726563,10.5253906l-6.1894531,7.7363281c-0.2402344,0.3007813-0.5976563,0.484375-0.9824219,0.5058594
	c-0.0244141,0.0009766-0.0488281,0.0009766-0.0742188,0.0009766c-0.3583984,0-0.703125-0.140625-0.9570313-0.3955078
	l-4.6425781-4.6416016c-0.2617188-0.2607422-0.4042969-0.6181641-0.3964844-0.9873047
	c0.0087891-0.3691406,0.1679688-0.7197266,0.4394531-0.96875l6.7626953-6.1894531
	c0.4833984-0.4433594,1.2138672-0.4746094,1.734375-0.0800781l4.0683594,3.0957031
	c0.2900391,0.2207031,0.4794922,0.5488281,0.5244141,0.9121094C18.8046875,9.875,18.7011719,10.2402344,18.4726563,10.5253906z
	 M8.5429688,12.8173828l2.5712891,2.5712891l4.3779297-5.4716797l-2.0644531-1.5703125L8.5429688,12.8173828L8.5429688,12.8173828z"
	/>
<radialGradient gradientTransform="rotate({backgroundAngle}, 12, 12)" id="SVGID_1_" cx="12" cy="3.1728516" r="22.2501049" gradientUnits="userSpaceOnUse">
	<stop  offset="0.351515" style="stop-color:#FFFFFF;stop-opacity:0.4"/>
	<stop  offset="0.842424" style="stop-color:#FFFFFF;stop-opacity:0"/>
</radialGradient>
<path fill="url(#SVGID_1_)" d="M12,0C5.3828125,0,0,5.3828125,0,12s5.3828125,12,12,12s12-5.3828125,12-12S18.6171875,0,12,0z"/>
</svg>
