<?xml version="1.0" encoding="utf-8"?>
<!-- Generator: Adobe Illustrator 16.0.3, SVG Export Plug-In . SVG Version: 6.00 Build 0)  -->
<!DOCTYPE svg PUBLIC "-//W3C//DTD SVG 1.1//EN" "http://www.w3.org/Graphics/SVG/1.1/DTD/svg11.dtd">
<svg version="1.1" id="Layer_1" xmlns="http://www.w3.org/2000/svg" xmlns:xlink="http://www.w3.org/1999/xlink" x="0px" y="0px"
	 width="100%" height="100%" viewBox="0 0 16 16" enable-background="new 0 0 16 16" xml:space="preserve">
<path fill="{color}" d="M6,12.5C6,13.328,5.328,14,4.5,14S3,13.328,3,12.5S3.672,11,4.5,11S6,11.672,6,12.5z M6.633,0.518
	C6.349,0.188,5.935,0,5.5,0h-2C3.065,0,2.651,0.188,2.367,0.518C2.082,0.846,1.953,1.281,2.015,1.712l1,7
	C3.121,9.451,3.754,10,4.5,10s1.379-0.549,1.485-1.288l1-7C7.047,1.281,6.918,0.846,6.633,0.518z"/>
</svg>
