<?xml version="1.0" encoding="utf-8"?>
<!-- Generator: Adobe Illustrator 14.0.0, SVG Export Plug-In  -->
<!DOCTYPE svg PUBLIC "-//W3C//DTD SVG 1.1//EN" "http://www.w3.org/Graphics/SVG/1.1/DTD/svg11.dtd" [
	<!ENTITY ns_flows "http://ns.adobe.com/Flows/1.0/">
]>
<svg version="1.1"
	 xmlns="http://www.w3.org/2000/svg" xmlns:xlink="http://www.w3.org/1999/xlink" xmlns:a="http://ns.adobe.com/AdobeSVGViewerExtensions/3.0/"
	 x="0px" y="0px" width="100%" height="100%" viewBox="0 0 24 24" enable-background="new 0 0 24 24" xml:space="preserve">
<defs>
</defs>
<circle fill="#FFFFFF" cx="12" cy="12" r="12"/>
<path fill="{color}" transform="rotate({angle}, 12, 12)" d="M12,0C5.3828125,0,0,5.3828125,0,12s5.3828125,12,12,12s12-5.3828125,12-12S18.6171875,0,12,0z
	 M12,18.7685547c-0.9599609,0-1.7402344-0.7802734-1.7402344-1.7392578c0-0.9609375,0.7802734-1.7412109,1.7402344-1.7412109
	s1.7402344,0.7802734,1.7402344,1.7412109C13.7402344,17.9882813,12.9599609,18.7685547,12,18.7685547z M14.1171875,6.7519531
	L13.34375,12.9414063C13.2587891,13.6191406,12.6826172,14.1279297,12,14.1279297s-1.2587891-0.5087891-1.34375-1.1865234
	L9.8828125,6.7519531C9.8339844,6.3671875,9.9541016,5.9794922,10.2109375,5.6875
	c0.2578125-0.2900391,0.6269531-0.4570313,1.015625-0.4570313h1.546875c0.3886719,0,0.7578125,0.1669922,1.015625,0.4570313
	C14.0458984,5.9794922,14.1660156,6.3671875,14.1171875,6.7519531z"/>
<radialGradient gradientTransform="rotate({backgroundAngle}, 12, 12)" id="SVGID_1_" cx="12" cy="3.1728516" r="22.2501049" gradientUnits="userSpaceOnUse">
	<stop  offset="0.351515" style="stop-color:#FFFFFF;stop-opacity:0.4"/>
	<stop  offset="0.842424" style="stop-color:#FFFFFF;stop-opacity:0"/>
</radialGradient>
<path fill="url(#SVGID_1_)" d="M12,0C5.3828125,0,0,5.3828125,0,12s5.3828125,12,12,12s12-5.3828125,12-12S18.6171875,0,12,0z"/>
</svg>
