<?xml version="1.0" encoding="utf-8"?>
<!-- Generator: Adobe Illustrator 14.0.0, SVG Export Plug-In  -->
<!DOCTYPE svg PUBLIC "-//W3C//DTD SVG 1.1//EN" "http://www.w3.org/Graphics/SVG/1.1/DTD/svg11.dtd" [
	<!ENTITY ns_flows "http://ns.adobe.com/Flows/1.0/">
]>
<svg version="1.1"
	 xmlns="http://www.w3.org/2000/svg" xmlns:xlink="http://www.w3.org/1999/xlink" xmlns:a="http://ns.adobe.com/AdobeSVGViewerExtensions/3.0/"
	 x="0px" y="0px" width="100%" height="100%" viewBox="0 0 24 24" enable-background="new 0 0 24 24" xml:space="preserve">
<defs>
</defs>
<circle fill="#FFFFFF" cx="12" cy="12" r="12"/>
<path fill="{color}" transform="rotate({angle}, 12, 12)" d="M12,0C5.3828125,0,0,5.3833008,0,12c0,6.6171875,5.3828125,12,12,12s12-5.3828125,12-12
	C24,5.3833008,18.6171875,0,12,0z M19.5302734,12.1386719c-0.0048828,0.0410156-0.0068359,0.0830078-0.0146484,0.1240234
	c-0.0107422,0.0517578-0.0273438,0.0996094-0.0429688,0.1494141c-0.0097656,0.0292969-0.0146484,0.0605469-0.0263672,0.0898438
	C19.3691406,12.6953125,17.4951172,17.2226563,12,17.2226563s-7.3691406-4.5273438-7.4462891-4.7207031
	c-0.0185547-0.0439453-0.0263672-0.0908203-0.0400391-0.1367188c-0.0097656-0.0332031-0.0214844-0.0664063-0.0283203-0.0996094
	c-0.0097656-0.0498047-0.0126953-0.0976563-0.0166016-0.1464844C4.4648438,12.0800781,4.4589844,12.0400391,4.4589844,12
	c0-0.0478516,0.0058594-0.0927734,0.0107422-0.1386719c0.0048828-0.0410156,0.0068359-0.0830078,0.0146484-0.1230469
	c0.0107422-0.0527344,0.0273438-0.1005859,0.0429688-0.1503906c0.0097656-0.0292969,0.0146484-0.0605469,0.0263672-0.0898438
	C4.6308594,11.3046875,6.5048828,6.777832,12,6.777832s7.3691406,4.5268555,7.4462891,4.7202148
	c0.0185547,0.0439453,0.0263672,0.0908203,0.0400391,0.1367188c0.0097656,0.0332031,0.0214844,0.0664063,0.0292969,0.0996094
	c0.0087891,0.0498047,0.0117188,0.0976563,0.015625,0.1464844C19.5351563,11.9199219,19.5410156,11.9599609,19.5410156,12
	C19.5410156,12.0478516,19.5351563,12.0927734,19.5302734,12.1386719z M12,14.515625
	c-2.7382813,0-4.125-1.6552734-4.6601563-2.5136719c0.4052734-0.6513672,1.2900391-1.7460938,2.8681641-2.25
	c-0.3300781,0.4013672-0.5292969,0.9160156-0.5292969,1.4736328c0,1.2802734,1.0419922,2.3222656,2.3212891,2.3222656
	s2.3203125-1.0419922,2.3203125-2.3222656c0-0.5576172-0.1982422-1.0722656-0.5283203-1.4736328
	c1.5810547,0.5039063,2.4658203,1.5996094,2.8691406,2.2470703C16.1210938,12.8642578,14.7353516,14.515625,12,14.515625z"/>
<radialGradient gradientTransform="rotate({backgroundAngle}, 12, 12)" id="SVGID_1_" cx="12" cy="3.1728516" r="22.2501049" gradientUnits="userSpaceOnUse">
	<stop  offset="0.351515" style="stop-color:#FFFFFF;stop-opacity:0.4"/>
	<stop  offset="0.842424" style="stop-color:#FFFFFF;stop-opacity:0"/>
</radialGradient>
<path fill="url(#SVGID_1_)" d="M12,0C5.3828125,0,0,5.3828125,0,12s5.3828125,12,12,12s12-5.3828125,12-12S18.6171875,0,12,0z"/>
</svg>
