<?xml version="1.0" encoding="utf-8"?>
<!-- Generator: Adobe Illustrator 14.0.0, SVG Export Plug-In  -->
<!DOCTYPE svg PUBLIC "-//W3C//DTD SVG 1.1//EN" "http://www.w3.org/Graphics/SVG/1.1/DTD/svg11.dtd" [
	<!ENTITY ns_flows "http://ns.adobe.com/Flows/1.0/">
]>
<svg version="1.1"
	 xmlns="http://www.w3.org/2000/svg" xmlns:xlink="http://www.w3.org/1999/xlink" xmlns:a="http://ns.adobe.com/AdobeSVGViewerExtensions/3.0/"
	 x="0px" y="0px" width="100%" height="100%" viewBox="0 0 24 24" enable-background="new 0 0 24 24" xml:space="preserve">
<defs>
</defs>
<path fill="#4594d0" transform="rotate({angle}, 12, 12)" d="M12,24C5.3828125,24,0,18.6171875,0,12C0,5.3833008,5.3828125,0,12,0s12,5.3833008,12,12
	C24,18.6171875,18.6171875,24,12,24L12,24z M12,2.7080078c-5.1240234,0-9.2919922,4.1689453-9.2919922,9.2919922
	S6.8759766,21.2919922,12,21.2919922S21.2919922,17.1230469,21.2919922,12S17.1240234,2.7080078,12,2.7080078L12,2.7080078z
	 M19.515625,12.2626953c0.0078125-0.0410156,0.0097656-0.0830078,0.0146484-0.1240234
	C19.5351563,12.0927734,19.5410156,12.0478516,19.5410156,12c0-0.0400391-0.0058594-0.0800781-0.0097656-0.1191406
	c-0.0039063-0.0488281-0.0068359-0.0966797-0.015625-0.1464844c-0.0078125-0.0332031-0.0195313-0.0664063-0.0292969-0.0996094
	c-0.0136719-0.0458984-0.0214844-0.0927734-0.0400391-0.1367188C19.3691406,11.3046875,17.4951172,6.777832,12,6.777832
	s-7.3691406,4.5268555-7.4462891,4.7202148c-0.0117188,0.0292969-0.0166016,0.0605469-0.0263672,0.0898438
	c-0.015625,0.0498047-0.0322266,0.0976563-0.0429688,0.1503906c-0.0078125,0.0400391-0.0097656,0.0820313-0.0146484,0.1230469
	C4.4648438,11.9072266,4.4589844,11.9521484,4.4589844,12c0,0.0400391,0.0058594,0.0800781,0.0097656,0.1191406
	c0.0039063,0.0488281,0.0068359,0.0966797,0.0166016,0.1464844c0.0068359,0.0332031,0.0185547,0.0664063,0.0283203,0.0996094
	c0.0136719,0.0458984,0.0214844,0.0927734,0.0400391,0.1367188C4.6308594,12.6953125,6.5048828,17.2226563,12,17.2226563
	s7.3691406-4.5273438,7.4462891-4.7207031c0.0117188-0.0292969,0.0166016-0.0605469,0.0263672-0.0898438
	C19.4882813,12.3623047,19.5048828,12.3144531,19.515625,12.2626953z M12,14.515625
	c-2.7382813,0-4.125-1.6552734-4.6601563-2.5136719c0.4052734-0.6513672,1.2900391-1.7460938,2.8681641-2.25
	c-0.3300781,0.4013672-0.5292969,0.9160156-0.5292969,1.4736328c0,1.2802734,1.0419922,2.3222656,2.3212891,2.3222656
	s2.3203125-1.0419922,2.3203125-2.3222656c0-0.5576172-0.1982422-1.0722656-0.5283203-1.4736328
	c1.5810547,0.5039063,2.4658203,1.5996094,2.8691406,2.2470703C16.1210938,12.8642578,14.7353516,14.515625,12,14.515625z"/>
</svg>
