<?xml version="1.0" encoding="utf-8"?>
<!-- Generator: Adobe Illustrator 14.0.0, SVG Export Plug-In  -->
<!DOCTYPE svg PUBLIC "-//W3C//DTD SVG 1.1//EN" "http://www.w3.org/Graphics/SVG/1.1/DTD/svg11.dtd" [
	<!ENTITY ns_flows "http://ns.adobe.com/Flows/1.0/">
]>
<svg version="1.1"
	 xmlns="http://www.w3.org/2000/svg" xmlns:xlink="http://www.w3.org/1999/xlink" xmlns:a="http://ns.adobe.com/AdobeSVGViewerExtensions/3.0/"
	 x="0px" y="0px" width="100%" height="100%" viewBox="0 0 24 24" enable-background="new 0 0 24 24" xml:space="preserve">
<defs>
</defs>
<path fill="{color}" transform="rotate({angle}, 12, 12)" d="M12,0C5.3828125,0,0,5.3828125,0,12s5.3828125,12,12,12s12-5.3828125,12-12S18.6171875,0,12,0z
	 M12,21.2929688c-5.1230469,0-9.2910156-4.1689453-9.2910156-9.2929688S6.8769531,2.7070313,12,2.7070313
	c5.1240234,0,9.2910156,4.1689453,9.2910156,9.2929688S17.1240234,21.2929688,12,21.2929688z M17.3867188,7.9863281L8.875,5.6660156
	C8.46875,5.5546875,8.03125,5.6396484,7.6972656,5.8945313C7.3613281,6.1523438,7.1640625,6.5488281,7.1640625,6.9707031v6.9316406
	c0,0.0214844,0,0.0410156,0,0.0634766v3.4501953c0,0.7480469,0.6074219,1.3535156,1.3535156,1.3535156
	c0.7490234,0,1.3535156-0.6054688,1.3535156-1.3535156v-2.4921875l7.5683594-2.4082031
	c0.5625-0.1787109,0.9433594-0.7001953,0.9433594-1.2890625V9.2929688
	C18.3828125,8.6816406,17.9746094,8.1474609,17.3867188,7.9863281z M9.8710938,12.0820313V8.7441406l5.6523438,1.5410156
	L9.8710938,12.0820313z"/>
</svg>
