<?xml version="1.0" encoding="utf-8"?>
<!-- Generator: Adobe Illustrator 14.0.0, SVG Export Plug-In  -->
<!DOCTYPE svg PUBLIC "-//W3C//DTD SVG 1.1//EN" "http://www.w3.org/Graphics/SVG/1.1/DTD/svg11.dtd" [
	<!ENTITY ns_flows "http://ns.adobe.com/Flows/1.0/">
]>
<svg version="1.1"
	 xmlns="http://www.w3.org/2000/svg" xmlns:xlink="http://www.w3.org/1999/xlink" xmlns:a="http://ns.adobe.com/AdobeSVGViewerExtensions/3.0/"
	 x="0px" y="0px" width="100%" height="100%" viewBox="0 0 24 24" enable-background="new 0 0 24 24" xml:space="preserve">
<defs>
</defs>
<circle fill="#FFFFFF" cx="12" cy="12" r="12"/>
<path fill="{color}" transform="rotate({angle}, 12, 12)" d="M12,0C5.3828125,0,0,5.3828125,0,12s5.3828125,12,12,12s12-5.3828125,12-12S18.6171875,0,12,0z
	 M18.3828125,11.2265625c0,0.5888672-0.3808594,1.1103516-0.9433594,1.2890625l-7.5683594,2.4082031v2.4921875
	c0,0.7480469-0.6044922,1.3535156-1.3535156,1.3535156c-0.7460938,0-1.3535156-0.6054688-1.3535156-1.3535156v-3.4501953
	c0-0.0224609,0-0.0419922,0-0.0634766V6.9707031c0-0.421875,0.1972656-0.8183594,0.5332031-1.0761719
	C8.03125,5.6396484,8.46875,5.5546875,8.875,5.6660156l8.5117188,2.3203125
	c0.5878906,0.1611328,0.9960938,0.6953125,0.9960938,1.3066406V11.2265625z M9.8710938,12.0820313V8.7441406l5.6523438,1.5410156
	L9.8710938,12.0820313z"/>
<radialGradient gradientTransform="rotate({backgroundAngle}, 12, 12)" id="SVGID_1_" cx="12" cy="3.1728516" r="22.2501049" gradientUnits="userSpaceOnUse">
	<stop  offset="0.351515" style="stop-color:#FFFFFF;stop-opacity:0.4"/>
	<stop  offset="0.842424" style="stop-color:#FFFFFF;stop-opacity:0"/>
</radialGradient>
<path fill="url(#SVGID_1_)" d="M12,0C5.3828125,0,0,5.3828125,0,12s5.3828125,12,12,12s12-5.3828125,12-12S18.6171875,0,12,0z"/>
</svg>
