<?xml version="1.0" encoding="utf-8"?>
<!-- Generator: Adobe Illustrator 16.0.3, SVG Export Plug-In . SVG Version: 6.00 Build 0)  -->
<!DOCTYPE svg PUBLIC "-//W3C//DTD SVG 1.1//EN" "http://www.w3.org/Graphics/SVG/1.1/DTD/svg11.dtd">
<svg version="1.1" id="Layer_1" xmlns="http://www.w3.org/2000/svg" xmlns:xlink="http://www.w3.org/1999/xlink" x="0px" y="0px"
	 width="100%" height="100%" viewBox="0 0 16 16" enable-background="new 0 0 16 16" xml:space="preserve">
<path fill="{color}" d="M5.499,14c-0.226,0-0.454-0.051-0.67-0.158c-0.741-0.371-1.041-1.272-0.671-2.013l1.629-3.257L3.794,8.97
	C3.234,9.083,2.655,8.866,2.308,8.41C1.96,7.955,1.902,7.341,2.158,6.829l3-6C5.529,0.088,6.43-0.21,7.171,0.158
	C7.912,0.529,8.212,1.429,7.842,2.17L6.213,5.427l1.993-0.398c0.561-0.112,1.139,0.105,1.486,0.561s0.405,1.068,0.149,1.581l-3,6
	C6.579,13.695,6.049,14,5.499,14z"/>
</svg>
