<?xml version="1.0" encoding="utf-8"?>
<!-- Generator: Adobe Illustrator 14.0.0, SVG Export Plug-In  -->
<!DOCTYPE svg PUBLIC "-//W3C//DTD SVG 1.1//EN" "http://www.w3.org/Graphics/SVG/1.1/DTD/svg11.dtd" [
	<!ENTITY ns_flows "http://ns.adobe.com/Flows/1.0/">
]>
<svg version="1.1"
	 xmlns="http://www.w3.org/2000/svg" xmlns:xlink="http://www.w3.org/1999/xlink" xmlns:a="http://ns.adobe.com/AdobeSVGViewerExtensions/3.0/"
	 x="0px" y="0px" width="100%" height="100%" viewBox="0 0 24 24" enable-background="new 0 0 24 24" xml:space="preserve">
<defs>
</defs>
<path fill="{color}" transform="rotate({angle}, 12, 12)" d="M12,0C5.3837891,0,0,5.3828125,0,12s5.3837891,12,12,12c6.6171875,0,12-5.3828125,12-12S18.6171875,0,12,0z
	 M12,21.2919922c-5.1240234,0-9.2919922-4.1679688-9.2919922-9.2919922S6.8759766,2.7080078,12,2.7080078
	S21.2919922,6.8759766,21.2919922,12S17.1240234,21.2919922,12,21.2919922z M15.8359375,10.8642578
	c0.2890625,0.4345703,0.3017578,0.9970703,0.0332031,1.4453125l-3.4814453,5.8027344
	c-0.2539063,0.4228516-0.7021484,0.6572266-1.1621094,0.6572266c-0.2373047,0-0.4775391-0.0615234-0.6953125-0.1933594
	c-0.6416016-0.3837891-0.8496094-1.2158203-0.4648438-1.8574219l2.0185547-3.3632813L9.484375,13.7275391
	c-0.0644531,0.0087891-0.1289063,0.0136719-0.1923828,0.0136719c-0.4492188,0-0.8740234-0.2236328-1.1279297-0.6054688
	C7.875,12.7011719,7.8623047,12.1386719,8.1318359,11.6904297l3.4814453-5.8027344
	c0.3837891-0.640625,1.2167969-0.8486328,1.8574219-0.4638672s0.8486328,1.2158203,0.4638672,1.8574219l-2.0175781,3.3632813
	l2.5996094-0.3720703C15.0322266,10.1992188,15.546875,10.4287109,15.8359375,10.8642578z"/>
</svg>
