<?xml version="1.0" encoding="utf-8"?>
<!-- Generator: Adobe Illustrator 14.0.0, SVG Export Plug-In  -->
<!DOCTYPE svg PUBLIC "-//W3C//DTD SVG 1.1//EN" "http://www.w3.org/Graphics/SVG/1.1/DTD/svg11.dtd" [
	<!ENTITY ns_flows "http://ns.adobe.com/Flows/1.0/">
]>
<svg version="1.1"
	 xmlns="http://www.w3.org/2000/svg" xmlns:xlink="http://www.w3.org/1999/xlink" xmlns:a="http://ns.adobe.com/AdobeSVGViewerExtensions/3.0/"
	 x="0px" y="0px" width="100%" height="100%" viewBox="0 0 24 24" enable-background="new 0 0 24 24" xml:space="preserve">
<defs>
</defs>
<path fill="{color}" transform="rotate({angle}, 12, 12)" d="M12,0C5.3828125,0,0,5.3828125,0,12s5.3828125,12,12,12s12-5.3828125,12-12S18.6171875,0,12,0z
	 M12,21.2929688c-5.1240234,0-9.2919922-4.1689453-9.2919922-9.2929688S6.8759766,2.7080078,12,2.7080078
	S21.2919922,6.8759766,21.2919922,12S17.1240234,21.2929688,12,21.2929688z M16.6416016,8.3251953h-3.578125l-0.7539063-1.0058594
	c-0.2558594-0.3408203-0.6572266-0.5419922-1.0830078-0.5419922H7.3583984c-0.7480469,0-1.3544922,0.6064453-1.3544922,1.3544922
	v7.7363281c0,0.7480469,0.6064453,1.3544922,1.3544922,1.3544922h9.2832031c0.7480469,0,1.3544922-0.6064453,1.3544922-1.3544922
	V9.6787109C17.9960938,8.9316406,17.3896484,8.3251953,16.6416016,8.3251953z M10.5498047,9.4853516l0.7539063,1.0058594
	c0.2558594,0.3408203,0.6572266,0.5419922,1.0830078,0.5419922h2.9013672v3.4814453H8.7119141V9.4853516H10.5498047z"/>
</svg>
