<?xml version="1.0" encoding="utf-8"?>
<!-- Generator: Adobe Illustrator 16.0.3, SVG Export Plug-In . SVG Version: 6.00 Build 0)  -->
<!DOCTYPE svg PUBLIC "-//W3C//DTD SVG 1.1//EN" "http://www.w3.org/Graphics/SVG/1.1/DTD/svg11.dtd">
<svg version="1.1" id="Layer_1" xmlns="http://www.w3.org/2000/svg" xmlns:xlink="http://www.w3.org/1999/xlink" x="0px" y="0px"
	 width="100%" height="100%" viewBox="0 0 24 24" enable-background="new 0 0 24 24" xml:space="preserve">
<g>
	<g>
		<circle fill="#FFFFFF" cx="12" cy="12" r="12"/>
		<path fill="{color}" transform="rotate({angle}, 12, 12)" d="M9,9H8.001V8.001H9V9z M15.999,9H15V8.001h0.999V9z M9,15.999H8.001V15H9V15.999z M12,0
			C5.382,0,0,5.382,0,12s5.382,12,12,12s12-5.382,12-12S18.618,0,12,0z M11.001,17.027c0,0.536-0.434,0.97-0.967,0.97H6.973
			c-0.536,0-0.97-0.434-0.97-0.97v-3.062c0-0.533,0.434-0.967,0.97-0.967h3.062c0.533,0,0.967,0.434,0.967,0.967V17.027z
			 M11.001,10.034c0,0.533-0.434,0.967-0.967,0.967H6.973c-0.536,0-0.97-0.434-0.97-0.967V6.973c0-0.536,0.434-0.97,0.97-0.97h3.062
			c0.533,0,0.967,0.434,0.967,0.97V10.034z M17.997,17.027c0,0.536-0.434,0.97-0.97,0.97h-3.062c-0.533,0-0.967-0.434-0.967-0.97
			v-3.062c0-0.533,0.434-0.967,0.967-0.967h3.062c0.536,0,0.97,0.434,0.97,0.967V17.027z M17.997,10.034
			c0,0.533-0.434,0.967-0.97,0.967h-3.062c-0.533,0-0.967-0.434-0.967-0.967V6.973c0-0.536,0.434-0.97,0.967-0.97h3.062
			c0.536,0,0.97,0.434,0.97,0.97V10.034z M15.999,15.999H15V15h0.999V15.999z"/>
	</g>
	<radialGradient id="SVGID_1_" cx="12" cy="3.1729" r="22.2501" gradientUnits="userSpaceOnUse">
		<stop  offset="0.3515" style="stop-color:#FFFFFF;stop-opacity:0.4"/>
		<stop  offset="0.8424" style="stop-color:#FFFFFF;stop-opacity:0"/>
	</radialGradient>
	<path fill="url(#SVGID_1_)" d="M12,0C5.383,0,0,5.383,0,12s5.383,12,12,12s12-5.383,12-12S18.617,0,12,0z"/>
</g>
</svg>
