<?xml version="1.0" encoding="utf-8"?>
<!-- Generator: Adobe Illustrator 16.0.3, SVG Export Plug-In . SVG Version: 6.00 Build 0)  -->
<!DOCTYPE svg PUBLIC "-//W3C//DTD SVG 1.1//EN" "http://www.w3.org/Graphics/SVG/1.1/DTD/svg11.dtd">
<svg version="1.1" id="Layer_1" xmlns="http://www.w3.org/2000/svg" xmlns:xlink="http://www.w3.org/1999/xlink" x="0px" y="0px"
     width="100%" height="100%" viewBox="0 0 24 24" enable-background="new 0 0 24 24" xml:space="preserve">
<path fill="{color}" d="M10.034,12.999H6.973c-0.536,0-0.97,0.434-0.97,0.967v3.062c0,0.536,0.434,0.97,0.97,0.97h3.062
	c0.533,0,0.967-0.434,0.967-0.97v-3.062C11.001,13.433,10.567,12.999,10.034,12.999z M9,15.999H8.001V15H9V15.999z M12,0
	C5.382,0,0,5.382,0,12s5.382,12,12,12s12-5.382,12-12S18.618,0,12,0z M12,21.291c-5.124,0-9.293-4.167-9.293-9.291
	S6.876,2.707,12,2.707S21.293,6.876,21.293,12S17.124,21.291,12,21.291z M17.027,12.999h-3.062c-0.533,0-0.967,0.434-0.967,0.967
	v3.062c0,0.536,0.434,0.97,0.967,0.97h3.062c0.536,0,0.97-0.434,0.97-0.97v-3.062C17.997,13.433,17.563,12.999,17.027,12.999z
	 M15.999,15.999H15V15h0.999V15.999z M10.034,6.003H6.973c-0.536,0-0.97,0.434-0.97,0.97v3.062c0,0.533,0.434,0.967,0.97,0.967
	h3.062c0.533,0,0.967-0.434,0.967-0.967V6.973C11.001,6.437,10.567,6.003,10.034,6.003z M9,9H8.001V8.001H9V9z M17.027,6.003h-3.062
	c-0.533,0-0.967,0.434-0.967,0.97v3.062c0,0.533,0.434,0.967,0.967,0.967h3.062c0.536,0,0.97-0.434,0.97-0.967V6.973
	C17.997,6.437,17.563,6.003,17.027,6.003z M15.999,9H15V8.001h0.999V9z" />
</svg>
