<?xml version="1.0" encoding="utf-8"?>
<!-- Generator: Adobe Illustrator 14.0.0, SVG Export Plug-In  -->
<!DOCTYPE svg PUBLIC "-//W3C//DTD SVG 1.1//EN" "http://www.w3.org/Graphics/SVG/1.1/DTD/svg11.dtd" [
	<!ENTITY ns_flows "http://ns.adobe.com/Flows/1.0/">
]>
<svg version="1.1"
	 xmlns="http://www.w3.org/2000/svg" xmlns:xlink="http://www.w3.org/1999/xlink" xmlns:a="http://ns.adobe.com/AdobeSVGViewerExtensions/3.0/"
	 x="0px" y="0px" width="100%" height="100%" viewBox="0 0 24 24" enable-background="new 0 0 24 24" xml:space="preserve">
<defs>
</defs>
<path fill="{color}" transform="rotate({angle}, 12, 12)" d="M12,24C5.3828125,24,0,18.6171875,0,12S5.3828125,0,12,0s12,5.3828125,12,12S18.6171875,24,12,24L12,24z
	 M12,2.7080078c-5.1230469,0-9.2919922,4.1689453-9.2919922,9.2919922S6.8769531,21.2919922,12,21.2919922
	S21.2919922,17.1230469,21.2919922,12S17.1230469,2.7080078,12,2.7080078L12,2.7080078z M19.0078125,10.9208984
	l-1.5556641-1.1787109l0.265625-1.9335938c0.0576172-0.4208984-0.0849609-0.84375-0.3837891-1.1425781
	c-0.2998047-0.2988281-0.7207031-0.4414063-1.1416016-0.3828125l-1.9345703,0.265625l-1.1787109-1.5556641
	c-0.2548828-0.3378906-0.6552734-0.5361328-1.078125-0.5361328c-0.4238281,0-0.8232422,0.1982422-1.0791016,0.5351563
	L9.7421875,6.5488281l-1.9335938-0.265625C7.3876953,6.2246094,6.9658203,6.3671875,6.6660156,6.6660156
	C6.3671875,6.9648438,6.2246094,7.3876953,6.2822266,7.8085938l0.2666016,1.9335938l-1.5556641,1.1777344
	c-0.3378906,0.2558594-0.5361328,0.65625-0.5361328,1.0791016c0,0.4248047,0.1982422,0.8232422,0.5361328,1.0791016
	l1.5556641,1.1796875l-0.2666016,1.9355469c-0.0576172,0.4199219,0.0849609,0.8417969,0.3837891,1.140625
	c0.2998047,0.2988281,0.7216797,0.4394531,1.1425781,0.3847656l1.9335938-0.2666016l1.1796875,1.5556641
	c0.2558594,0.3369141,0.6552734,0.5351563,1.0791016,0.5351563c0.4228516,0,0.8222656-0.1982422,1.078125-0.5361328
	l1.1787109-1.5546875l1.9345703,0.2666016c0.4208984,0.0546875,0.8417969-0.0859375,1.1416016-0.3847656
	c0.2988281-0.2988281,0.4414063-0.7207031,0.3837891-1.140625l-0.265625-1.9355469l1.5546875-1.1777344
	c0.3378906-0.2558594,0.5361328-0.65625,0.5361328-1.0800781S19.3447266,11.1777344,19.0078125,10.9208984z M12,15.0957031
	c-1.7089844,0-3.0947266-1.3867188-3.0947266-3.0957031S10.2910156,8.9042969,12,8.9042969
	c1.7099609,0,3.0947266,1.3867188,3.0947266,3.0957031S13.7099609,15.0957031,12,15.0957031z"/>
</svg>
