<?xml version="1.0" encoding="utf-8"?>
<!-- Generator: Adobe Illustrator 14.0.0, SVG Export Plug-In  -->
<!DOCTYPE svg PUBLIC "-//W3C//DTD SVG 1.1//EN" "http://www.w3.org/Graphics/SVG/1.1/DTD/svg11.dtd" [
	<!ENTITY ns_flows "http://ns.adobe.com/Flows/1.0/">
]>
<svg version="1.1"
	 xmlns="http://www.w3.org/2000/svg" xmlns:xlink="http://www.w3.org/1999/xlink" xmlns:a="http://ns.adobe.com/AdobeSVGViewerExtensions/3.0/"
	 x="0px" y="0px" width="100%" height="100%" viewBox="0 0 24 24" enable-background="new 0 0 24 24" xml:space="preserve">
<defs>
</defs>
<circle fill="#FFFFFF" cx="12" cy="12" r="12"/>
<path fill="{color}" transform="rotate({angle}, 12, 12)" d="M12,0C5.3828125,0,0,5.3828125,0,12s5.3828125,12,12,12s12-5.3828125,12-12S18.6171875,0,12,0z
	 M19.0068359,13.0800781l-1.5546875,1.1777344l0.265625,1.9355469c0.0576172,0.4199219-0.0849609,0.8417969-0.3837891,1.140625
	c-0.2998047,0.2988281-0.7207031,0.4394531-1.1416016,0.3847656l-1.9345703-0.2666016l-1.1787109,1.5546875
	c-0.2558594,0.3378906-0.6552734,0.5361328-1.078125,0.5361328c-0.4238281,0-0.8232422-0.1982422-1.0791016-0.5351563
	l-1.1796875-1.5556641L7.8085938,17.71875c-0.4208984,0.0546875-0.8427734-0.0859375-1.1425781-0.3847656
	c-0.2988281-0.2988281-0.4414063-0.7207031-0.3837891-1.140625l0.2666016-1.9355469L4.9931641,13.078125
	c-0.3378906-0.2558594-0.5361328-0.6542969-0.5361328-1.0791016c0-0.4228516,0.1982422-0.8232422,0.5361328-1.0791016
	l1.5556641-1.1777344L6.2822266,7.8085938c-0.0576172-0.4208984,0.0849609-0.84375,0.3837891-1.1425781
	c0.2998047-0.2988281,0.7216797-0.4414063,1.1425781-0.3828125l1.9335938,0.265625l1.1796875-1.5566406
	c0.2558594-0.3369141,0.6552734-0.5351563,1.0791016-0.5351563c0.4228516,0,0.8232422,0.1982422,1.078125,0.5361328
	l1.1787109,1.5556641l1.9345703-0.265625c0.4208984-0.0585938,0.8417969,0.0839844,1.1416016,0.3828125
	c0.2988281,0.2988281,0.4414063,0.7216797,0.3837891,1.1425781l-0.265625,1.9335938l1.5556641,1.1787109
	C19.3447266,11.1777344,19.5429688,11.5761719,19.5429688,12S19.3447266,12.8242188,19.0068359,13.0800781z M12,15.0957031
	c-1.7089844,0-3.0947266-1.3867188-3.0947266-3.0957031S10.2910156,8.9042969,12,8.9042969
	c1.7099609,0,3.0947266,1.3867188,3.0947266,3.0957031S13.7099609,15.0957031,12,15.0957031z"/>
<radialGradient gradientTransform="rotate({backgroundAngle}, 12, 12)" id="SVGID_1_" cx="12" cy="3.1728516" r="22.2501049" gradientUnits="userSpaceOnUse">
	<stop  offset="0.351515" style="stop-color:#FFFFFF;stop-opacity:0.4"/>
	<stop  offset="0.842424" style="stop-color:#FFFFFF;stop-opacity:0"/>
</radialGradient>
<path fill="url(#SVGID_1_)" d="M12,0C5.3828125,0,0,5.3828125,0,12s5.3828125,12,12,12s12-5.3828125,12-12S18.6171875,0,12,0z"/>
</svg>
