<?xml version="1.0" encoding="utf-8"?>
<!-- Generator: Adobe Illustrator 14.0.0, SVG Export Plug-In  -->
<!DOCTYPE svg PUBLIC "-//W3C//DTD SVG 1.1//EN" "http://www.w3.org/Graphics/SVG/1.1/DTD/svg11.dtd" [
	<!ENTITY ns_flows "http://ns.adobe.com/Flows/1.0/">
]>
<svg version="1.1"
	 xmlns="http://www.w3.org/2000/svg" xmlns:xlink="http://www.w3.org/1999/xlink" xmlns:a="http://ns.adobe.com/AdobeSVGViewerExtensions/3.0/"
	 x="0px" y="0px" width="100%" height="100%" viewBox="0 0 24 24" enable-background="new 0 0 24 24" xml:space="preserve">
<defs>
</defs>
<path fill="#fff" transform="rotate(90, 12, 12)" d="M12,0C5.3837891,0,0,5.3828125,0,12s5.3837891,12,12,12c6.6171875,0,12-5.3828125,12-12S18.6171875,0,12,0z
	 M12,21.2919922c-5.1240234,0-9.2919922-4.1679688-9.2919922-9.2919922S6.8759766,2.7080078,12,2.7080078
	S21.2919922,6.8759766,21.2919922,12S17.1240234,21.2919922,12,21.2919922z M14.2207031,11.0957031
	c0.8808594-0.671875,1.4541016-1.7294922,1.4541016-2.9208984C15.6748047,6.1484375,14.0263672,4.5,12,4.5
	S8.3251953,6.1484375,8.3251953,8.1748047c0,1.1914063,0.5732422,2.2490234,1.4541016,2.9208984
	c-2.4267578,0.9052734-4.1621094,3.2382813-4.1621094,5.9765625c0,0.7470703,0.6064453,1.3535156,1.3544922,1.3535156l0,0l0,0
	h10.0566406c0.7480469,0,1.3544922-0.6064453,1.3544922-1.3535156
	C18.3828125,14.3339844,16.6474609,12.0009766,14.2207031,11.0957031z M12,7.2080078
	c0.5332031,0,0.9667969,0.4335938,0.9667969,0.9667969S12.5332031,9.1416016,12,9.1416016s-0.9667969-0.4335938-0.9667969-0.9667969
	S11.4667969,7.2080078,12,7.2080078z M12,13.3974609c1.5478516,0,2.8720703,0.9628906,3.4130859,2.3203125H8.5859375
	C9.1269531,14.3603516,10.4521484,13.3974609,12,13.3974609z"/>
</svg>
