<?xml version="1.0" encoding="utf-8"?>
<!-- Generator: Adobe Illustrator 14.0.0, SVG Export Plug-In  -->
<!DOCTYPE svg PUBLIC "-//W3C//DTD SVG 1.1//EN" "http://www.w3.org/Graphics/SVG/1.1/DTD/svg11.dtd" [
	<!ENTITY ns_flows "http://ns.adobe.com/Flows/1.0/">
]>
<svg version="1.1"
	 xmlns="http://www.w3.org/2000/svg" xmlns:xlink="http://www.w3.org/1999/xlink" xmlns:a="http://ns.adobe.com/AdobeSVGViewerExtensions/3.0/"
	 x="0px" y="0px" width="100%" height="100%" viewBox="0 0 24 24" enable-background="new 0 0 24 24" xml:space="preserve">
<defs>
</defs>
<circle fill="#FFFFFF" cx="12" cy="12" r="12"/>
<path fill="{color}" transform="rotate({angle}, 12, 12)" d="M12,0C5.3837891,0,0,5.3828125,0,12s5.3837891,12,12,12c6.6171875,0,12-5.3828125,12-12S18.6171875,0,12,0z
	 M17.0283203,18.4257813H6.9716797c-0.7480469,0-1.3544922-0.6064453-1.3544922-1.3535156
	c0-2.7382813,1.7353516-5.0712891,4.1621094-5.9765625c-0.8808594-0.671875-1.4541016-1.7294922-1.4541016-2.9208984
	C8.3251953,6.1484375,9.9736328,4.5,12,4.5s3.6748047,1.6484375,3.6748047,3.6748047
	c0,1.1914063-0.5732422,2.2490234-1.4541016,2.9208984c2.4267578,0.9052734,4.1621094,3.2382813,4.1621094,5.9765625
	C18.3828125,17.8193359,17.7763672,18.4257813,17.0283203,18.4257813z M12,7.2080078
	c0.5332031,0,0.9667969,0.4335938,0.9667969,0.9667969S12.5332031,9.1416016,12,9.1416016s-0.9667969-0.4335938-0.9667969-0.9667969
	S11.4667969,7.2080078,12,7.2080078z M12,13.3974609c1.5478516,0,2.8720703,0.9628906,3.4130859,2.3203125H8.5859375
	C9.1269531,14.3603516,10.4521484,13.3974609,12,13.3974609z"/>
<radialGradient gradientTransform="rotate({backgroundAngle}, 12, 12)" id="SVGID_1_" cx="12" cy="3.1728516" r="22.2501049" gradientUnits="userSpaceOnUse">
	<stop  offset="0.351515" style="stop-color:#FFFFFF;stop-opacity:0.4"/>
	<stop  offset="0.842424" style="stop-color:#FFFFFF;stop-opacity:0"/>
</radialGradient>
<path fill="url(#SVGID_1_)" d="M12,0C5.3828125,0,0,5.3828125,0,12s5.3828125,12,12,12s12-5.3828125,12-12S18.6171875,0,12,0z"/>
</svg>
