<?xml version="1.0" encoding="utf-8"?>
<!-- Generator: Adobe Illustrator 14.0.0, SVG Export Plug-In  -->
<!DOCTYPE svg PUBLIC "-//W3C//DTD SVG 1.1//EN" "http://www.w3.org/Graphics/SVG/1.1/DTD/svg11.dtd" [
	<!ENTITY ns_flows "http://ns.adobe.com/Flows/1.0/">
]>
<svg version="1.1"
	 xmlns="http://www.w3.org/2000/svg" xmlns:xlink="http://www.w3.org/1999/xlink" xmlns:a="http://ns.adobe.com/AdobeSVGViewerExtensions/3.0/"
	 x="0px" y="0px" width="100%" height="100%" viewBox="0 0 100 100" enable-background="new 0 0 100 100" xml:space="preserve">
<defs>
</defs>
<rect fill="#FFFFFF" width="100" height="100"/>
<path fill="{color}" d="M83,51.4003906v7.1992188l2.9472656,2.9472656c0,0,2.84375,1.5253906,6.0527344,2.453125
	c1.5449219,0.4472656,4.7324219,1.7714844,8,3.2001953V0H0v81.9394531C4.5390625,78.6796875,14.6904297,75.6552734,18,74
	c4-2,8-6,8-6s-4-6-6-12s-4-12-4-12s-2-6-2-12s0-14,2-18S28,4,38,4s18,4,22,10s4,18,4,18s2,1.171875,2,4
	c0,2-0.9257813,4.5732422-1.0820313,7.9501953C64.7109375,48.4169922,62,50,62,50v8l3.2753906,6
	c0,0,3.1582031,1.6933594,6.7246094,2.7246094c4.2958984,1.2421875,18,6,22,10S100,100,100,100V79.6464844
	c-0.8847656-2.4472656-1.9335938-4.5117188-3.171875-5.75c-5.5957031-5.5957031-23.5380859-10.9628906-23.7167969-11.0146484
	c-1.9667969-0.5683594-3.8271484-1.3828125-4.9287109-1.9033203L66,56.9794922v-5.2226563
	c1.2861328-1.4482422,2.7402344-3.8886719,2.9140625-7.6210938c0.0693359-1.5068359,0.328125-2.8583984,0.578125-4.1650391
	C69.7539063,38.6064453,70,37.3183594,70,36c0-2.4550781-0.9042969-4.4121094-2.0419922-5.7763672
	C67.796875,26.3242188,67.0195313,17.3193359,63.328125,11.78125c-0.4082031-0.6123047-0.8583984-1.1953125-1.3271484-1.765625
	C70.7177734,10.1728516,77.6806641,13.7226563,81.2001953,19c3.5996094,5.4003906,3.5996094,16.2001953,3.5996094,16.2001953
	s1.7998047,1.0546875,1.7998047,3.5996094c0,1.8007813-0.8330078,4.1162109-0.9736328,7.1552734
	C85.4394531,49.9755859,83,51.4003906,83,51.4003906z"/>
</svg>
