<?xml version="1.0" encoding="utf-8"?>
<!-- Generator: Adobe Illustrator 16.0.3, SVG Export Plug-In . SVG Version: 6.00 Build 0)  -->
<!DOCTYPE svg PUBLIC "-//W3C//DTD SVG 1.1//EN" "http://www.w3.org/Graphics/SVG/1.1/DTD/svg11.dtd">
<svg version="1.1" id="Layer_1" xmlns="http://www.w3.org/2000/svg" xmlns:xlink="http://www.w3.org/1999/xlink" x="0px" y="0px"
	 width="100%" height="100%" viewBox="0 0 16 16" enable-background="new 0 0 16 16" xml:space="preserve">
<path fill="{color}" d="M9.176,7.351C10.271,6.637,11,5.405,11,4c0-2.209-1.791-4-4-4S3,1.791,3,4c0,1.405,0.729,2.637,1.826,3.351
	C2.027,8.268,0,10.4,0,13.5C0,14.328,0.672,15,1.5,15h11c0.828,0,1.5-0.672,1.5-1.5C14,10.4,11.973,8.268,9.176,7.351z M7,3
	c0.551,0,1,0.448,1,1S7.551,5,7,5S6,4.552,6,4S6.449,3,7,3z M3.293,12C3.887,10.535,5.324,10,7,10s3.113,0.535,3.709,2H3.293z"/>
</svg>
