<?xml version="1.0" encoding="utf-8"?>
<!-- Generator: Adobe Illustrator 14.0.0, SVG Export Plug-In  -->
<!DOCTYPE svg PUBLIC "-//W3C//DTD SVG 1.1//EN" "http://www.w3.org/Graphics/SVG/1.1/DTD/svg11.dtd" [
	<!ENTITY ns_flows "http://ns.adobe.com/Flows/1.0/">
]>
<svg version="1.1"
	 xmlns="http://www.w3.org/2000/svg" xmlns:xlink="http://www.w3.org/1999/xlink" xmlns:a="http://ns.adobe.com/AdobeSVGViewerExtensions/3.0/"
	 x="0px" y="0px" width="100%" height="100%" viewBox="0 0 24 24" enable-background="new 0 0 24 24" xml:space="preserve">
<defs>
</defs>
<circle fill="#FFFFFF" cx="12" cy="12" r="12"/>
<path fill="{color}" transform="rotate({angle}, 12, 12)" d="M12,0C5.3828125,0,0,5.3828125,0,12s5.3828125,12,12,12s12-5.3828125,12-12S18.6171875,0,12,0z
	 M16.75,17.6787109c-0.2558594,0.2177734-0.5693359,0.3251953-0.8808594,0.3251953
	c-0.3818359,0-0.7617188-0.1601563-1.0292969-0.4726563l-4.5810547-5.3457031v4.4648438
	c0,0.7480469-0.6054688,1.3535156-1.3535156,1.3535156s-1.3535156-0.6054688-1.3535156-1.3535156V7.3671875
	c0-0.7480469,0.6054688-1.3544922,1.3535156-1.3544922s1.3535156,0.6064453,1.3535156,1.3544922v2.921875
	c0.0039063-0.0039063,0.0068359-0.0078125,0.0107422-0.0117188l3.8671875-3.8691406
	c0.5292969-0.5273438,1.3867188-0.5273438,1.9160156,0c0.5283203,0.5292969,0.5283203,1.3867188,0,1.9160156l-2.9824219,2.9804688
	l3.8261719,4.4638672C17.3828125,16.3378906,17.3173828,17.1914063,16.75,17.6787109z"/>
<radialGradient gradientTransform="rotate({backgroundAngle}, 12, 12)" id="SVGID_1_" cx="12" cy="3.1728516" r="22.2501049" gradientUnits="userSpaceOnUse">
	<stop  offset="0.351515" style="stop-color:#FFFFFF;stop-opacity:0.4"/>
	<stop  offset="0.842424" style="stop-color:#FFFFFF;stop-opacity:0"/>
</radialGradient>
<path fill="url(#SVGID_1_)" d="M12,0C5.3828125,0,0,5.3828125,0,12s5.3828125,12,12,12s12-5.3828125,12-12S18.6171875,0,12,0z"/>
</svg>
