<?xml version="1.0" encoding="utf-8"?>
<!-- Generator: Adobe Illustrator 14.0.0, SVG Export Plug-In  -->
<!DOCTYPE svg PUBLIC "-//W3C//DTD SVG 1.1//EN" "http://www.w3.org/Graphics/SVG/1.1/DTD/svg11.dtd" [
	<!ENTITY ns_flows "http://ns.adobe.com/Flows/1.0/">
]>
<svg version="1.1"
	 xmlns="http://www.w3.org/2000/svg" xmlns:xlink="http://www.w3.org/1999/xlink" xmlns:a="http://ns.adobe.com/AdobeSVGViewerExtensions/3.0/"
	 x="0px" y="0px" width="100%" height="100%" viewBox="0 0 24 24" enable-background="new 0 0 24 24" xml:space="preserve">
<defs>
</defs>
<path fill="{color}" transform="rotate({angle}, 12, 12)" d="M12,0C5.3828125,0,0,5.3828125,0,12s5.3828125,12,12,12s12-5.3828125,12-12S18.6171875,0,12,0z
	 M12,21.2919922c-5.1230469,0-9.2919922-4.1689453-9.2919922-9.2919922S6.8769531,2.7080078,12,2.7080078
	c5.1240234,0,9.2919922,4.1689453,9.2919922,9.2919922S17.1240234,21.2919922,12,21.2919922z M16.8964844,15.7685547
	c0.4863281,0.5693359,0.4208984,1.4228516-0.1464844,1.9101563c-0.2558594,0.2177734-0.5693359,0.3251953-0.8808594,0.3251953
	c-0.3818359,0-0.7617188-0.1601563-1.0292969-0.4726563l-4.5810547-5.3457031v4.4648438
	c0,0.7480469-0.6054688,1.3535156-1.3535156,1.3535156s-1.3535156-0.6054688-1.3535156-1.3535156V7.3671875
	c0-0.7480469,0.6054688-1.3544922,1.3535156-1.3544922s1.3535156,0.6064453,1.3535156,1.3544922v2.921875
	c0.0039063-0.0039063,0.0068359-0.0078125,0.0107422-0.0117188l3.8671875-3.8691406
	c0.5292969-0.5273438,1.3867188-0.5273438,1.9160156,0c0.5283203,0.5292969,0.5283203,1.3867188,0,1.9160156l-2.9824219,2.9804688
	L16.8964844,15.7685547z"/>
</svg>
