<?xml version="1.0" encoding="utf-8"?>
<!-- Generator: Adobe Illustrator 16.0.3, SVG Export Plug-In . SVG Version: 6.00 Build 0)  -->
<!DOCTYPE svg PUBLIC "-//W3C//DTD SVG 1.1//EN" "http://www.w3.org/Graphics/SVG/1.1/DTD/svg11.dtd">
<svg version="1.1" id="Layer_1" xmlns="http://www.w3.org/2000/svg" xmlns:xlink="http://www.w3.org/1999/xlink" x="0px" y="0px"
	 width="100%" height="100%" viewBox="0 0 16 16" enable-background="new 0 0 16 16" xml:space="preserve">
<path fill="{color}" d="M9,0C6.238,0,4,2.239,4,5c0,0.832,0.223,1.605,0.583,2.296l-4.144,4.144c-0.586,0.586-0.586,1.535,0,2.121
	C0.732,13.854,1.116,14,1.5,14s0.768-0.146,1.061-0.439L3,13.121l0.439,0.439C3.732,13.854,4.116,14,4.5,14s0.768-0.146,1.061-0.439
	c0.586-0.586,0.586-1.535,0-2.121L5.121,11l1.583-1.583C7.395,9.777,8.168,10,9,10c2.762,0,5-2.239,5-5S11.762,0,9,0z M9,7
	C7.896,7,7,6.103,7,5s0.896-2,2-2s2,0.897,2,2S10.104,7,9,7z"/>
</svg>
