<?xml version="1.0" encoding="utf-8"?>
<!-- Generator: Adobe Illustrator 14.0.0, SVG Export Plug-In  -->
<!DOCTYPE svg PUBLIC "-//W3C//DTD SVG 1.1//EN" "http://www.w3.org/Graphics/SVG/1.1/DTD/svg11.dtd" [
	<!ENTITY ns_flows "http://ns.adobe.com/Flows/1.0/">
]>
<svg version="1.1"
	 xmlns="http://www.w3.org/2000/svg" xmlns:xlink="http://www.w3.org/1999/xlink" xmlns:a="http://ns.adobe.com/AdobeSVGViewerExtensions/3.0/"
	 x="0px" y="0px" width="100%" height="100%" viewBox="0 0 24 24" enable-background="new 0 0 24 24" xml:space="preserve">
<defs>
</defs>
<circle fill="#FFFFFF" cx="12" cy="12" r="12"/>
<path fill="{color}" transform="rotate({angle}, 12, 12)" d="M20.4853516,3.5136719C18.21875,1.2480469,15.2050781,0,12,0S5.78125,1.2480469,3.5146484,3.5136719
	C1.2480469,5.78125,0,8.7939453,0,11.9990234c0,3.2060547,1.2480469,6.2197266,3.5146484,8.4873047
	C5.78125,22.7519531,8.7949219,24,12,24s6.21875-1.2480469,8.4853516-3.5136719C22.7519531,18.21875,24,15.2060547,24,12
	C24,8.7949219,22.7519531,5.78125,20.4853516,3.5136719z M17.3339844,12.9570313
	c-0.8408203,0.8398438-1.9570313,1.3027344-3.1455078,1.3027344c-0.7216797,0-1.4160156-0.171875-2.0390625-0.4941406
	L10.90625,15.0078125l0.5507813,0.5507813c0.5283203,0.5292969,0.5283203,1.3857422,0,1.9160156
	c-0.2646484,0.2636719-0.6113281,0.3955078-0.9580078,0.3955078s-0.6923828-0.1318359-0.9580078-0.3955078l-0.5498047-0.5507813
	l-0.4111328,0.4101563c-0.2636719,0.2636719-0.6103516,0.3964844-0.9570313,0.3964844s-0.6923828-0.1328125-0.9570313-0.3964844
	c-0.5292969-0.5283203-0.5292969-1.3867188,0-1.9150391l3.5683594-3.5683594
	C9.9130859,11.2275391,9.7402344,10.5332031,9.7402344,9.8125c0-1.1894531,0.4619141-2.3056641,1.3027344-3.1464844
	C11.8828125,5.8261719,13,5.3632813,14.1884766,5.3632813s2.3056641,0.4628906,3.1455078,1.3027344
	s1.3027344,1.9570313,1.3027344,3.1455078S18.1738281,12.1171875,17.3339844,12.9570313z M15.4189453,11.0429688
	c-0.3291016,0.328125-0.765625,0.5097656-1.2304688,0.5097656s-0.9013672-0.1816406-1.2314453-0.5097656
	c-0.328125-0.3291016-0.5097656-0.7666016-0.5097656-1.2304688c0-0.4648438,0.1816406-0.9023438,0.5097656-1.2314453
	c0.3300781-0.3291016,0.7666016-0.5107422,1.2314453-0.5107422s0.9013672,0.1816406,1.2314453,0.5107422
	c0.328125,0.3291016,0.5097656,0.7666016,0.5097656,1.2304688C15.9296875,10.2763672,15.7480469,10.7138672,15.4189453,11.0429688z"
	/>
<radialGradient gradientTransform="rotate({backgroundAngle}, 12, 12)" id="SVGID_1_" cx="12" cy="3.1728516" r="22.2501049" gradientUnits="userSpaceOnUse">
	<stop  offset="0.351515" style="stop-color:#FFFFFF;stop-opacity:0.4"/>
	<stop  offset="0.842424" style="stop-color:#FFFFFF;stop-opacity:0"/>
</radialGradient>
<path fill="url(#SVGID_1_)" d="M12,0C5.3828125,0,0,5.3828125,0,12s5.3828125,12,12,12s12-5.3828125,12-12S18.6171875,0,12,0z"/>
</svg>
