<?xml version="1.0" encoding="utf-8"?>
<!-- Generator: Adobe Illustrator 14.0.0, SVG Export Plug-In  -->
<!DOCTYPE svg PUBLIC "-//W3C//DTD SVG 1.1//EN" "http://www.w3.org/Graphics/SVG/1.1/DTD/svg11.dtd" [
	<!ENTITY ns_flows "http://ns.adobe.com/Flows/1.0/">
]>
<svg version="1.1"
	 xmlns="http://www.w3.org/2000/svg" xmlns:xlink="http://www.w3.org/1999/xlink" xmlns:a="http://ns.adobe.com/AdobeSVGViewerExtensions/3.0/"
	 x="0px" y="0px" width="100%" height="100%" viewBox="0 0 24 24" enable-background="new 0 0 24 24" xml:space="preserve">
<defs>
</defs>
<path fill="{color}" transform="rotate({angle}, 12, 12)" d="M20.4853516,3.5136719C18.21875,1.2480469,15.2050781,0,12,0S5.78125,1.2480469,3.5146484,3.5136719
	C1.2480469,5.78125,0,8.7939453,0,11.9990234c0,3.2060547,1.2480469,6.2197266,3.5146484,8.4873047
	C5.78125,22.7519531,8.7949219,24,12,24s6.21875-1.2480469,8.4853516-3.5136719C22.7519531,18.21875,24,15.2060547,24,12
	C24,8.7949219,22.7519531,5.78125,20.4853516,3.5136719z M18.5703125,18.5703125
	C16.8154297,20.3251953,14.4824219,21.2919922,12,21.2919922s-4.8154297-0.9667969-6.5703125-2.7216797
	S2.7080078,14.4824219,2.7080078,12s0.9667969-4.8154297,2.7216797-6.5703125C7.1845703,3.6738281,9.5175781,2.7080078,12,2.7080078
	s4.8154297,0.9658203,6.5703125,2.7216797C20.3261719,7.1855469,21.2919922,9.5175781,21.2919922,12
	S20.3261719,16.8154297,18.5703125,18.5703125z M17.3339844,6.6660156
	c-0.8398438-0.8398438-1.9570313-1.3027344-3.1455078-1.3027344s-2.3056641,0.4628906-3.1455078,1.3027344
	C10.2021484,7.5068359,9.7402344,8.6230469,9.7402344,9.8125c0,0.7207031,0.1728516,1.4150391,0.4941406,2.0380859
	l-3.5683594,3.5683594c-0.5292969,0.5283203-0.5292969,1.3867188,0,1.9150391
	c0.2646484,0.2636719,0.6103516,0.3964844,0.9570313,0.3964844s0.6933594-0.1328125,0.9570313-0.3964844l0.4111328-0.4101563
	l0.5498047,0.5507813c0.265625,0.2636719,0.6113281,0.3955078,0.9580078,0.3955078s0.6933594-0.1318359,0.9580078-0.3955078
	c0.5283203-0.5302734,0.5283203-1.3867188,0-1.9160156L10.90625,15.0078125l1.2431641-1.2421875
	c0.6230469,0.3222656,1.3173828,0.4941406,2.0390625,0.4941406c1.1884766,0,2.3046875-0.4628906,3.1455078-1.3027344
	C18.1738281,12.1171875,18.6367188,11,18.6367188,9.8115234S18.1738281,7.5058594,17.3339844,6.6660156z M15.4189453,11.0429688
	c-0.3291016,0.328125-0.765625,0.5097656-1.2304688,0.5097656s-0.9013672-0.1816406-1.2314453-0.5097656
	c-0.328125-0.3291016-0.5097656-0.7666016-0.5097656-1.2304688c0-0.4648438,0.1816406-0.9023438,0.5097656-1.2314453
	c0.3300781-0.3291016,0.7666016-0.5107422,1.2314453-0.5107422s0.9013672,0.1816406,1.2314453,0.5107422
	c0.328125,0.3291016,0.5097656,0.7666016,0.5097656,1.2304688C15.9296875,10.2763672,15.7480469,10.7138672,15.4189453,11.0429688z"
	/>
</svg>
