<?xml version="1.0" encoding="utf-8"?>
<!-- Generator: Adobe Illustrator 14.0.0, SVG Export Plug-In  -->
<!DOCTYPE svg PUBLIC "-//W3C//DTD SVG 1.1//EN" "http://www.w3.org/Graphics/SVG/1.1/DTD/svg11.dtd" [
	<!ENTITY ns_flows "http://ns.adobe.com/Flows/1.0/">
]>
<svg version="1.1"
	 xmlns="http://www.w3.org/2000/svg" xmlns:xlink="http://www.w3.org/1999/xlink" xmlns:a="http://ns.adobe.com/AdobeSVGViewerExtensions/3.0/"
	 x="0px" y="0px" width="100%" height="100%" viewBox="0 0 24 24" enable-background="new 0 0 24 24" xml:space="preserve">
<defs>
</defs>
<path fill="{color}" transform="rotate({angle}, 12, 12)" d="M12,0C5.3828125,0,0,5.3828125,0,12s5.3828125,12,12,12c6.6162109,0,12-5.3828125,12-12S18.6162109,0,12,0z
	 M12,21.2929688c-5.1240234,0-9.2919922-4.1689453-9.2919922-9.2929688c0-5.1230469,4.1679688-9.2919922,9.2919922-9.2919922
	c5.1230469,0,9.2919922,4.1689453,9.2919922,9.2919922C21.2919922,17.1240234,17.1230469,21.2929688,12,21.2929688z
	 M13.546875,5.2304688c-2.8789063,0-5.2216797,2.3427734-5.2216797,5.2226563c0,0.9492188,0.2578125,1.8369141,0.7021484,2.6054688
	l-2.6269531,2.6269531c-0.5283203,0.5273438-0.5283203,1.3847656,0,1.9140625
	c0.2646484,0.2636719,0.6113281,0.3964844,0.9580078,0.3964844c0.3457031,0,0.6923828-0.1328125,0.9570313-0.3964844
	l2.6269531-2.6269531c0.7675781,0.4433594,1.65625,0.703125,2.6044922,0.703125c2.8798828,0,5.2226563-2.34375,5.2226563-5.2226563
	C18.7695313,7.5732422,16.4267578,5.2304688,13.546875,5.2304688z M13.546875,12.9667969
	c-1.3857422,0-2.5136719-1.1269531-2.5136719-2.5136719s1.1279297-2.5146484,2.5136719-2.5146484
	c1.3867188,0,2.5146484,1.1279297,2.5146484,2.5146484S14.9335938,12.9667969,13.546875,12.9667969z"/>
</svg>
