<?xml version="1.0" encoding="utf-8"?>
<!-- Generator: Adobe Illustrator 14.0.0, SVG Export Plug-In  -->
<!DOCTYPE svg PUBLIC "-//W3C//DTD SVG 1.1//EN" "http://www.w3.org/Graphics/SVG/1.1/DTD/svg11.dtd" [
	<!ENTITY ns_flows "http://ns.adobe.com/Flows/1.0/">
]>
<svg version="1.1"
	 xmlns="http://www.w3.org/2000/svg" xmlns:xlink="http://www.w3.org/1999/xlink" xmlns:a="http://ns.adobe.com/AdobeSVGViewerExtensions/3.0/"
	 x="0px" y="0px" width="100%" height="100%" viewBox="0 0 24 24" enable-background="new 0 0 24 24" xml:space="preserve">
<defs>
</defs>
<path fill="{color}" transform="rotate({angle}, 12, 12)" d="M18.7695313,12c0,0.7470703-0.6064453,1.3535156-1.3535156,1.3535156H6.5839844
	c-0.7470703,0-1.3535156-0.6064453-1.3535156-1.3535156c0-0.7480469,0.6064453-1.3544922,1.3535156-1.3544922h10.8320313
	C18.1630859,10.6455078,18.7695313,11.2519531,18.7695313,12z M12,24C5.3828125,24,0,18.6171875,0,12S5.3828125,0,12,0
	s12,5.3828125,12,12S18.6171875,24,12,24L12,24z M12,2.7070313c-5.1230469,0-9.2919922,4.1689453-9.2919922,9.2929688
	c0,5.1230469,4.1689453,9.2919922,9.2919922,9.2919922S21.2919922,17.1230469,21.2919922,12
	C21.2919922,6.8759766,17.1230469,2.7070313,12,2.7070313L12,2.7070313z"/>
</svg>
