<?xml version="1.0" encoding="utf-8"?>
<!-- Generator: Adobe Illustrator 14.0.0, SVG Export Plug-In  -->
<!DOCTYPE svg PUBLIC "-//W3C//DTD SVG 1.1//EN" "http://www.w3.org/Graphics/SVG/1.1/DTD/svg11.dtd" [
	<!ENTITY ns_flows "http://ns.adobe.com/Flows/1.0/">
]>
<svg version="1.1"
	 xmlns="http://www.w3.org/2000/svg" xmlns:xlink="http://www.w3.org/1999/xlink" xmlns:a="http://ns.adobe.com/AdobeSVGViewerExtensions/3.0/"
	 x="0px" y="0px" width="100%" height="100%" viewBox="0 0 24 24" enable-background="new 0 0 24 24" xml:space="preserve">
<defs>
</defs>
<circle fill="#FFFFFF" cx="12" cy="12" r="12"/>
<path fill="{color}" transform="rotate({angle}, 12, 12)" d="M12,0C5.3828125,0,0,5.3828125,0,12c0,6.6162109,5.3828125,12,12,12c6.6162109,0,12-5.3837891,12-12
	C24,5.3828125,18.6162109,0,12,0z M17.65625,16.6416016c0,0.7744141-0.6269531,1.4013672-1.4013672,1.4013672H7.7451172
	c-0.7744141,0-1.4013672-0.6269531-1.4013672-1.4013672v-5.8027344c0-0.7734375,0.6269531-1.4013672,1.4013672-1.4013672h0.1933594
	V8.9052734C7.9384766,6.6650391,9.7607422,4.84375,12,4.84375c2.2402344,0,4.0615234,1.8212891,4.0615234,4.0615234V9.4375
	h0.1933594c0.7744141,0,1.4013672,0.6279297,1.4013672,1.4013672V16.6416016z M10.6464844,8.9052734
	c0-0.7460938,0.6074219-1.3535156,1.3535156-1.3535156c0.7470703,0,1.3544922,0.6074219,1.3544922,1.3535156V9.4375h-2.7080078
	V8.9052734z M14.8535156,15.2402344H9.1464844v-2.9990234h5.7070313V15.2402344z"/>
<radialGradient gradientTransform="rotate({backgroundAngle}, 12, 12)" id="SVGID_1_" cx="12" cy="3.1728516" r="22.2501049" gradientUnits="userSpaceOnUse">
	<stop  offset="0.351515" style="stop-color:#FFFFFF;stop-opacity:0.4"/>
	<stop  offset="0.842424" style="stop-color:#FFFFFF;stop-opacity:0"/>
</radialGradient>
<path fill="url(#SVGID_1_)" d="M12,0C5.3828125,0,0,5.3828125,0,12s5.3828125,12,12,12s12-5.3828125,12-12S18.6171875,0,12,0z"/>
</svg>
