<?xml version="1.0" encoding="utf-8"?>
<!-- Generator: Adobe Illustrator 14.0.0, SVG Export Plug-In  -->
<!DOCTYPE svg PUBLIC "-//W3C//DTD SVG 1.1//EN" "http://www.w3.org/Graphics/SVG/1.1/DTD/svg11.dtd" [
	<!ENTITY ns_flows "http://ns.adobe.com/Flows/1.0/">
]>
<svg version="1.1"
	 xmlns="http://www.w3.org/2000/svg" xmlns:xlink="http://www.w3.org/1999/xlink" xmlns:a="http://ns.adobe.com/AdobeSVGViewerExtensions/3.0/"
	 x="0px" y="0px" width="100%" height="100%" viewBox="0 0 24 24" enable-background="new 0 0 24 24" xml:space="preserve">
<defs>
</defs>
<path fill="{color}" transform="rotate({angle}, 12, 12)" d="M12,0C5.3828125,0,0,5.3828125,0,12c0,6.6162109,5.3828125,12,12,12c6.6162109,0,12-5.3837891,12-12
	C24,5.3828125,18.6162109,0,12,0z M12,21.2919922c-5.1240234,0-9.2919922-4.1689453-9.2919922-9.2919922
	c0-5.1240234,4.1679688-9.2919922,9.2919922-9.2919922S21.2919922,6.8759766,21.2919922,12
	C21.2919922,17.1230469,17.1240234,21.2919922,12,21.2919922z M16.2548828,9.4375h-0.1933594V8.9052734
	C16.0615234,6.6650391,14.2402344,4.84375,12,4.84375c-2.2392578,0-4.0615234,1.8212891-4.0615234,4.0615234V9.4375H7.7451172
	c-0.7744141,0-1.4013672,0.6279297-1.4013672,1.4013672v5.8027344c0,0.7744141,0.6269531,1.4013672,1.4013672,1.4013672h8.5097656
	c0.7744141,0,1.4013672-0.6269531,1.4013672-1.4013672v-5.8027344C17.65625,10.0654297,17.0292969,9.4375,16.2548828,9.4375z
	 M10.6464844,8.9052734c0-0.7460938,0.6074219-1.3535156,1.3535156-1.3535156c0.7470703,0,1.3544922,0.6074219,1.3544922,1.3535156
	V9.4375h-2.7080078V8.9052734z M14.8535156,15.2402344H9.1464844v-2.9990234h5.7070313V15.2402344z"/>
</svg>
