<?xml version="1.0" encoding="utf-8"?>
<!-- Generator: Adobe Illustrator 16.0.3, SVG Export Plug-In . SVG Version: 6.00 Build 0)  -->
<!DOCTYPE svg PUBLIC "-//W3C//DTD SVG 1.1//EN" "http://www.w3.org/Graphics/SVG/1.1/DTD/svg11.dtd">
<svg version="1.1" id="Layer_1" xmlns="http://www.w3.org/2000/svg" xmlns:xlink="http://www.w3.org/1999/xlink" x="0px" y="0px"
	 width="100%" height="100%" viewBox="0 0 16 16" enable-background="new 0 0 16 16" xml:space="preserve">
<path transform="translate(-1, 0)" fill="{color}" d="M9,5.5v7v0.001c0,0.022-0.006,0.043-0.007,0.065c-0.002,0.053-0.008,0.104-0.016,0.157
	c-0.007,0.048-0.016,0.096-0.027,0.143c-0.011,0.044-0.025,0.087-0.041,0.131c-0.017,0.05-0.035,0.098-0.058,0.145
	c-0.019,0.039-0.04,0.077-0.063,0.115c-0.026,0.045-0.055,0.089-0.085,0.132c-0.026,0.035-0.055,0.067-0.084,0.101
	c-0.036,0.041-0.072,0.079-0.112,0.116c-0.03,0.027-0.063,0.053-0.096,0.078c-0.047,0.037-0.096,0.07-0.146,0.101
	c-0.017,0.011-0.03,0.023-0.047,0.032c-0.015,0.008-0.03,0.011-0.045,0.018c-0.081,0.041-0.166,0.074-0.255,0.1
	c-0.026,0.008-0.051,0.019-0.077,0.024c-0.11,0.026-0.224,0.043-0.342,0.043c-0.125,0-0.244-0.02-0.361-0.049
	c-0.026-0.007-0.052-0.017-0.078-0.024c-0.094-0.028-0.182-0.065-0.266-0.111c-0.026-0.014-0.052-0.025-0.076-0.041
	c-0.104-0.063-0.201-0.136-0.286-0.222c-0.005-0.005-0.009-0.013-0.015-0.019c-0.081-0.084-0.148-0.18-0.208-0.281
	c-0.008-0.013-0.02-0.021-0.026-0.035L3,7.383V12.5C3,13.328,2.328,14,1.5,14S0,13.328,0,12.5v-11c0-0.021,0.006-0.041,0.007-0.063
	c0.002-0.056,0.008-0.11,0.017-0.164C0.03,1.228,0.038,1.183,0.049,1.139C0.061,1.09,0.076,1.044,0.093,0.997
	c0.017-0.046,0.033-0.09,0.054-0.133C0.167,0.82,0.191,0.778,0.216,0.736c0.024-0.041,0.049-0.08,0.076-0.119
	C0.321,0.578,0.354,0.54,0.387,0.503c0.032-0.035,0.064-0.069,0.1-0.103c0.034-0.031,0.071-0.062,0.109-0.09
	c0.043-0.032,0.086-0.063,0.131-0.09c0.02-0.012,0.035-0.026,0.055-0.037c0.021-0.012,0.044-0.018,0.065-0.027
	c0.047-0.023,0.095-0.044,0.145-0.062c0.048-0.018,0.095-0.032,0.143-0.044C1.178,0.039,1.223,0.03,1.268,0.023
	c0.056-0.009,0.111-0.015,0.168-0.017C1.457,0.006,1.478,0,1.5,0c0.021,0,0.042,0.006,0.063,0.006
	c0.056,0.003,0.11,0.009,0.164,0.018c0.046,0.006,0.091,0.015,0.136,0.025c0.048,0.012,0.093,0.027,0.14,0.043
	c0.046,0.018,0.092,0.034,0.136,0.055C2.18,0.167,2.221,0.189,2.262,0.215c0.042,0.024,0.083,0.05,0.122,0.079
	c0.039,0.027,0.075,0.059,0.11,0.091c0.037,0.033,0.073,0.066,0.107,0.104c0.03,0.033,0.059,0.068,0.087,0.105
	c0.033,0.043,0.063,0.088,0.093,0.135c0.011,0.02,0.025,0.034,0.035,0.053L6,6.617V1.5C6,0.672,6.672,0,7.5,0S9,0.672,9,1.5V5.5z
	 M14.5,11h-2h-0.001H10.5C9.671,11,9,11.672,9,12.5S9.671,14,10.5,14h4c0.828,0,1.5-0.672,1.5-1.5S15.328,11,14.5,11z M9,5.5
	C9,2.313,10.472,0,12.5,0S16,2.313,16,5.5c0,3.187-1.472,5.5-3.5,5.5S9,8.687,9,5.5z M12,5.5c0,1.144,0.28,1.915,0.5,2.293
	C12.72,7.415,13,6.644,13,5.5c0-1.143-0.28-1.914-0.5-2.292C12.28,3.586,12,4.357,12,5.5z"/>
</svg>
