<?xml version="1.0" encoding="utf-8"?>
<!-- Generator: Adobe Illustrator 14.0.0, SVG Export Plug-In  -->
<!DOCTYPE svg PUBLIC "-//W3C//DTD SVG 1.1//EN" "http://www.w3.org/Graphics/SVG/1.1/DTD/svg11.dtd" [
	<!ENTITY ns_flows "http://ns.adobe.com/Flows/1.0/">
]>
<svg version="1.1"
	 xmlns="http://www.w3.org/2000/svg" xmlns:xlink="http://www.w3.org/1999/xlink" xmlns:a="http://ns.adobe.com/AdobeSVGViewerExtensions/3.0/"
	 x="0px" y="0px" width="100%" height="100%" viewBox="0 0 24 24" enable-background="new 0 0 24 24" xml:space="preserve">
<defs>
</defs>
<path fill="{color}" transform="rotate({angle}, 12, 12)" d="M12,0C5.3828125,0,0,5.3833008,0,12c0,6.6171875,5.3828125,12,12,12s12-5.3828125,12-12
	C24,5.3833008,18.6171875,0,12,0z M20.0908203,7.4375c-0.0517578,0.0390625-0.1044922,0.0771484-0.1513672,0.1230469
	l-4.0712891,4.0722656l-3.5009766-3.5014648l4.0722656-4.0717773c0.046875-0.046875,0.0839844-0.0976563,0.1230469-0.1499023
	C18.0341797,4.7421875,19.2578125,5.9663086,20.0908203,7.4375z M13.2783203,12.871582l-3.5322266,1.3823242l1.3828125-3.5322266
	L13.2783203,12.871582z M12,21.2919922c-5.1240234,0-9.2919922-4.1689453-9.2919922-9.2919922S6.8759766,2.7080078,12,2.7080078
	c0.6113281,0,1.2089844,0.0615234,1.7871094,0.1738281L9.8828125,6.7871094C9.75,6.9189453,9.6464844,7.0771484,9.5791016,7.2519531
	l-3.4814453,8.8964844c-0.1962891,0.5009766-0.0771484,1.0703125,0.3027344,1.4511719
	c0.2597656,0.2578125,0.6054688,0.3964844,0.9580078,0.3964844c0.1660156,0,0.3330078-0.0302734,0.4931641-0.09375
	l8.8964844-3.4804688c0.1748047-0.0683594,0.3320313-0.171875,0.4648438-0.3046875l3.9052734-3.9052734
	C21.2304688,10.7915039,21.2919922,11.3891602,21.2919922,12C21.2919922,17.1230469,17.1240234,21.2919922,12,21.2919922z"/>
</svg>
