<?xml version="1.0" encoding="utf-8"?>
<!-- Generator: Adobe Illustrator 14.0.0, SVG Export Plug-In  -->
<!DOCTYPE svg PUBLIC "-//W3C//DTD SVG 1.1//EN" "http://www.w3.org/Graphics/SVG/1.1/DTD/svg11.dtd" [
	<!ENTITY ns_flows "http://ns.adobe.com/Flows/1.0/">
]>
<svg version="1.1"
	 xmlns="http://www.w3.org/2000/svg" xmlns:xlink="http://www.w3.org/1999/xlink" xmlns:a="http://ns.adobe.com/AdobeSVGViewerExtensions/3.0/"
	 x="0px" y="0px" width="100%" height="100%" viewBox="0 0 24 24" enable-background="new 0 0 24 24" xml:space="preserve">
<defs>
</defs>
<path fill="{color}" transform="rotate({angle}, 12, 12)" d="M12,0C5.3828125,0,0,5.3828125,0,12s5.3828125,12,12,12s12-5.3828125,12-12S18.6171875,0,12,0z
	 M12,21.2929688c-5.1240234,0-9.2919922-4.1699219-9.2919922-9.2929688S6.8759766,2.7070313,12,2.7070313
	S21.2919922,6.8769531,21.2919922,12S17.1240234,21.2929688,12,21.2929688z M15.6748047,12
	c0,2.0263672-1.6484375,3.6748047-3.6748047,3.6748047S8.3251953,14.0263672,8.3251953,12S9.9736328,8.3251953,12,8.3251953
	S15.6748047,9.9736328,15.6748047,12z"/>
</svg>
