<?xml version="1.0" encoding="utf-8"?>
<!-- Generator: Adobe Illustrator 14.0.0, SVG Export Plug-In  -->
<!DOCTYPE svg PUBLIC "-//W3C//DTD SVG 1.1//EN" "http://www.w3.org/Graphics/SVG/1.1/DTD/svg11.dtd" [
	<!ENTITY ns_flows "http://ns.adobe.com/Flows/1.0/">
]>
<svg version="1.1"
	 xmlns="http://www.w3.org/2000/svg" xmlns:xlink="http://www.w3.org/1999/xlink" xmlns:a="http://ns.adobe.com/AdobeSVGViewerExtensions/3.0/"
	 x="0px" y="0px" width="100%" height="100%" viewBox="0 0 24 24" enable-background="new 0 0 24 24" xml:space="preserve">
<defs>
</defs>
<path fill="{color}" transform="rotate({angle}, 12, 12)" d="M12,0C5.3828125,0,0,5.3828125,0,12s5.3828125,12,12,12s12-5.3828125,12-12S18.6171875,0,12,0z
	 M12,21.2919922c-5.1240234,0-9.2919922-4.1679688-9.2919922-9.2919922S6.8759766,2.7080078,12,2.7080078
	S21.2919922,6.8759766,21.2919922,12S17.1240234,21.2919922,12,21.2919922z M18.7695313,12
	c0,3.7324219-3.0371094,6.7695313-6.7695313,6.7695313S5.2304688,15.7324219,5.2304688,12
	c0-1.8076172,0.7041016-3.5078125,1.9824219-4.7871094c0.5292969-0.5283203,1.3867188-0.5283203,1.9150391,0
	S9.65625,8.5986328,9.1289063,9.1279297C8.3613281,9.8945313,7.9384766,10.9150391,7.9384766,12
	c0,2.2402344,1.8212891,4.0615234,4.0615234,4.0615234S16.0615234,14.2402344,16.0615234,12
	c0-1.1015625-0.4326172-2.1318359-1.2197266-2.9023438c-0.5351563-0.5224609-0.5429688-1.3798828-0.0195313-1.9140625
	s1.3798828-0.5429688,1.9140625-0.0205078C18.046875,8.4472656,18.7695313,10.1650391,18.7695313,12z M10.6464844,11.2265625
	V5.8105469c0-0.7470703,0.6054688-1.3535156,1.3535156-1.3535156s1.3535156,0.6064453,1.3535156,1.3535156v5.4160156
	c0,0.7470703-0.6054688,1.3535156-1.3535156,1.3535156S10.6464844,11.9736328,10.6464844,11.2265625z"/>
</svg>
