<?xml version="1.0" encoding="utf-8"?>
<!-- Generator: Adobe Illustrator 14.0.0, SVG Export Plug-In  -->
<!DOCTYPE svg PUBLIC "-//W3C//DTD SVG 1.1//EN" "http://www.w3.org/Graphics/SVG/1.1/DTD/svg11.dtd" [
	<!ENTITY ns_flows "http://ns.adobe.com/Flows/1.0/">
]>
<svg version="1.1"
	 xmlns="http://www.w3.org/2000/svg" xmlns:xlink="http://www.w3.org/1999/xlink" xmlns:a="http://ns.adobe.com/AdobeSVGViewerExtensions/3.0/"
	 x="0px" y="0px" width="100%" height="100%" viewBox="0 0 24 24" enable-background="new 0 0 24 24" xml:space="preserve">
<defs>
</defs>
<circle fill="#FFFFFF" cx="12" cy="12" r="12"/>
<path fill="{color}" transform="rotate({angle}, 12, 12)" d="M12,0C5.3828125,0,0,5.3828125,0,12s5.3828125,12,12,12s12-5.3828125,12-12S18.6171875,0,12,0z
	 M10.6464844,5.8105469c0-0.7470703,0.6054688-1.3535156,1.3535156-1.3535156s1.3535156,0.6064453,1.3535156,1.3535156v5.4160156
	c0,0.7470703-0.6054688,1.3535156-1.3535156,1.3535156s-1.3535156-0.6064453-1.3535156-1.3535156V5.8105469z M12,18.7695313
	c-3.7324219,0-6.7695313-3.0371094-6.7695313-6.7695313c0-1.8076172,0.7041016-3.5078125,1.9824219-4.7871094
	c0.5292969-0.5283203,1.3867188-0.5283203,1.9150391,0S9.65625,8.5986328,9.1289063,9.1279297
	C8.3613281,9.8945313,7.9384766,10.9150391,7.9384766,12c0,2.2402344,1.8212891,4.0615234,4.0615234,4.0615234
	S16.0615234,14.2402344,16.0615234,12c0-1.1015625-0.4326172-2.1318359-1.2197266-2.9023438
	c-0.5351563-0.5224609-0.5429688-1.3798828-0.0195313-1.9140625s1.3798828-0.5429688,1.9140625-0.0205078
	C18.046875,8.4472656,18.7695313,10.1650391,18.7695313,12C18.7695313,15.7324219,15.7324219,18.7695313,12,18.7695313z"/>
<radialGradient gradientTransform="rotate({backgroundAngle}, 12, 12)" id="SVGID_1_" cx="12" cy="3.1728516" r="22.2501049" gradientUnits="userSpaceOnUse">
	<stop  offset="0.351515" style="stop-color:#FFFFFF;stop-opacity:0.4"/>
	<stop  offset="0.842424" style="stop-color:#FFFFFF;stop-opacity:0"/>
</radialGradient>
<path fill="url(#SVGID_1_)" d="M12,0C5.3828125,0,0,5.3828125,0,12s5.3828125,12,12,12s12-5.3828125,12-12S18.6171875,0,12,0z"/>
</svg>
