<?xml version="1.0" encoding="utf-8"?>
<!-- Generator: Adobe Illustrator 14.0.0, SVG Export Plug-In  -->
<!DOCTYPE svg PUBLIC "-//W3C//DTD SVG 1.1//EN" "http://www.w3.org/Graphics/SVG/1.1/DTD/svg11.dtd" [
	<!ENTITY ns_flows "http://ns.adobe.com/Flows/1.0/">
]>
<svg version="1.1"
	 xmlns="http://www.w3.org/2000/svg" xmlns:xlink="http://www.w3.org/1999/xlink" xmlns:a="http://ns.adobe.com/AdobeSVGViewerExtensions/3.0/"
	 x="0px" y="0px" width="100%" height="100%" viewBox="0 0 24 24" enable-background="new 0 0 24 24" xml:space="preserve">
<defs>
</defs>
<path fill="#fff" transform="rotate(90, 12, 12)" d="M12,0C5.3828125,0,0,5.3828125,0,12s5.3828125,12,12,12s12-5.3828125,12-12S18.6171875,0,12,0z
	 M12,21.2929688c-5.1230469,0-9.2919922-4.1689453-9.2919922-9.2929688S6.8769531,2.7080078,12,2.7080078
	c5.1240234,0,9.2919922,4.1679688,9.2919922,9.2919922S17.1240234,21.2929688,12,21.2929688z M16.6425781,10.2597656H16.0625
	V6.5839844c0-0.7470703-0.6074219-1.3535156-1.3544922-1.3535156H9.2929688c-0.7480469,0-1.3535156,0.6064453-1.3535156,1.3535156
	v3.6757813H7.3583984l0,0l0,0c-0.7480469,0-1.3544922,0.6054688-1.3544922,1.3535156v5.0292969
	c0,0.7460938,0.6064453,1.3535156,1.3544922,1.3535156c0.0664063,0,0.1298828-0.0107422,0.1933594-0.0195313
	c0.0634766,0.0087891,0.1269531,0.0195313,0.1933594,0.0195313h8.5107422c0.0654297,0,0.1289063-0.0107422,0.1933594-0.0195313
	c0.0634766,0.0087891,0.1269531,0.0195313,0.1933594,0.0195313c0.7470703,0,1.3535156-0.6074219,1.3535156-1.3535156v-5.0273438
	c0-0.0009766,0-0.0009766,0-0.0019531C17.9960938,10.8652344,17.390625,10.2597656,16.6425781,10.2597656z M8.7119141,12.9667969
	h6.5761719v2.3212891H8.7119141V12.9667969z M10.6464844,7.9375h2.7070313v2.3222656h-2.7070313V7.9375z"/>
</svg>
