<?xml version="1.0" encoding="utf-8"?>
<!-- Generator: Adobe Illustrator 14.0.0, SVG Export Plug-In  -->
<!DOCTYPE svg PUBLIC "-//W3C//DTD SVG 1.1//EN" "http://www.w3.org/Graphics/SVG/1.1/DTD/svg11.dtd" [
	<!ENTITY ns_flows "http://ns.adobe.com/Flows/1.0/">
]>
<svg version="1.1"
	 xmlns="http://www.w3.org/2000/svg" xmlns:xlink="http://www.w3.org/1999/xlink" xmlns:a="http://ns.adobe.com/AdobeSVGViewerExtensions/3.0/"
	 x="0px" y="0px" width="100%" height="100%" viewBox="0 0 24 24" enable-background="new 0 0 24 24" xml:space="preserve">
<defs>
</defs>
<circle fill="#FFFFFF" cx="12" cy="12" r="12"/>
<path fill="{color}" transform="rotate({angle}, 12, 12)" d="M12,0C5.3828125,0,0,5.3828125,0,12s5.3828125,12,12,12s12-5.3828125,12-12S18.6171875,0,12,0z
	 M17.9960938,11.6152344v5.0273438c0,0.7460938-0.6064453,1.3535156-1.3535156,1.3535156
	c-0.0664063,0-0.1298828-0.0107422-0.1933594-0.0195313c-0.0644531,0.0087891-0.1279297,0.0195313-0.1933594,0.0195313H7.7451172
	c-0.0664063,0-0.1298828-0.0107422-0.1933594-0.0195313c-0.0634766,0.0087891-0.1269531,0.0195313-0.1933594,0.0195313
	c-0.7480469,0-1.3544922-0.6074219-1.3544922-1.3535156v-5.0292969c0-0.7480469,0.6064453-1.3535156,1.3544922-1.3535156h0.5810547
	V6.5839844c0-0.7470703,0.6054688-1.3535156,1.3535156-1.3535156h5.4150391c0.7470703,0,1.3544922,0.6064453,1.3544922,1.3535156
	v3.6757813h0.5800781c0.7480469,0,1.3535156,0.6054688,1.3535156,1.3535156
	C17.9960938,11.6142578,17.9960938,11.6142578,17.9960938,11.6152344z M8.7119141,12.9667969h6.5761719v2.3212891H8.7119141
	V12.9667969z M10.6464844,7.9375h2.7070313v2.3222656h-2.7070313V7.9375z"/>
<radialGradient gradientTransform="rotate({backgroundAngle}, 12, 12)" id="SVGID_1_" cx="12" cy="3.1728516" r="22.2501049" gradientUnits="userSpaceOnUse">
	<stop  offset="0.351515" style="stop-color:#FFFFFF;stop-opacity:0.4"/>
	<stop  offset="0.842424" style="stop-color:#FFFFFF;stop-opacity:0"/>
</radialGradient>
<path fill="url(#SVGID_1_)" d="M12,0C5.3828125,0,0,5.3828125,0,12s5.3828125,12,12,12s12-5.3828125,12-12S18.6171875,0,12,0z"/>
</svg>
