<?xml version="1.0" encoding="utf-8"?>
<!-- Generator: Adobe Illustrator 14.0.0, SVG Export Plug-In  -->
<!DOCTYPE svg PUBLIC "-//W3C//DTD SVG 1.1//EN" "http://www.w3.org/Graphics/SVG/1.1/DTD/svg11.dtd" [
	<!ENTITY ns_flows "http://ns.adobe.com/Flows/1.0/">
]>
<svg version="1.1"
	 xmlns="http://www.w3.org/2000/svg" xmlns:xlink="http://www.w3.org/1999/xlink" xmlns:a="http://ns.adobe.com/AdobeSVGViewerExtensions/3.0/"
	 x="0px" y="0px" width="100%" height="100%" viewBox="0 0 24 24" enable-background="new 0 0 24 24" xml:space="preserve">
<defs>
</defs>
<circle fill="#FFFFFF" cx="12" cy="12" r="12"/>
<path fill="{color}" transform="rotate({angle}, 12, 12)" d="M12,0C5.3828125,0,0,5.3828125,0,12s5.3828125,12,12,12c6.6162109,0,12-5.3828125,12-12S18.6162109,0,12,0z
	 M12,18.7695313c-0.9599609,0-1.7412109-0.7802734-1.7412109-1.7412109c0-0.9599609,0.78125-1.7402344,1.7412109-1.7402344
	s1.7402344,0.7802734,1.7402344,1.7402344C13.7402344,17.9892578,12.9599609,18.7695313,12,18.7695313z M13.328125,13.0683594
	c-0.1376953,0.6025391-0.6767578,1.0507813-1.3203125,1.0507813c-0.7470703,0-1.3535156-0.6064453-1.3535156-1.3535156v-0.5800781
	c0-0.5644531,0.3505859-1.0693359,0.8789063-1.2685547c0.6914063-0.2636719,2.2158203-1.1425781,2.2158203-2.0205078
	c0-0.5869141-0.6835938-0.9667969-1.7412109-0.9667969c-1.4824219,0-1.9833984,0.5849609-2.0039063,0.609375
	c0.0263672-0.0322266,0.0371094-0.0517578,0.0371094-0.0517578l-0.0136719-0.0078125
	C9.7851563,8.8466797,9.3701172,9.0898438,8.8964844,9.0898438c-0.7470703,0-1.3535156-0.6054688-1.3535156-1.3535156
	c0-0.3867188,0.1650391-0.7333984,0.4248047-0.9804688c0.4316406-0.4882813,1.6357422-1.5332031,4.0400391-1.5332031
	c3.0576172,0,4.4492188,1.9042969,4.4492188,3.6738281C16.4570313,11.0986328,14.5087891,12.4511719,13.328125,13.0683594z"/>
<radialGradient gradientTransform="rotate({backgroundAngle}, 12, 12)" id="SVGID_1_" cx="12" cy="3.1728516" r="22.2501049" gradientUnits="userSpaceOnUse">
	<stop  offset="0.351515" style="stop-color:#FFFFFF;stop-opacity:0.4"/>
	<stop  offset="0.842424" style="stop-color:#FFFFFF;stop-opacity:0"/>
</radialGradient>
<path fill="url(#SVGID_1_)" d="M12,0C5.3828125,0,0,5.3828125,0,12s5.3828125,12,12,12s12-5.3828125,12-12S18.6171875,0,12,0z"/>
</svg>
