<?xml version="1.0" encoding="utf-8"?>
<!-- Generator: Adobe Illustrator 14.0.0, SVG Export Plug-In  -->
<!DOCTYPE svg PUBLIC "-//W3C//DTD SVG 1.1//EN" "http://www.w3.org/Graphics/SVG/1.1/DTD/svg11.dtd" [
	<!ENTITY ns_flows "http://ns.adobe.com/Flows/1.0/">
]>
<svg version="1.1"
	 xmlns="http://www.w3.org/2000/svg" xmlns:xlink="http://www.w3.org/1999/xlink" xmlns:a="http://ns.adobe.com/AdobeSVGViewerExtensions/3.0/"
	 x="0px" y="0px" width="100%" height="100%" viewBox="0 0 24 24" enable-background="new 0 0 24 24" xml:space="preserve">
<defs>
</defs>
<path fill="{color}" transform="rotate({angle}, 12, 12)" d="M12,24C5.3828125,24,0,18.6171875,0,12S5.3828125,0,12,0c6.6162109,0,12,5.3828125,12,12
	S18.6162109,24,12,24L12,24z M12,2.7080078c-5.1230469,0-9.2919922,4.1689453-9.2919922,9.2919922
	S6.8769531,21.2919922,12,21.2919922S21.2919922,17.1230469,21.2919922,12S17.1230469,2.7080078,12,2.7080078L12,2.7080078z
	 M12,18.7695313c-0.9599609,0-1.7412109-0.7802734-1.7412109-1.7412109c0-0.9599609,0.78125-1.7402344,1.7412109-1.7402344
	s1.7402344,0.7802734,1.7402344,1.7402344C13.7402344,17.9892578,12.9599609,18.7695313,12,18.7695313L12,18.7695313z
	 M12.0078125,5.2226563c-2.4042969,0-3.6083984,1.0449219-4.0400391,1.5332031
	c-0.2597656,0.2470703-0.4248047,0.59375-0.4248047,0.9804688c0,0.7480469,0.6064453,1.3535156,1.3535156,1.3535156
	c0.4736328,0,0.8886719-0.2431641,1.1308594-0.6103516l0.0136719,0.0078125c0,0-0.0107422,0.0195313-0.0371094,0.0517578
	c0.0205078-0.0244141,0.5214844-0.609375,2.0039063-0.609375c1.0576172,0,1.7412109,0.3798828,1.7412109,0.9667969
	c0,0.8779297-1.5244141,1.7568359-2.2158203,2.0205078c-0.5283203,0.1992188-0.8789063,0.7041016-0.8789063,1.2685547v0.5800781
	c0,0.7470703,0.6064453,1.3535156,1.3535156,1.3535156c0.6435547,0,1.1826172-0.4482422,1.3203125-1.0507813
	c1.1806641-0.6171875,3.1289063-1.9697266,3.1289063-4.171875C16.4570313,7.1269531,15.0654297,5.2226563,12.0078125,5.2226563z"/>
</svg>
