<?xml version="1.0" encoding="utf-8"?>
<!-- Generator: Adobe Illustrator 14.0.0, SVG Export Plug-In  -->
<!DOCTYPE svg PUBLIC "-//W3C//DTD SVG 1.1//EN" "http://www.w3.org/Graphics/SVG/1.1/DTD/svg11.dtd" [
	<!ENTITY ns_flows "http://ns.adobe.com/Flows/1.0/">
]>
<svg version="1.1"
	 xmlns="http://www.w3.org/2000/svg" xmlns:xlink="http://www.w3.org/1999/xlink" xmlns:a="http://ns.adobe.com/AdobeSVGViewerExtensions/3.0/"
	 x="0px" y="0px" width="100%" height="100%" viewBox="0 0 24 24" enable-background="new 0 0 24 24" xml:space="preserve">
<defs>
</defs>
<circle fill="#FFFFFF" cx="12" cy="12" r="12"/>
<path fill="#4594d0" transform="rotate({angle}, 12, 12)" d="M12,0C5.3828125,0,0,5.3828125,0,12s5.3828125,12,12,12s12-5.3828125,12-12S18.6171875,0,12,0z
	 M18.3134766,12.9394531c-0.4335938,2.9140625-2.7861328,5.0742188-5.5830078,5.3974609
	c0.3261719,0.3798828,0.3125,0.9501953-0.046875,1.3095703C12.4951172,19.8359375,12.2470703,19.9296875,12,19.9296875
	c-0.2480469,0-0.4951172-0.09375-0.6835938-0.2832031l-2.3212891-2.3203125
	c-0.1923828-0.1923828-0.2949219-0.4570313-0.2822266-0.7285156c0.0117188-0.2705078,0.1376953-0.5244141,0.3466797-0.6982422
	l2.3212891-1.9345703c0.4101563-0.3427734,1.0205078-0.2861328,1.3623047,0.1240234s0.2861328,1.0205078-0.1240234,1.3613281
	l-0.2421875,0.2021484c1.6289063-0.1679688,3.0058594-1.4179688,3.2578125-3.1113281
	c0.1445313-0.9707031-0.0976563-1.9404297-0.6826172-2.7285156c-0.5839844-0.7890625-1.4404297-1.3027344-2.4111328-1.4472656
	c-0.9716797-0.1445313-1.9404297,0.0986328-2.7294922,0.6826172c-0.7880859,0.5839844-1.3017578,1.4404297-1.4462891,2.4111328
	c-0.0556641,0.3701172-0.0546875,0.7431641,0.0019531,1.1064453c0.1152344,0.7392578-0.390625,1.4316406-1.1298828,1.5458984
	c-0.7392578,0.1171875-1.4306641-0.390625-1.5458984-1.1298828c-0.0986328-0.6347656-0.0996094-1.2802734-0.0048828-1.9208984
	C5.9375,9.375,6.8300781,7.8867188,8.2001953,6.8720703s3.0517578-1.4355469,4.7392578-1.1855469
	C14.625,5.9375,16.1132813,6.8300781,17.1279297,8.2001953C18.1435547,9.5703125,18.5644531,11.2529297,18.3134766,12.9394531z"/>
<radialGradient gradientTransform="rotate({backgroundAngle}, 12, 12)" id="SVGID_1_" cx="12" cy="3.1728516" r="22.2501049" gradientUnits="userSpaceOnUse">
	<stop  offset="0.351515" style="stop-color:#FFFFFF;stop-opacity:0.4"/>
	<stop  offset="0.842424" style="stop-color:#FFFFFF;stop-opacity:0"/>
</radialGradient>
<path fill="url(#SVGID_1_)" d="M12,0C5.3828125,0,0,5.3828125,0,12s5.3828125,12,12,12s12-5.3828125,12-12S18.6171875,0,12,0z"/>
</svg>
