<?xml version="1.0" encoding="utf-8"?>
<!-- Generator: Adobe Illustrator 14.0.0, SVG Export Plug-In  -->
<!DOCTYPE svg PUBLIC "-//W3C//DTD SVG 1.1//EN" "http://www.w3.org/Graphics/SVG/1.1/DTD/svg11.dtd" [
	<!ENTITY ns_flows "http://ns.adobe.com/Flows/1.0/">
]>
<svg version="1.1"
	 xmlns="http://www.w3.org/2000/svg" xmlns:xlink="http://www.w3.org/1999/xlink" xmlns:a="http://ns.adobe.com/AdobeSVGViewerExtensions/3.0/"
	 x="0px" y="0px" width="100%" height="100%" viewBox="0 0 24 24" enable-background="new 0 0 24 24" xml:space="preserve">
<defs>
</defs>
<path fill="{color}" transform="rotate({angle}, 12, 12)" d="M12,24C5.3828125,24,0,18.6171875,0,12C0,5.3833008,5.3828125,0,12,0s12,5.3833008,12,12
	C24,18.6171875,18.6171875,24,12,24L12,24z M12,2.7080078c-5.1230469,0-9.2919922,4.1679688-9.2919922,9.2919922
	S6.8769531,21.2919922,12,21.2919922c5.1240234,0,9.2919922-4.1679688,9.2919922-9.2919922S17.1240234,2.7080078,12,2.7080078
	L12,2.7080078z M8.5097656,18.0205078c0.4179688,0,0.8232422-0.1943359,1.0839844-0.5410156l4.5253906-6.034668v5.222168
	c0,0.7480469,0.6064453,1.3535156,1.3535156,1.3535156c0.7480469,0,1.3544922-0.6054688,1.3544922-1.3535156V7.3828125
	c0-0.5820313-0.3730469-1.1000977-0.9257813-1.284668s-1.1611328,0.0053711-1.5117188,0.472168l-4.5253906,6.034668v-5.222168
	c0-0.7480469-0.6064453-1.3535156-1.3544922-1.3535156c-0.7470703,0-1.3535156,0.6054688-1.3535156,1.3535156v9.2841797
	c0,0.5820313,0.3730469,1.1005859,0.9257813,1.2841797C8.2226563,17.9980469,8.3671875,18.0214844,8.5097656,18.0205078
	L8.5097656,18.0205078z"/>
</svg>
