<?xml version="1.0" encoding="utf-8"?>
<!-- Generator: Adobe Illustrator 14.0.0, SVG Export Plug-In  -->
<!DOCTYPE svg PUBLIC "-//W3C//DTD SVG 1.1//EN" "http://www.w3.org/Graphics/SVG/1.1/DTD/svg11.dtd" [
	<!ENTITY ns_flows "http://ns.adobe.com/Flows/1.0/">
]>
<svg version="1.1"
	 xmlns="http://www.w3.org/2000/svg" xmlns:xlink="http://www.w3.org/1999/xlink" xmlns:a="http://ns.adobe.com/AdobeSVGViewerExtensions/3.0/"
	 x="0px" y="0px" width="100%" height="100%" viewBox="0 0 24 24" enable-background="new 0 0 24 24" xml:space="preserve">
<defs>
</defs>
<circle fill="#FFFFFF" cx="12" cy="12" r="12"/>
<path fill="{color}" transform="rotate({angle}, 12, 12)" d="M12,0C5.3828125,0,0,5.3828125,0,12s5.3828125,12,12,12s12-5.3828125,12-12S18.6171875,0,12,0z
	 M16.8271484,7.3828125v9.2841797c0,0.7470703-0.6064453,1.3535156-1.3535156,1.3535156
	c-0.7480469,0-1.3544922-0.6064453-1.3544922-1.3535156V8.6816406H9.8642578v7.9853516
	c0,0.7470703-0.6064453,1.3535156-1.3544922,1.3535156c-0.7470703,0-1.3535156-0.6064453-1.3535156-1.3535156V7.3828125
	c0-0.0087891,0.0029297-0.0175781,0.0029297-0.0273438S7.15625,7.3369141,7.15625,7.328125
	c0-0.7480469,0.6064453-1.3544922,1.3535156-1.3544922h6.9638672c0.7470703,0,1.3535156,0.6064453,1.3535156,1.3544922
	c0,0.0087891-0.0029297,0.0175781-0.0029297,0.0273438S16.8271484,7.3740234,16.8271484,7.3828125z"/>
<radialGradient gradientTransform="rotate({backgroundAngle}, 12, 12)" id="SVGID_1_" cx="12" cy="3.1728516" r="22.2501049" gradientUnits="userSpaceOnUse">
	<stop  offset="0.351515" style="stop-color:#FFFFFF;stop-opacity:0.4"/>
	<stop  offset="0.842424" style="stop-color:#FFFFFF;stop-opacity:0"/>
</radialGradient>
<path fill="url(#SVGID_1_)" d="M12,0C5.3828125,0,0,5.3828125,0,12s5.3828125,12,12,12s12-5.3828125,12-12S18.6171875,0,12,0z"/>
</svg>
