<?xml version="1.0" encoding="utf-8"?>
<!-- Generator: Adobe Illustrator 14.0.0, SVG Export Plug-In  -->
<!DOCTYPE svg PUBLIC "-//W3C//DTD SVG 1.1//EN" "http://www.w3.org/Graphics/SVG/1.1/DTD/svg11.dtd" [
	<!ENTITY ns_flows "http://ns.adobe.com/Flows/1.0/">
]>
<svg version="1.1"
	 xmlns="http://www.w3.org/2000/svg" xmlns:xlink="http://www.w3.org/1999/xlink" xmlns:a="http://ns.adobe.com/AdobeSVGViewerExtensions/3.0/"
	 x="0px" y="0px" width="100%" height="100%" viewBox="0 0 24 24" enable-background="new 0 0 24 24" xml:space="preserve">
<defs>
</defs>
<circle fill="#FFFFFF" cx="12" cy="12" r="12"/>
<path fill="{color}" transform="rotate({angle}, 12, 12)" d="M12,0C5.3828125,0,0,5.3833008,0,12c0,6.6171875,5.3828125,12,12,12s12-5.3828125,12-12
	C24,5.3833008,18.6171875,0,12,0z M16.8271484,16.6669922c0,0.7480469-0.6064453,1.3535156-1.3544922,1.3535156
	c-0.7470703,0-1.3535156-0.6054688-1.3535156-1.3535156v-5.222168L9.59375,17.4794922
	c-0.2607422,0.3466797-0.6660156,0.5410156-1.0839844,0.5410156c-0.1425781,0.0009766-0.2871094-0.0224609-0.4277344-0.0693359
	C7.5292969,17.7675781,7.15625,17.2490234,7.15625,16.6669922V7.3828125c0-0.7480469,0.6064453-1.3535156,1.3535156-1.3535156
	c0.7480469,0,1.3544922,0.6054688,1.3544922,1.3535156v5.222168l4.5253906-6.034668
	c0.3505859-0.4667969,0.9589844-0.6567383,1.5117188-0.472168s0.9257813,0.7026367,0.9257813,1.284668V16.6669922z"/>
<radialGradient gradientTransform="rotate({backgroundAngle}, 12, 12)" id="SVGID_1_" cx="12" cy="3.1728516" r="22.2501049" gradientUnits="userSpaceOnUse">
	<stop  offset="0.351515" style="stop-color:#FFFFFF;stop-opacity:0.4"/>
	<stop  offset="0.842424" style="stop-color:#FFFFFF;stop-opacity:0"/>
</radialGradient>
<path fill="url(#SVGID_1_)" d="M12,0C5.3828125,0,0,5.3828125,0,11.9995117C0,18.6171875,5.3828125,24,12,24
	s12-5.3828125,12-12.0004883C24,5.3828125,18.6171875,0,12,0z"/>
</svg>
