<?xml version="1.0" encoding="utf-8"?>
<!-- Generator: Adobe Illustrator 14.0.0, SVG Export Plug-In  -->
<!DOCTYPE svg PUBLIC "-//W3C//DTD SVG 1.1//EN" "http://www.w3.org/Graphics/SVG/1.1/DTD/svg11.dtd" [
	<!ENTITY ns_flows "http://ns.adobe.com/Flows/1.0/">
]>
<svg version="1.1"
	 xmlns="http://www.w3.org/2000/svg" xmlns:xlink="http://www.w3.org/1999/xlink" xmlns:a="http://ns.adobe.com/AdobeSVGViewerExtensions/3.0/"
	 x="0px" y="0px" width="100%" height="100%" viewBox="0 0 24 24" enable-background="new 0 0 24 24" xml:space="preserve">
<defs>
</defs>
<circle fill="#FFFFFF" cx="12" cy="12" r="12"/>
<path fill="{color}" transform="rotate({angle}, 12, 12)" d="M12,0C5.3828125,0,0,5.3828125,0,12s5.3828125,12,12,12s12-5.3828125,12-12S18.6171875,0,12,0z
	 M16.8359375,9.2910156c0,0.4042969-0.1816406,0.7890625-0.4931641,1.0458984L14.3232422,12l2.0195313,1.6621094
	c0.3115234,0.2568359,0.4931641,0.640625,0.4931641,1.0449219v2.7080078c0,0.7470703-0.6074219,1.3535156-1.3544922,1.3535156
	H8.9052734c-0.7480469,0-1.3544922-0.6064453-1.3544922-1.3535156v-2.7080078c0-0.4042969,0.1816406-0.7880859,0.4941406-1.0449219
	L10.0634766,12l-2.0185547-1.6630859c-0.3125-0.2568359-0.4941406-0.6416016-0.4941406-1.0458984V6.5839844
	c0-0.7480469,0.6064453-1.3535156,1.3544922-1.3535156h6.5761719c0.7470703,0,1.3544922,0.6054688,1.3544922,1.3535156V9.2910156z
	 M14.1279297,15.3466797v0.7148438h-3.8691406v-0.7148438l1.9345703-1.5927734L14.1279297,15.3466797z M10.2587891,8.6523438V7.9375
	h3.8691406v0.7148438l-1.9345703,1.5927734L10.2587891,8.6523438z"/>
<radialGradient gradientTransform="rotate({backgroundAngle}, 12, 12)" id="SVGID_1_" cx="12" cy="3.1728516" r="22.2501049" gradientUnits="userSpaceOnUse">
	<stop  offset="0.351515" style="stop-color:#FFFFFF;stop-opacity:0.4"/>
	<stop  offset="0.842424" style="stop-color:#FFFFFF;stop-opacity:0"/>
</radialGradient>
<path fill="url(#SVGID_1_)" d="M12,0C5.3828125,0,0,5.3828125,0,12s5.3828125,12,12,12s12-5.3828125,12-12S18.6171875,0,12,0z"/>
</svg>
