<?xml version="1.0" encoding="utf-8"?>
<!-- Generator: Adobe Illustrator 14.0.0, SVG Export Plug-In  -->
<!DOCTYPE svg PUBLIC "-//W3C//DTD SVG 1.1//EN" "http://www.w3.org/Graphics/SVG/1.1/DTD/svg11.dtd" [
	<!ENTITY ns_flows "http://ns.adobe.com/Flows/1.0/">
]>
<svg version="1.1"
	 xmlns="http://www.w3.org/2000/svg" xmlns:xlink="http://www.w3.org/1999/xlink" xmlns:a="http://ns.adobe.com/AdobeSVGViewerExtensions/3.0/"
	 x="0px" y="0px" width="100%" height="100%" viewBox="0 0 24 24" enable-background="new 0 0 24 24" xml:space="preserve">
<defs>
</defs>
<path fill="{color}" transform="rotate({angle}, 12, 12)" d="M12,0C5.3828125,0,0,5.3828125,0,12s5.3828125,12,12,12s12-5.3828125,12-12S18.6171875,0,12,0z
	 M12,21.2910156c-5.1230469,0-9.2919922-4.1669922-9.2919922-9.2910156S6.8769531,2.7070313,12,2.7070313
	c5.1240234,0,9.2919922,4.1689453,9.2919922,9.2929688S17.1240234,21.2910156,12,21.2910156z M15.4814453,5.2304688H8.9052734
	c-0.7480469,0-1.3544922,0.6054688-1.3544922,1.3535156v2.7070313c0,0.4042969,0.1816406,0.7890625,0.4941406,1.0458984
	L10.0634766,12l-2.0185547,1.6621094c-0.3125,0.2568359-0.4941406,0.640625-0.4941406,1.0449219v2.7080078
	c0,0.7470703,0.6064453,1.3535156,1.3544922,1.3535156h6.5761719c0.7470703,0,1.3544922-0.6064453,1.3544922-1.3535156v-2.7080078
	c0-0.4042969-0.1816406-0.7880859-0.4931641-1.0449219L14.3232422,12l2.0195313-1.6630859
	c0.3115234-0.2568359,0.4931641-0.6416016,0.4931641-1.0458984V6.5839844
	C16.8359375,5.8359375,16.2285156,5.2304688,15.4814453,5.2304688z M14.1279297,15.3466797v0.7148438h-3.8691406v-0.7148438
	l1.9345703-1.5927734L14.1279297,15.3466797z M10.2587891,8.6523438V7.9375h3.8691406v0.7148438l-1.9345703,1.5927734
	L10.2587891,8.6523438z"/>
</svg>
