<?xml version="1.0" encoding="utf-8"?>
<!-- Generator: Adobe Illustrator 14.0.0, SVG Export Plug-In  -->
<!DOCTYPE svg PUBLIC "-//W3C//DTD SVG 1.1//EN" "http://www.w3.org/Graphics/SVG/1.1/DTD/svg11.dtd" [
	<!ENTITY ns_flows "http://ns.adobe.com/Flows/1.0/">
]>
<svg version="1.1"
	 xmlns="http://www.w3.org/2000/svg" xmlns:xlink="http://www.w3.org/1999/xlink" xmlns:a="http://ns.adobe.com/AdobeSVGViewerExtensions/3.0/"
	 x="0px" y="0px" width="100%" height="100%" viewBox="0 0 24 24" enable-background="new 0 0 24 24" xml:space="preserve">
<defs>
</defs>
<circle fill="#FFFFFF" cx="12" cy="12" r="12"/>
<path fill="{color}" transform="rotate({angle}, 12, 12)" d="M12,0C5.3828125,0,0,5.3828125,0,12s5.3828125,12,12,12s12-5.3828125,12-12S18.6171875,0,12,0z
	 M13.9921875,14.5048828l1.5400391,3.0791016c0.3339844,0.6689453,0.0634766,1.4814453-0.6054688,1.8164063
	c-0.1943359,0.0966797-0.4013672,0.1435547-0.6044922,0.1435547c-0.4970703,0-0.9755859-0.2753906-1.2128906-0.7490234
	L12,16.5742188l-1.109375,2.2207031c-0.2373047,0.4736328-0.7158203,0.7490234-1.2128906,0.7490234
	c-0.203125,0-0.4101563-0.046875-0.6035156-0.1435547c-0.6689453-0.3349609-0.9404297-1.1474609-0.6064453-1.8164063
	l1.5400391-3.0791016c-1.8935547-0.7851563-3.2304688-2.6513672-3.2304688-4.8261719
	c0-2.8789063,2.34375-5.2216797,5.2226563-5.2216797s5.2226563,2.3427734,5.2226563,5.2216797
	C17.2226563,11.8535156,15.8857422,13.7197266,13.9921875,14.5048828z M12,12.1933594
	c-1.3867188,0-2.5146484-1.1279297-2.5146484-2.5146484c0-1.3857422,1.1279297-2.5136719,2.5146484-2.5136719
	s2.5146484,1.1279297,2.5146484,2.5136719C14.5146484,11.0654297,13.3867188,12.1933594,12,12.1933594z"/>
<radialGradient gradientTransform="rotate({backgroundAngle}, 12, 12)" id="SVGID_1_" cx="12" cy="3.1728516" r="22.2501049" gradientUnits="userSpaceOnUse">
	<stop  offset="0.351515" style="stop-color:#FFFFFF;stop-opacity:0.4"/>
	<stop  offset="0.842424" style="stop-color:#FFFFFF;stop-opacity:0"/>
</radialGradient>
<path fill="url(#SVGID_1_)" d="M12,0C5.3828125,0,0,5.3828125,0,12s5.3828125,12,12,12s12-5.3828125,12-12S18.6171875,0,12,0z"/>
</svg>
