<?xml version="1.0" encoding="utf-8"?>
<!-- Generator: Adobe Illustrator 14.0.0, SVG Export Plug-In  -->
<!DOCTYPE svg PUBLIC "-//W3C//DTD SVG 1.1//EN" "http://www.w3.org/Graphics/SVG/1.1/DTD/svg11.dtd" [
	<!ENTITY ns_flows "http://ns.adobe.com/Flows/1.0/">
]>
<svg version="1.1"
	 xmlns="http://www.w3.org/2000/svg" xmlns:xlink="http://www.w3.org/1999/xlink" xmlns:a="http://ns.adobe.com/AdobeSVGViewerExtensions/3.0/"
	 x="0px" y="0px" width="100%" height="100%" viewBox="0 0 24 24" enable-background="new 0 0 24 24" xml:space="preserve">
<defs>
</defs>
<path fill="{color}" transform="rotate({angle}, 12, 12)" d="M12,0C5.3828125,0,0,5.3828125,0,12s5.3828125,12,12,12s12-5.3828125,12-12S18.6171875,0,12,0z
	 M12,21.2929688c-5.1240234,0-9.2919922-4.1689453-9.2919922-9.2929688S6.8759766,2.7080078,12,2.7080078
	S21.2919922,6.8759766,21.2919922,12S17.1240234,21.2929688,12,21.2929688z M12,4.4570313
	c-2.8789063,0-5.2226563,2.3427734-5.2226563,5.2216797c0,2.1748047,1.3369141,4.0410156,3.2304688,4.8261719l-1.5400391,3.0791016
	c-0.3339844,0.6689453-0.0625,1.4814453,0.6064453,1.8164063c0.1933594,0.0966797,0.4003906,0.1435547,0.6035156,0.1435547
	c0.4970703,0,0.9755859-0.2753906,1.2128906-0.7490234L12,16.5742188l1.109375,2.2207031
	c0.2373047,0.4736328,0.7158203,0.7490234,1.2128906,0.7490234c0.203125,0,0.4101563-0.046875,0.6044922-0.1435547
	c0.6689453-0.3349609,0.9394531-1.1474609,0.6054688-1.8164063l-1.5400391-3.0791016
	c1.8935547-0.7851563,3.2304688-2.6513672,3.2304688-4.8261719C17.2226563,6.7998047,14.8789063,4.4570313,12,4.4570313z
	 M12,12.1933594c-1.3867188,0-2.5146484-1.1279297-2.5146484-2.5146484c0-1.3857422,1.1279297-2.5136719,2.5146484-2.5136719
	s2.5146484,1.1279297,2.5146484,2.5136719C14.5146484,11.0654297,13.3867188,12.1933594,12,12.1933594z"/>
</svg>
