<?xml version="1.0" encoding="utf-8"?>
<!-- Generator: Adobe Illustrator 14.0.0, SVG Export Plug-In  -->
<!DOCTYPE svg PUBLIC "-//W3C//DTD SVG 1.1//EN" "http://www.w3.org/Graphics/SVG/1.1/DTD/svg11.dtd" [
	<!ENTITY ns_flows "http://ns.adobe.com/Flows/1.0/">
]>
<svg version="1.1"
	 xmlns="http://www.w3.org/2000/svg" xmlns:xlink="http://www.w3.org/1999/xlink" xmlns:a="http://ns.adobe.com/AdobeSVGViewerExtensions/3.0/"
	 x="0px" y="0px" width="100%" height="100%" viewBox="0 0 24 24" enable-background="new 0 0 24 24" xml:space="preserve">
<defs>
</defs>
<path fill="{color}" transform="rotate({angle}, 12, 12)" d="M24,12c0,6.6171875-5.3828125,12-12,12S0,18.6171875,0,12C0,5.3833008,5.3828125,0,12,0S24,5.3833008,24,12
	L24,12z M2.7080078,12c0,5.1230469,4.1689453,9.2919922,9.2919922,9.2919922S21.2919922,17.1230469,21.2919922,12
	S17.1230469,2.7080078,12,2.7080078S2.7080078,6.8769531,2.7080078,12L2.7080078,12z M18.7695313,10.4521484
	c0-0.3461914-0.1318359-0.6923828-0.3964844-0.9560547c-0.5292969-0.5297852-1.3857422-0.5297852-1.9150391,0L12,13.953125
	L7.5419922,9.4960938c-0.5292969-0.5297852-1.3857422-0.5297852-1.9150391,0c-0.5283203,0.527832-0.5283203,1.3857422,0,1.9135742
	l5.4160156,5.4165039c0.5283203,0.5273438,1.3857422,0.5273438,1.9140625,0l5.4160156-5.4165039
	C18.6376953,11.1455078,18.7695313,10.7988281,18.7695313,10.4521484L18.7695313,10.4521484z"/>
</svg>
