<?xml version="1.0" encoding="utf-8"?>
<!-- Generator: Adobe Illustrator 14.0.0, SVG Export Plug-In  -->
<!DOCTYPE svg PUBLIC "-//W3C//DTD SVG 1.1//EN" "http://www.w3.org/Graphics/SVG/1.1/DTD/svg11.dtd" [
	<!ENTITY ns_flows "http://ns.adobe.com/Flows/1.0/">
]>
<svg version="1.1"
	 xmlns="http://www.w3.org/2000/svg" xmlns:xlink="http://www.w3.org/1999/xlink" xmlns:a="http://ns.adobe.com/AdobeSVGViewerExtensions/3.0/"
	 x="0px" y="0px" width="100%" height="100%" viewBox="0 0 24 24" enable-background="new 0 0 24 24" xml:space="preserve">
<defs>
</defs>
<path fill="{color}" transform="rotate({angle}, 12, 12)" d="M12,24C5.3828125,24,0,18.6171875,0,12C0,5.3833008,5.3828125,0,12,0s12,5.3833008,12,12
	C24,18.6171875,18.6171875,24,12,24L12,24z M12,2.7080078c-5.1230469,0-9.2919922,4.1679688-9.2919922,9.2919922
	S6.8769531,21.2919922,12,21.2919922S21.2919922,17.1240234,21.2919922,12S17.1230469,2.7080078,12,2.7080078L12,2.7080078z
	 M16.6425781,18.0039063H7.3574219c-0.7470703,0-1.3535156-0.6054688-1.3535156-1.3535156V7.3666992
	c0-0.7485352,0.6064453-1.3540039,1.3535156-1.3540039h9.2851563c0.7470703,0,1.3535156,0.6054688,1.3535156,1.3540039v9.2836914
	C17.9960938,17.3984375,17.3896484,18.0039063,16.6425781,18.0039063L16.6425781,18.0039063z M8.7119141,15.296875h6.5761719
	V8.7202148H8.7119141V15.296875L8.7119141,15.296875z"/>
</svg>
