<?xml version="1.0" encoding="utf-8"?>
<!-- Generator: Adobe Illustrator 14.0.0, SVG Export Plug-In  -->
<!DOCTYPE svg PUBLIC "-//W3C//DTD SVG 1.1//EN" "http://www.w3.org/Graphics/SVG/1.1/DTD/svg11.dtd" [
	<!ENTITY ns_flows "http://ns.adobe.com/Flows/1.0/">
]>
<svg version="1.1"
	 xmlns="http://www.w3.org/2000/svg" xmlns:xlink="http://www.w3.org/1999/xlink" xmlns:a="http://ns.adobe.com/AdobeSVGViewerExtensions/3.0/"
	 x="0px" y="0px" width="100%" height="100%" viewBox="0 0 24 24" enable-background="new 0 0 24 24" xml:space="preserve">
<defs>
</defs>
<path fill="{color}" transform="rotate({angle}, 12, 12)" d="M12,0C5.3828125,0,0,5.3833008,0,12c0,6.6171875,5.3828125,12,12,12s12-5.3828125,12-12
	C24,5.3833008,18.6171875,0,12,0z M12,21.2919922c-5.1230469,0-9.2919922-4.1679688-9.2919922-9.2919922
	S6.8769531,2.7080078,12,2.7080078c5.1240234,0,9.2919922,4.1679688,9.2919922,9.2919922S17.1240234,21.2919922,12,21.2919922z
	 M17.9960938,7.3579102V12c0,0.7480469-0.6064453,1.3535156-1.3535156,1.3535156
	c-0.7480469,0-1.3544922-0.6054688-1.3544922-1.3535156v-1.4511719l-3.1435547,3.1425781
	c-0.2636719,0.2646484-0.6103516,0.3974609-0.9570313,0.3974609c-0.3457031,0-0.6923828-0.1328125-0.9570313-0.3974609
	c-0.5292969-0.5273438-0.5292969-1.3852539,0-1.9140625l3.0654297-3.065918H12.078125
	c-0.7480469,0-1.3535156-0.605957-1.3535156-1.3535156s0.6054688-1.3535156,1.3535156-1.3535156l0,0h4.5644531
	C17.3896484,6.0043945,17.9960938,6.6108398,17.9960938,7.3579102z M15.6748047,14.3212891v2.3212891
	c0,0.7460938-0.6064453,1.3535156-1.3544922,1.3535156H7.3583984c-0.7480469,0-1.3544922-0.6074219-1.3544922-1.3535156V9.6787109
	c0-0.7475586,0.6064453-1.3540039,1.3544922-1.3540039h2.3212891c0.7480469,0,1.3535156,0.6064453,1.3535156,1.3540039
	c0,0.7480469-0.6054688,1.3544922-1.3535156,1.3544922H8.7119141v4.2548828h4.2548828v-0.9667969
	c0-0.7480469,0.6064453-1.3544922,1.3535156-1.3544922C15.0683594,12.9667969,15.6748047,13.5732422,15.6748047,14.3212891z"/>
</svg>
