<?xml version="1.0" encoding="utf-8"?>
<!-- Generator: Adobe Illustrator 14.0.0, SVG Export Plug-In  -->
<!DOCTYPE svg PUBLIC "-//W3C//DTD SVG 1.1//EN" "http://www.w3.org/Graphics/SVG/1.1/DTD/svg11.dtd" [
	<!ENTITY ns_flows "http://ns.adobe.com/Flows/1.0/">
]>
<svg version="1.1"
	 xmlns="http://www.w3.org/2000/svg" xmlns:xlink="http://www.w3.org/1999/xlink" xmlns:a="http://ns.adobe.com/AdobeSVGViewerExtensions/3.0/"
	 x="0px" y="0px" width="100%" height="100%" viewBox="0 0 24 24" enable-background="new 0 0 24 24" xml:space="preserve">
<defs>
</defs>
<circle fill="#FFFFFF" cx="12" cy="12" r="12"/>
<path fill="{color}" transform="rotate({angle}, 12, 12)" d="M12,0C5.3828125,0,0,5.3833008,0,12c0,6.6171875,5.3828125,12,12,12s12-5.3828125,12-12
	C24,5.3833008,18.6171875,0,12,0z M15.6748047,16.6425781c0,0.7460938-0.6064453,1.3535156-1.3544922,1.3535156H7.3583984
	c-0.7480469,0-1.3544922-0.6074219-1.3544922-1.3535156V9.6787109c0-0.7475586,0.6064453-1.3540039,1.3544922-1.3540039h2.3212891
	c0.7480469,0,1.3535156,0.6064453,1.3535156,1.3540039c0,0.7480469-0.6054688,1.3544922-1.3535156,1.3544922H8.7119141v4.2548828
	h4.2548828v-0.9667969c0-0.7480469,0.6064453-1.3544922,1.3535156-1.3544922c0.7480469,0,1.3544922,0.6064453,1.3544922,1.3544922
	V16.6425781z M17.9960938,12c0,0.7480469-0.6064453,1.3535156-1.3535156,1.3535156
	c-0.7480469,0-1.3544922-0.6054688-1.3544922-1.3535156v-1.4511719l-3.1435547,3.1425781
	c-0.2636719,0.2646484-0.6103516,0.3974609-0.9570313,0.3974609c-0.3457031,0-0.6923828-0.1328125-0.9570313-0.3974609
	c-0.5292969-0.5273438-0.5292969-1.3852539,0-1.9140625l3.0654297-3.065918H12.078125
	c-0.7480469,0-1.3535156-0.605957-1.3535156-1.3535156s0.6054688-1.3535156,1.3535156-1.3535156h4.5644531
	c0.7470703,0,1.3535156,0.6064453,1.3535156,1.3535156V12z"/>
<radialGradient gradientTransform="rotate({backgroundAngle}, 12, 12)" id="SVGID_1_" cx="12" cy="3.1728516" r="22.2501049" gradientUnits="userSpaceOnUse">
	<stop  offset="0.351515" style="stop-color:#FFFFFF;stop-opacity:0.4"/>
	<stop  offset="0.842424" style="stop-color:#FFFFFF;stop-opacity:0"/>
</radialGradient>
<path fill="url(#SVGID_1_)" d="M12,0C5.3828125,0,0,5.3828125,0,11.9995117C0,18.6171875,5.3828125,24,12,24
	s12-5.3828125,12-12.0004883C24,5.3828125,18.6171875,0,12,0z"/>
</svg>
