<?xml version="1.0" encoding="utf-8"?>
<!-- Generator: Adobe Illustrator 14.0.0, SVG Export Plug-In  -->
<!DOCTYPE svg PUBLIC "-//W3C//DTD SVG 1.1//EN" "http://www.w3.org/Graphics/SVG/1.1/DTD/svg11.dtd" [
	<!ENTITY ns_flows "http://ns.adobe.com/Flows/1.0/">
]>
<svg version="1.1"
	 xmlns="http://www.w3.org/2000/svg" xmlns:xlink="http://www.w3.org/1999/xlink" xmlns:a="http://ns.adobe.com/AdobeSVGViewerExtensions/3.0/"
	 x="0px" y="0px" width="100%" height="100%" viewBox="0 0 24 24" enable-background="new 0 0 24 24" xml:space="preserve">
<defs>
</defs>
<circle fill="#FFFFFF" cx="12" cy="12" r="12"/>
<path fill="{color}" transform="rotate({angle}, 12, 12)" d="M12,0C5.3828125,0,0,5.3828125,0,12s5.3828125,12,12,12s12-5.3828125,12-12S18.6171875,0,12,0z
	 M18.7421875,10.953125l-2.5292969,2.4648438l0.5976563,3.4804688c0.0742188,0.4355469-0.1054688,0.8759766-0.4628906,1.1347656
	c-0.2011719,0.1484375-0.4414063,0.2226563-0.6816406,0.2226563c-0.1855469,0-0.3691406-0.0449219-0.5390625-0.1328125
	L12,16.4785156l-3.1269531,1.6445313c-0.390625,0.2050781-0.8632813,0.1699219-1.2207031-0.0898438
	c-0.3574219-0.2587891-0.5371094-0.6992188-0.4628906-1.1347656l0.5976563-3.4804688L5.2578125,10.953125
	c-0.3164063-0.3085938-0.4296875-0.7695313-0.2929688-1.1904297c0.1367188-0.4199219,0.5-0.7255859,0.9355469-0.7900391
	l3.4960938-0.5078125l1.5625-3.1679688C11.15625,4.9023438,11.5585938,4.6503906,12,4.6503906
	s0.8457031,0.2519531,1.0410156,0.6464844l1.5625,3.1679688l3.4960938,0.5078125
	c0.4375,0.0644531,0.7988281,0.3701172,0.9375,0.7900391C19.171875,10.1835938,19.0585938,10.6445313,18.7421875,10.953125z
	 M12,14.0078125c0.1855469,0,0.3710938,0.0439453,0.5390625,0.1328125L14.125,14.9746094l-0.3027344-1.765625
	c-0.0644531-0.3769531,0.0605469-0.7607422,0.3339844-1.0273438l1.2832031-1.25l-1.7734375-0.2578125
	c-0.3769531-0.0546875-0.703125-0.2929688-0.8730469-0.6347656L12,8.4335938l-0.7929688,1.6054688
	c-0.1679688,0.3417969-0.4960938,0.5800781-0.8730469,0.6347656L8.5625,10.9316406l1.28125,1.25
	c0.2734375,0.2666016,0.3984375,0.6503906,0.3339844,1.0273438L9.875,14.9746094l1.5859375-0.8339844
	C11.6289063,14.0517578,11.8144531,14.0078125,12,14.0078125L12,14.0078125z"/>
<radialGradient gradientTransform="rotate({backgroundAngle}, 12, 12)" id="SVGID_1_" cx="12" cy="3.1728516" r="22.2501049" gradientUnits="userSpaceOnUse">
	<stop  offset="0.351515" style="stop-color:#FFFFFF;stop-opacity:0.4"/>
	<stop  offset="0.842424" style="stop-color:#FFFFFF;stop-opacity:0"/>
</radialGradient>
<path fill="url(#SVGID_1_)" d="M12,0C5.3828125,0,0,5.3828125,0,12s5.3828125,12,12,12s12-5.3828125,12-12S18.6171875,0,12,0z"/>
</svg>
