<?xml version="1.0" encoding="utf-8"?>
<!-- Generator: Adobe Illustrator 14.0.0, SVG Export Plug-In  -->
<!DOCTYPE svg PUBLIC "-//W3C//DTD SVG 1.1//EN" "http://www.w3.org/Graphics/SVG/1.1/DTD/svg11.dtd" [
	<!ENTITY ns_flows "http://ns.adobe.com/Flows/1.0/">
]>
<svg version="1.1"
	 xmlns="http://www.w3.org/2000/svg" xmlns:xlink="http://www.w3.org/1999/xlink" xmlns:a="http://ns.adobe.com/AdobeSVGViewerExtensions/3.0/"
	 x="0px" y="0px" width="100%" height="100%" viewBox="0 0 24 24" enable-background="new 0 0 24 24" xml:space="preserve">
<defs>
</defs>
<path fill="{color}" transform="rotate({angle}, 12, 12)" d="M12,0C5.3828125,0,0,5.3828125,0,12c0,6.6162109,5.3828125,12,12,12s12-5.3837891,12-12
	C24,5.3828125,18.6171875,0,12,0z M12,21.2919922c-5.1230469,0-9.2919922-4.1689453-9.2919922-9.2919922
	S6.8769531,2.7080078,12,2.7080078S21.2919922,6.8769531,21.2919922,12S17.1230469,21.2919922,12,21.2919922z M16.6416016,8
	h-3.2871094V6.1972656C13.3544922,5.4501953,12.7480469,4.84375,12,4.84375s-1.3544922,0.6064453-1.3544922,1.3535156V8H7.3583984
	C6.6103516,8,6.0039063,8.6064453,6.0039063,9.3535156v7.2880859c0,0.7480469,0.6064453,1.3535156,1.3544922,1.3535156
	c0.0664063,0,0.3193359,0,0.3867188,0h8.5097656c0.0673828,0,0.3203125,0,0.3867188,0
	c0.7480469,0,1.3544922-0.6054688,1.3544922-1.3535156V9.3535156C17.9960938,8.6064453,17.3896484,8,16.6416016,8z M12,12.0615234
	c0.7480469,0,1.3544922-0.6064453,1.3544922-1.3544922h1.9335938v4.5810547H8.7119141v-4.5810547h1.9335938
	C10.6455078,11.4550781,11.2519531,12.0615234,12,12.0615234z"/>
</svg>
