<?xml version="1.0" encoding="utf-8"?>
<!-- Generator: Adobe Illustrator 14.0.0, SVG Export Plug-In  -->
<!DOCTYPE svg PUBLIC "-//W3C//DTD SVG 1.1//EN" "http://www.w3.org/Graphics/SVG/1.1/DTD/svg11.dtd" [
	<!ENTITY ns_flows "http://ns.adobe.com/Flows/1.0/">
]>
<svg version="1.1"
	 xmlns="http://www.w3.org/2000/svg" xmlns:xlink="http://www.w3.org/1999/xlink" xmlns:a="http://ns.adobe.com/AdobeSVGViewerExtensions/3.0/"
	 x="0px" y="0px" width="100%" height="100%" viewBox="0 0 24 24" enable-background="new 0 0 24 24" xml:space="preserve">
<defs>
</defs>
<circle fill="#FFFFFF" cx="12" cy="12" r="12"/>
<path fill="{color}" transform="rotate({angle}, 12, 12)" d="M12,12.0615234c-0.7480469,0-1.3544922-0.6064453-1.3544922-1.3544922H8.7119141v4.5810547h6.5761719
	v-4.5810547h-1.9335938C13.3544922,11.4550781,12.7480469,12.0615234,12,12.0615234z"/>
<path fill="{color}" transform="rotate({angle}, 12, 12)" d="M12,0C5.3828125,0,0,5.3828125,0,12s5.3828125,12,12,12s12-5.3828125,12-12S18.6171875,0,12,0z
	 M17.9960938,16.6416016c0,0.7480469-0.6064453,1.3535156-1.3544922,1.3535156c-0.0664063,0-0.3193359,0-0.3867188,0H7.7451172
	c-0.0673828,0-0.3203125,0-0.3867188,0c-0.7480469,0-1.3544922-0.6054688-1.3544922-1.3535156V9.3535156
	C6.0039063,8.6064453,6.6103516,8,7.3583984,8h3.2871094V6.1972656C10.6455078,5.4501953,11.2519531,4.84375,12,4.84375
	s1.3544922,0.6064453,1.3544922,1.3535156V8h3.2871094c0.7480469,0,1.3544922,0.6064453,1.3544922,1.3535156V16.6416016z"/>
<radialGradient gradientTransform="rotate({backgroundAngle}, 12, 12)" id="SVGID_1_" cx="12" cy="3.1728516" r="22.2501049" gradientUnits="userSpaceOnUse">
	<stop  offset="0.351515" style="stop-color:#FFFFFF;stop-opacity:0.4"/>
	<stop  offset="0.842424" style="stop-color:#FFFFFF;stop-opacity:0"/>
</radialGradient>
<path fill="url(#SVGID_1_)" d="M12,0C5.3828125,0,0,5.3828125,0,12s5.3828125,12,12,12s12-5.3828125,12-12S18.6171875,0,12,0z"/>
</svg>
