<?xml version="1.0" encoding="utf-8"?>
<!-- Generator: Adobe Illustrator 16.0.3, SVG Export Plug-In . SVG Version: 6.00 Build 0)  -->
<!DOCTYPE svg PUBLIC "-//W3C//DTD SVG 1.1//EN" "http://www.w3.org/Graphics/SVG/1.1/DTD/svg11.dtd">
<svg version="1.1" id="Layer_1" xmlns="http://www.w3.org/2000/svg" xmlns:xlink="http://www.w3.org/1999/xlink" x="0px" y="0px"
	 width="100%" height="100%" viewBox="0 0 16 16" enable-background="new 0 0 16 16" xml:space="preserve">
<path fill="{color}" d="M0,1.5C0,0.672,0.672,0,1.5,0h11C13.328,0,14,0.672,14,1.5S13.328,3,12.5,3h-11C0.672,3,0,2.328,0,1.5z
	 M1.5,8h11C13.328,8,14,7.328,14,6.5S13.328,5,12.5,5h-11C0.672,5,0,5.672,0,6.5S0.672,8,1.5,8z M1.5,13h11
	c0.828,0,1.5-0.672,1.5-1.5S13.328,10,12.5,10h-11C0.672,10,0,10.672,0,11.5S0.672,13,1.5,13z"/>
</svg>
