<?xml version="1.0" encoding="utf-8"?>
<!-- Generator: Adobe Illustrator 14.0.0, SVG Export Plug-In  -->
<!DOCTYPE svg PUBLIC "-//W3C//DTD SVG 1.1//EN" "http://www.w3.org/Graphics/SVG/1.1/DTD/svg11.dtd" [
	<!ENTITY ns_flows "http://ns.adobe.com/Flows/1.0/">
]>
<svg version="1.1"
	 xmlns="http://www.w3.org/2000/svg" xmlns:xlink="http://www.w3.org/1999/xlink" xmlns:a="http://ns.adobe.com/AdobeSVGViewerExtensions/3.0/"
	 x="0px" y="0px" width="100%" height="100%" viewBox="0 0 24 24" enable-background="new 0 0 24 24" xml:space="preserve">
<defs>
</defs>
<circle fill="#FFFFFF" cx="12" cy="12" r="12"/>
<path fill="{color}" transform="rotate({angle}, 12, 12)" d="M12,0C5.3828125,0,0,5.3833008,0,12c0,6.6162109,5.3828125,12,12,12s12-5.3837891,12-12
	C24,5.3833008,18.6171875,0,12,0z M16.6425781,17.2216797H7.3574219c-0.7470703,0-1.3535156-0.6064453-1.3535156-1.3525391
	c0-0.7490234,0.6064453-1.3544922,1.3535156-1.3544922h9.2851563c0.7470703,0,1.3535156,0.6054688,1.3535156,1.3544922
	C17.9960938,16.6152344,17.3896484,17.2216797,16.6425781,17.2216797z M16.6425781,13.3535156H7.3574219
	c-0.7470703,0-1.3535156-0.6054688-1.3535156-1.3535156s0.6064453-1.3544922,1.3535156-1.3544922h9.2851563
	c0.7470703,0,1.3535156,0.6064453,1.3535156,1.3544922S17.3896484,13.3535156,16.6425781,13.3535156z M16.6425781,9.4853516
	H7.3574219c-0.7470703,0-1.3535156-0.6064453-1.3535156-1.3540039c0-0.7470703,0.6064453-1.3535156,1.3535156-1.3535156h9.2851563
	c0.7470703,0,1.3535156,0.6064453,1.3535156,1.3535156C17.9960938,8.8789063,17.3896484,9.4853516,16.6425781,9.4853516z"/>
<radialGradient gradientTransform="rotate({backgroundAngle}, 12, 12)" id="SVGID_1_" cx="12" cy="3.1728516" r="22.2501049" gradientUnits="userSpaceOnUse">
	<stop  offset="0.351515" style="stop-color:#FFFFFF;stop-opacity:0.4"/>
	<stop  offset="0.842424" style="stop-color:#FFFFFF;stop-opacity:0"/>
</radialGradient>
<path fill="url(#SVGID_1_)" d="M12,0C5.3828125,0,0,5.3828125,0,11.9995117C0,18.6171875,5.3828125,24,12,24
	s12-5.3828125,12-12.0004883C24,5.3828125,18.6171875,0,12,0z"/>
</svg>
