<?xml version="1.0" encoding="utf-8"?>
<!-- Generator: Adobe Illustrator 16.0.3, SVG Export Plug-In . SVG Version: 6.00 Build 0)  -->
<!DOCTYPE svg PUBLIC "-//W3C//DTD SVG 1.1//EN" "http://www.w3.org/Graphics/SVG/1.1/DTD/svg11.dtd">
<svg version="1.1" id="Layer_1" xmlns="http://www.w3.org/2000/svg" xmlns:xlink="http://www.w3.org/1999/xlink" x="0px" y="0px"
	 width="100%" height="100%" viewBox="0 0 16 16" enable-background="new 0 0 16 16" xml:space="preserve">
<path fill="{color}" d="M5,11.5C5,10.672,5.672,10,6.5,10h6c0.828,0,1.5,0.672,1.5,1.5S13.328,13,12.5,13h-6
	C5.672,13,5,12.328,5,11.5z M1.5,10C0.672,10,0,10.672,0,11.5S0.672,13,1.5,13S3,12.328,3,11.5S2.328,10,1.5,10z M6.5,8h6
	C13.328,8,14,7.328,14,6.5S13.328,5,12.5,5h-6C5.672,5,5,5.672,5,6.5S5.672,8,6.5,8z M1.5,5C0.672,5,0,5.672,0,6.5S0.672,8,1.5,8
	S3,7.328,3,6.5S2.328,5,1.5,5z M6.5,3h6C13.328,3,14,2.328,14,1.5S13.328,0,12.5,0h-6C5.672,0,5,0.672,5,1.5S5.672,3,6.5,3z M1.5,0
	C0.672,0,0,0.672,0,1.5S0.672,3,1.5,3S3,2.328,3,1.5S2.328,0,1.5,0z"/>
</svg>
