<?xml version="1.0" encoding="utf-8"?>
<!-- Generator: Adobe Illustrator 14.0.0, SVG Export Plug-In  -->
<!DOCTYPE svg PUBLIC "-//W3C//DTD SVG 1.1//EN" "http://www.w3.org/Graphics/SVG/1.1/DTD/svg11.dtd" [
	<!ENTITY ns_flows "http://ns.adobe.com/Flows/1.0/">
]>
<svg version="1.1"
	 xmlns="http://www.w3.org/2000/svg" xmlns:xlink="http://www.w3.org/1999/xlink" xmlns:a="http://ns.adobe.com/AdobeSVGViewerExtensions/3.0/"
	 x="0px" y="0px" width="100%" height="100%" viewBox="0 0 24 24" enable-background="new 0 0 24 24" xml:space="preserve">
<defs>
</defs>
<path fill="{color}" transform="rotate({angle}, 12, 12)" d="M12,0C5.3828125,0,0,5.3833008,0,12c0,6.6171875,5.3828125,12,12,12s12-5.3828125,12-12
	C24,5.3833008,18.6171875,0,12,0z M12,21.2919922c-5.1240234,0-9.2919922-4.1679688-9.2919922-9.2919922
	S6.8759766,2.7080078,12,2.7080078c5.1230469,0,9.2919922,4.1679688,9.2919922,9.2919922S17.1230469,21.2919922,12,21.2919922z
	 M17.9960938,15.8691406c0,0.7460938-0.6064453,1.3535156-1.3535156,1.3535156H7.3574219
	c-0.7470703,0-1.3535156-0.6074219-1.3535156-1.3535156c0-0.7490234,0.6064453-1.3544922,1.3535156-1.3544922h9.2851563
	C17.3896484,14.5146484,17.9960938,15.1201172,17.9960938,15.8691406z M17.9960938,8.1313477
	c0,0.7475586-0.6064453,1.3540039-1.3535156,1.3540039H7.3574219c-0.7470703,0-1.3535156-0.6064453-1.3535156-1.3540039
	c0-0.7470703,0.6064453-1.3535156,1.3535156-1.3535156h9.2851563C17.3896484,6.777832,17.9960938,7.3842773,17.9960938,8.1313477z
	 M17.9960938,12c0,0.7480469-0.6064453,1.3535156-1.3535156,1.3535156H7.3574219
	c-0.7470703,0-1.3535156-0.6054688-1.3535156-1.3535156s0.6064453-1.3544922,1.3535156-1.3544922h9.2851563
	C17.3896484,10.6455078,17.9960938,11.2519531,17.9960938,12z"/>
</svg>
