<?xml version="1.0" encoding="utf-8"?>
<!-- Generator: Adobe Illustrator 14.0.0, SVG Export Plug-In  -->
<!DOCTYPE svg PUBLIC "-//W3C//DTD SVG 1.1//EN" "http://www.w3.org/Graphics/SVG/1.1/DTD/svg11.dtd" [
	<!ENTITY ns_flows "http://ns.adobe.com/Flows/1.0/">
]>
<svg version="1.1"
	 xmlns="http://www.w3.org/2000/svg" xmlns:xlink="http://www.w3.org/1999/xlink" xmlns:a="http://ns.adobe.com/AdobeSVGViewerExtensions/3.0/"
	 x="0px" y="0px" width="100%" height="100%" viewBox="0 0 24 24" enable-background="new 0 0 24 24" xml:space="preserve">
<defs>
</defs>
<path fill="{color}" transform="rotate({angle}, 12, 12)" d="M12,0C5.3828125,0,0,5.3833008,0,12c0,6.6171875,5.3828125,12,12,12s12-5.3828125,12-12
	C24,5.3833008,18.6171875,0,12,0z M12,21.2919922c-5.1230469,0-9.2919922-4.1679688-9.2919922-9.2919922
	S6.8769531,2.7080078,12,2.7080078S21.2919922,6.8759766,21.2919922,12S17.1230469,21.2919922,12,21.2919922z M8.7890625,15.8691406
	c0,0.7460938-0.6054688,1.3535156-1.3535156,1.3535156H7.3583984c-0.7480469,0-1.3544922-0.6074219-1.3544922-1.3535156
	c0-0.7490234,0.6064453-1.3544922,1.3544922-1.3544922h0.0771484C8.1835938,14.5146484,8.7890625,15.1201172,8.7890625,15.8691406z
	 M8.7890625,8.1313477c0,0.7485352-0.6054688,1.3540039-1.3535156,1.3540039H7.3583984
	c-0.7480469,0-1.3544922-0.6054688-1.3544922-1.3540039c0-0.7470703,0.6064453-1.3535156,1.3544922-1.3535156h0.0771484
	C8.1835938,6.777832,8.7890625,7.3842773,8.7890625,8.1313477z M8.7890625,12c0,0.7480469-0.6054688,1.3544922-1.3535156,1.3544922
	H7.3583984c-0.7480469,0-1.3544922-0.6064453-1.3544922-1.3544922s0.6064453-1.3544922,1.3544922-1.3544922h0.0771484
	C8.1835938,10.6455078,8.7890625,11.2519531,8.7890625,12z M17.9960938,15.8691406
	c0,0.7460938-0.6064453,1.3535156-1.3535156,1.3535156h-5.4160156c-0.7480469,0-1.3544922-0.6074219-1.3544922-1.3535156
	c0-0.7490234,0.6064453-1.3544922,1.3544922-1.3544922h5.4160156
	C17.3896484,14.5146484,17.9960938,15.1201172,17.9960938,15.8691406z M17.9960938,8.1313477
	c0,0.7485352-0.6064453,1.3540039-1.3535156,1.3540039h-5.4160156c-0.7480469,0-1.3544922-0.6054688-1.3544922-1.3540039
	c0-0.7470703,0.6064453-1.3535156,1.3544922-1.3535156h5.4160156C17.3896484,6.777832,17.9960938,7.3842773,17.9960938,8.1313477z
	 M17.9960938,12c0,0.7480469-0.6064453,1.3544922-1.3535156,1.3544922h-5.4160156
	c-0.7480469,0-1.3544922-0.6064453-1.3544922-1.3544922s0.6064453-1.3544922,1.3544922-1.3544922h5.4160156
	C17.3896484,10.6455078,17.9960938,11.2519531,17.9960938,12z"/>
</svg>
