<?xml version="1.0" encoding="utf-8"?>
<!-- Generator: Adobe Illustrator 14.0.0, SVG Export Plug-In  -->
<!DOCTYPE svg PUBLIC "-//W3C//DTD SVG 1.1//EN" "http://www.w3.org/Graphics/SVG/1.1/DTD/svg11.dtd" [
	<!ENTITY ns_flows "http://ns.adobe.com/Flows/1.0/">
]>
<svg version="1.1"
	 xmlns="http://www.w3.org/2000/svg" xmlns:xlink="http://www.w3.org/1999/xlink" xmlns:a="http://ns.adobe.com/AdobeSVGViewerExtensions/3.0/"
	 x="0px" y="0px" width="100%" height="100%" viewBox="0 0 24 24" enable-background="new 0 0 24 24" xml:space="preserve">
<defs>
</defs>
<circle fill="#FFFFFF" cx="12" cy="12" r="12"/>
<path fill="{color}" transform="rotate({angle}, 12, 12)" d="M12,0C5.3837891,0,0,5.3837891,0,12s5.3837891,12,12,12s12-5.3837891,12-12S18.6162109,0,12,0z
	 M9.4863281,16.6425781c0,0.7470703-0.6064453,1.3525391-1.3544922,1.3525391c-0.7470703,0-1.3535156-0.6054688-1.3535156-1.3525391
	V7.3574219c0-0.7470703,0.6064453-1.3535156,1.3535156-1.3535156c0.7480469,0,1.3544922,0.6064453,1.3544922,1.3535156V16.6425781z
	 M13.3535156,16.6425781c0,0.7470703-0.6054688,1.3525391-1.3535156,1.3525391s-1.3535156-0.6054688-1.3535156-1.3525391v-5.4160156
	c0-0.7480469,0.6054688-1.3535156,1.3535156-1.3535156s1.3535156,0.6054688,1.3535156,1.3535156V16.6425781z M17.2226563,16.6425781
	c0,0.7470703-0.6054688,1.3525391-1.3535156,1.3525391s-1.3544922-0.6054688-1.3544922-1.3525391v-1.9345703
	c0-0.7480469,0.6064453-1.3544922,1.3544922-1.3544922s1.3535156,0.6064453,1.3535156,1.3544922V16.6425781z"/>
<radialGradient gradientTransform="rotate({backgroundAngle}, 12, 12)" id="SVGID_1_" cx="12" cy="3.1728516" r="22.2501049" gradientUnits="userSpaceOnUse">
	<stop  offset="0.351515" style="stop-color:#FFFFFF;stop-opacity:0.4"/>
	<stop  offset="0.842424" style="stop-color:#FFFFFF;stop-opacity:0"/>
</radialGradient>
<path fill="url(#SVGID_1_)" d="M12,0C5.3828125,0,0,5.3828125,0,12s5.3828125,12,12,12s12-5.3828125,12-12S18.6171875,0,12,0z"/>
</svg>
