<?xml version="1.0" encoding="utf-8"?>
<!-- Generator: Adobe Illustrator 14.0.0, SVG Export Plug-In  -->
<!DOCTYPE svg PUBLIC "-//W3C//DTD SVG 1.1//EN" "http://www.w3.org/Graphics/SVG/1.1/DTD/svg11.dtd" [
	<!ENTITY ns_flows "http://ns.adobe.com/Flows/1.0/">
]>
<svg version="1.1"
	 xmlns="http://www.w3.org/2000/svg" xmlns:xlink="http://www.w3.org/1999/xlink" xmlns:a="http://ns.adobe.com/AdobeSVGViewerExtensions/3.0/"
	 x="0px" y="0px" width="100%" height="100%" viewBox="0 0 24 24" enable-background="new 0 0 24 24" xml:space="preserve">
<defs>
</defs>
<circle fill="#FFFFFF" cx="12" cy="12" r="12"/>
<path fill="{color}" transform="rotate({angle}, 12, 12)" d="M12,0C5.3828125,0,0,5.3833008,0,12c0,6.6171875,5.3828125,12,12,12s12-5.3828125,12-12
	C24,5.3833008,18.6171875,0,12,0z M7.4355469,17.2226563H7.3583984c-0.7480469,0-1.3544922-0.6074219-1.3544922-1.3535156
	c0-0.7490234,0.6064453-1.3544922,1.3544922-1.3544922h0.0771484c0.7480469,0,1.3535156,0.6054688,1.3535156,1.3544922
	C8.7890625,16.6152344,8.1835938,17.2226563,7.4355469,17.2226563z M7.4355469,13.3544922H7.3583984
	c-0.7480469,0-1.3544922-0.6064453-1.3544922-1.3544922s0.6064453-1.3544922,1.3544922-1.3544922h0.0771484
	c0.7480469,0,1.3535156,0.6064453,1.3535156,1.3544922S8.1835938,13.3544922,7.4355469,13.3544922z M7.4355469,9.4853516H7.3583984
	c-0.7480469,0-1.3544922-0.6054688-1.3544922-1.3540039c0-0.7470703,0.6064453-1.3535156,1.3544922-1.3535156h0.0771484
	c0.7480469,0,1.3535156,0.6064453,1.3535156,1.3535156C8.7890625,8.8798828,8.1835938,9.4853516,7.4355469,9.4853516z
	 M16.6425781,17.2226563h-5.4160156c-0.7480469,0-1.3544922-0.6074219-1.3544922-1.3535156
	c0-0.7490234,0.6064453-1.3544922,1.3544922-1.3544922h5.4160156c0.7470703,0,1.3535156,0.6054688,1.3535156,1.3544922
	C17.9960938,16.6152344,17.3896484,17.2226563,16.6425781,17.2226563z M16.6425781,13.3544922h-5.4160156
	c-0.7480469,0-1.3544922-0.6064453-1.3544922-1.3544922s0.6064453-1.3544922,1.3544922-1.3544922h5.4160156
	c0.7470703,0,1.3535156,0.6064453,1.3535156,1.3544922S17.3896484,13.3544922,16.6425781,13.3544922z M16.6425781,9.4853516
	h-5.4160156c-0.7480469,0-1.3544922-0.6054688-1.3544922-1.3540039c0-0.7470703,0.6064453-1.3535156,1.3544922-1.3535156h5.4160156
	c0.7470703,0,1.3535156,0.6064453,1.3535156,1.3535156C17.9960938,8.8798828,17.3896484,9.4853516,16.6425781,9.4853516z"/>
<radialGradient gradientTransform="rotate({backgroundAngle}, 12, 12)" id="SVGID_1_" cx="12" cy="3.1728516" r="22.2501049" gradientUnits="userSpaceOnUse">
	<stop  offset="0.351515" style="stop-color:#FFFFFF;stop-opacity:0.4"/>
	<stop  offset="0.842424" style="stop-color:#FFFFFF;stop-opacity:0"/>
</radialGradient>
<path fill="url(#SVGID_1_)" d="M12,0C5.3828125,0,0,5.3828125,0,12s5.3828125,12,12,12s12-5.3828125,12-12S18.6171875,0,12,0z"/>
</svg>
