<?xml version="1.0" encoding="utf-8"?>
<!-- Generator: Adobe Illustrator 14.0.0, SVG Export Plug-In  -->
<!DOCTYPE svg PUBLIC "-//W3C//DTD SVG 1.1//EN" "http://www.w3.org/Graphics/SVG/1.1/DTD/svg11.dtd" [
	<!ENTITY ns_flows "http://ns.adobe.com/Flows/1.0/">
]>
<svg version="1.1"
	 xmlns="http://www.w3.org/2000/svg" xmlns:xlink="http://www.w3.org/1999/xlink" xmlns:a="http://ns.adobe.com/AdobeSVGViewerExtensions/3.0/"
	 x="0px" y="0px" width="100%" height="100%" viewBox="0 0 24 24" enable-background="new 0 0 24 24" xml:space="preserve">
<defs>
</defs>
<path fill="#4594d0" transform="rotate({angle}, 12, 12)" d="M12,0C5.3837891,0,0,5.3837891,0,12s5.3837891,12,12,12s12-5.3837891,12-12S18.6162109,0,12,0z
	 M12,21.2919922c-5.1240234,0-9.2919922-4.1679688-9.2919922-9.2919922S6.8759766,2.7080078,12,2.7080078
	S21.2919922,6.8759766,21.2919922,12S17.1240234,21.2919922,12,21.2919922z M17.2226563,14.7080078v1.9345703
	c0,0.7470703-0.6054688,1.3525391-1.3535156,1.3525391s-1.3544922-0.6054688-1.3544922-1.3525391v-1.9345703
	c0-0.7480469,0.6064453-1.3544922,1.3544922-1.3544922S17.2226563,13.9599609,17.2226563,14.7080078z M9.4863281,7.3574219
	v9.2851563c0,0.7470703-0.6064453,1.3525391-1.3544922,1.3525391c-0.7470703,0-1.3535156-0.6054688-1.3535156-1.3525391V7.3574219
	c0-0.7470703,0.6064453-1.3535156,1.3535156-1.3535156C8.8798828,6.0039063,9.4863281,6.6103516,9.4863281,7.3574219z
	 M13.3535156,11.2265625v5.4160156c0,0.7470703-0.6054688,1.3525391-1.3535156,1.3525391s-1.3535156-0.6054688-1.3535156-1.3525391
	v-5.4160156c0-0.7480469,0.6054688-1.3535156,1.3535156-1.3535156S13.3535156,10.4785156,13.3535156,11.2265625z"/>
</svg>
