<?xml version="1.0" encoding="utf-8"?>
<!-- Generator: Adobe Illustrator 14.0.0, SVG Export Plug-In  -->
<!DOCTYPE svg PUBLIC "-//W3C//DTD SVG 1.1//EN" "http://www.w3.org/Graphics/SVG/1.1/DTD/svg11.dtd" [
	<!ENTITY ns_flows "http://ns.adobe.com/Flows/1.0/">
]>
<svg version="1.1"
	 xmlns="http://www.w3.org/2000/svg" xmlns:xlink="http://www.w3.org/1999/xlink" xmlns:a="http://ns.adobe.com/AdobeSVGViewerExtensions/3.0/"
	 x="0px" y="0px" width="100%" height="100%" viewBox="0 0 24 24" enable-background="new 0 0 24 24" xml:space="preserve">
<defs>
</defs>
<circle fill="#FFFFFF" cx="12" cy="12" r="12"/>
<path fill="{color}" transform="rotate({angle}, 12, 12)" d="M12,0C5.3828125,0,0,5.3828125,0,12s5.3828125,12,12,12s12-5.3828125,12-12S18.6171875,0,12,0z
	 M17.3925781,13.1259766l-6.9628906,4.6425781c-0.2265625,0.1513672-0.4882813,0.2275391-0.7509766,0.2275391
	c-0.2197266,0-0.4384766-0.0527344-0.6396484-0.1601563c-0.4394531-0.2363281-0.7148438-0.6953125-0.7148438-1.1943359V7.3583984
	c0-0.4990234,0.2753906-0.9580078,0.7148438-1.1943359c0.4404297-0.234375,0.9746094-0.2099609,1.390625,0.0673828
	l6.9628906,4.6425781C17.7695313,11.125,17.9960938,11.5478516,17.9960938,12S17.7695313,12.875,17.3925781,13.1259766z
	 M11.0332031,9.8886719v4.2236328L14.2011719,12L11.0332031,9.8886719L11.0332031,9.8886719z"/>
<radialGradient gradientTransform="rotate({backgroundAngle}, 12, 12)" id="SVGID_1_" cx="12" cy="3.1728516" r="22.2501049" gradientUnits="userSpaceOnUse">
	<stop  offset="0.351515" style="stop-color:#FFFFFF;stop-opacity:0.4"/>
	<stop  offset="0.842424" style="stop-color:#FFFFFF;stop-opacity:0"/>
</radialGradient>
<path fill="url(#SVGID_1_)" d="M12,0C5.3828125,0,0,5.3828125,0,12s5.3828125,12,12,12s12-5.3828125,12-12S18.6171875,0,12,0z"/>
</svg>
