<?xml version="1.0" encoding="utf-8"?>
<!-- Generator: Adobe Illustrator 14.0.0, SVG Export Plug-In  -->
<!DOCTYPE svg PUBLIC "-//W3C//DTD SVG 1.1//EN" "http://www.w3.org/Graphics/SVG/1.1/DTD/svg11.dtd" [
	<!ENTITY ns_flows "http://ns.adobe.com/Flows/1.0/">
]>
<svg version="1.1"
	 xmlns="http://www.w3.org/2000/svg" xmlns:xlink="http://www.w3.org/1999/xlink" xmlns:a="http://ns.adobe.com/AdobeSVGViewerExtensions/3.0/"
	 x="0px" y="0px" width="100%" height="100%" viewBox="0 0 24 24" enable-background="new 0 0 24 24" xml:space="preserve">
<defs>
</defs>
<path fill="{color}" transform="rotate({angle}, 12, 12)" d="M12,24C5.3828125,24,0,18.6171875,0,12S5.3828125,0,12,0s12,5.3828125,12,12S18.6171875,24,12,24L12,24z
	 M12,2.7070313c-5.1240234,0-9.2929688,4.1699219-9.2929688,9.2929688S6.8759766,21.2929688,12,21.2929688
	c5.1230469,0,9.2910156-4.1699219,9.2910156-9.2929688S17.1230469,2.7070313,12,2.7070313L12,2.7070313z M9.6787109,17.9960938
	c-0.2197266,0-0.4384766-0.0527344-0.6396484-0.1601563c-0.4394531-0.2363281-0.7148438-0.6953125-0.7148438-1.1943359V7.3583984
	c0-0.4990234,0.2753906-0.9580078,0.7148438-1.1943359c0.4404297-0.234375,0.9746094-0.2099609,1.390625,0.0673828
	l6.9628906,4.6425781C17.7695313,11.125,17.9960938,11.5478516,17.9960938,12s-0.2265625,0.875-0.6035156,1.1259766
	l-6.9628906,4.6425781C10.203125,17.9199219,9.9414063,17.9960938,9.6787109,17.9960938L9.6787109,17.9960938z
	 M11.0332031,9.8886719v4.2236328L14.2011719,12L11.0332031,9.8886719L11.0332031,9.8886719z"/>
</svg>
