<?xml version="1.0" encoding="utf-8"?>
<!-- Generator: Adobe Illustrator 14.0.0, SVG Export Plug-In  -->
<!DOCTYPE svg PUBLIC "-//W3C//DTD SVG 1.1//EN" "http://www.w3.org/Graphics/SVG/1.1/DTD/svg11.dtd" [
	<!ENTITY ns_flows "http://ns.adobe.com/Flows/1.0/">
]>
<svg version="1.1"
	 xmlns="http://www.w3.org/2000/svg" xmlns:xlink="http://www.w3.org/1999/xlink" xmlns:a="http://ns.adobe.com/AdobeSVGViewerExtensions/3.0/"
	 x="0px" y="0px" width="100%" height="100%" viewBox="0 0 24 24" enable-background="new 0 0 24 24" xml:space="preserve">
<defs>
</defs>
<circle fill="#FFFFFF" cx="12" cy="12" r="12"/>
<path fill="{color}" transform="rotate({angle}, 12, 12)" d="M12,0C5.383,0,0,5.383,0,12s5.383,12,12,12s12-5.383,12-12S18.617,0,12,0z M17.623,15.029
	c-0.447,0.83-1.06,1.537-1.821,2.102c-1.37,1.015-3.055,1.436-4.742,1.185c-1.124-0.167-2.159-0.624-3.025-1.313
	c-0.039,0.498-0.451,0.891-0.961,0.891c-0.267,0.001-0.509-0.107-0.684-0.283c-0.174-0.175-0.283-0.416-0.282-0.684v-3.284
	c0-0.272,0.113-0.532,0.314-0.714c0.201-0.184,0.47-0.274,0.739-0.25l3.011,0.273c0.532,0.049,0.924,0.52,0.876,1.051
	c-0.049,0.533-0.519,0.926-1.051,0.877l-0.313-0.028c0.506,0.412,1.112,0.688,1.774,0.786c0.973,0.144,1.941-0.098,2.73-0.683
	c0.439-0.326,0.792-0.732,1.049-1.209c0.354-0.659,1.175-0.905,1.835-0.552C17.731,13.55,17.978,14.369,17.623,15.029z
	 M17.894,10.357c0,0.272-0.114,0.532-0.316,0.715c-0.2,0.184-0.469,0.273-0.738,0.25l-3.011-0.274
	c-0.234-0.021-0.442-0.124-0.598-0.278c-0.195-0.196-0.306-0.475-0.278-0.773C13,9.465,13.471,9.072,14.004,9.121l0.313,0.029
	c-0.506-0.414-1.113-0.688-1.775-0.787c-0.972-0.145-1.941,0.098-2.73,0.682c-0.439,0.326-0.792,0.732-1.049,1.21
	c-0.354,0.658-1.175,0.905-1.835,0.55c-0.119-0.063-0.226-0.143-0.316-0.233C6.199,10.16,6.087,9.511,6.376,8.971
	c0.448-0.83,1.062-1.537,1.822-2.102c1.37-1.016,3.054-1.437,4.742-1.186C14.065,5.852,15.099,6.311,15.966,7
	c0.039-0.499,0.451-0.893,0.96-0.893c0.534,0,0.968,0.432,0.968,0.967V10.357z"/>
<radialGradient gradientTransform="rotate({backgroundAngle}, 12, 12)" id="SVGID_1_" cx="12" cy="3.1729" r="22.2501" gradientUnits="userSpaceOnUse">
	<stop  offset="0.3515" style="stop-color:#FFFFFF;stop-opacity:0.4"/>
	<stop  offset="0.8424" style="stop-color:#FFFFFF;stop-opacity:0"/>
</radialGradient>
<path fill="url(#SVGID_1_)" d="M12,0C5.383,0,0,5.383,0,12s5.383,12,12,12s12-5.383,12-12S18.617,0,12,0z"/>
</svg>
