<?xml version="1.0" encoding="utf-8"?>
<!-- Generator: Adobe Illustrator 14.0.0, SVG Export Plug-In  -->
<!DOCTYPE svg PUBLIC "-//W3C//DTD SVG 1.1//EN" "http://www.w3.org/Graphics/SVG/1.1/DTD/svg11.dtd" [
	<!ENTITY ns_flows "http://ns.adobe.com/Flows/1.0/">
]>
<svg version="1.1"
	 xmlns="http://www.w3.org/2000/svg" xmlns:xlink="http://www.w3.org/1999/xlink" xmlns:a="http://ns.adobe.com/AdobeSVGViewerExtensions/3.0/"
	 x="0px" y="0px" width="100%" height="100%" viewBox="0 0 24 24" enable-background="new 0 0 24 24" xml:space="preserve">
<defs>
</defs>
<path fill="{color}" transform="rotate({angle}, 12, 12)" d="M20.49,3.511c-4.681-4.681-12.297-4.681-16.979,0c-4.682,4.682-4.682,12.298,0,16.978
	c4.682,4.682,12.298,4.682,16.979,0C25.17,15.809,25.17,8.192,20.49,3.511z M18.574,18.573c-3.624,3.624-9.522,3.625-13.146,0
	c-3.625-3.625-3.624-9.523,0-13.147c3.624-3.625,9.522-3.625,13.147,0S22.199,14.948,18.574,18.573z M17.624,15.029
	c-0.447,0.83-1.06,1.537-1.821,2.102c-1.37,1.015-3.055,1.436-4.742,1.185c-1.124-0.167-2.159-0.624-3.025-1.313
	c-0.039,0.498-0.451,0.891-0.961,0.891c-0.267,0.001-0.509-0.107-0.684-0.283c-0.174-0.175-0.283-0.416-0.282-0.684v-3.284
	c0-0.272,0.113-0.532,0.314-0.714c0.201-0.183,0.47-0.274,0.739-0.25l3.011,0.274c0.532,0.048,0.924,0.519,0.876,1.05
	C11,14.535,10.53,14.928,9.998,14.879l-0.313-0.028c0.506,0.412,1.112,0.688,1.774,0.786c0.973,0.144,1.941-0.098,2.73-0.683
	c0.439-0.326,0.792-0.732,1.049-1.209c0.354-0.659,1.175-0.906,1.835-0.552C17.732,13.55,17.978,14.369,17.624,15.029z
	 M17.894,7.074v3.284c0,0.272-0.114,0.532-0.316,0.715c-0.2,0.184-0.469,0.273-0.738,0.249l-3.011-0.274
	c-0.234-0.021-0.442-0.125-0.598-0.279c-0.195-0.196-0.306-0.475-0.278-0.773C13,9.464,13.471,9.072,14.004,9.121l0.313,0.029
	c-0.506-0.414-1.113-0.688-1.775-0.787c-0.972-0.144-1.941,0.098-2.73,0.682C9.373,9.372,9.02,9.777,8.763,10.255
	c-0.354,0.658-1.175,0.905-1.835,0.55c-0.119-0.064-0.226-0.143-0.316-0.234C6.2,10.16,6.087,9.511,6.376,8.971
	C6.825,8.14,7.438,7.434,8.199,6.869c1.37-1.015,3.054-1.436,4.742-1.186C14.066,5.852,15.099,6.311,15.966,7
	c0.039-0.499,0.451-0.893,0.96-0.893C17.46,6.107,17.894,6.54,17.894,7.074z"/>
</svg>
