<?xml version="1.0" encoding="utf-8"?>
<!-- Generator: Adobe Illustrator 14.0.0, SVG Export Plug-In  -->
<!DOCTYPE svg PUBLIC "-//W3C//DTD SVG 1.1//EN" "http://www.w3.org/Graphics/SVG/1.1/DTD/svg11.dtd" [
	<!ENTITY ns_flows "http://ns.adobe.com/Flows/1.0/">
]>
<svg version="1.1"
	 xmlns="http://www.w3.org/2000/svg" xmlns:xlink="http://www.w3.org/1999/xlink" xmlns:a="http://ns.adobe.com/AdobeSVGViewerExtensions/3.0/"
	 x="0px" y="0px" width="100%" height="100%" viewBox="0 0 24 24" enable-background="new 0 0 24 24" xml:space="preserve">
<defs>
</defs>
<circle fill="#FFFFFF" cx="12" cy="12" r="12"/>
<path fill="{color}" transform="rotate({angle}, 12, 12)" d="M12,0C5.3828125,0,0,5.3828125,0,12s5.3828125,12,12,12s12-5.3828125,12-12S18.6171875,0,12,0z
	 M9.1279297,18.7685547c-0.9599609,0-1.7402344-0.7802734-1.7402344-1.7392578c0-0.9609375,0.7802734-1.7412109,1.7402344-1.7412109
	s1.7402344,0.7802734,1.7402344,1.7412109C10.8681641,17.9882813,10.0878906,18.7685547,9.1279297,18.7685547z
	 M11.2451172,6.7519531l-0.7734375,6.1894531c-0.0849609,0.6777344-0.6611328,1.1865234-1.34375,1.1865234
	s-1.2587891-0.5087891-1.34375-1.1865234L7.0107422,6.7519531C6.9619141,6.3671875,7.0820313,5.9794922,7.3388672,5.6875
	c0.2578125-0.2900391,0.6269531-0.4570313,1.015625-0.4570313h1.546875c0.3886719,0,0.7578125,0.1669922,1.015625,0.4570313
	C11.1738281,5.9794922,11.2939453,6.3671875,11.2451172,6.7519531z M14.8720703,18.7685547
	c-0.9599609,0-1.7402344-0.7802734-1.7402344-1.7392578c0-0.9609375,0.7802734-1.7412109,1.7402344-1.7412109
	s1.7402344,0.7802734,1.7402344,1.7412109C16.6123047,17.9882813,15.8320313,18.7685547,14.8720703,18.7685547z
	 M16.9892578,6.7519531l-0.7734375,6.1894531c-0.0849609,0.6777344-0.6611328,1.1865234-1.34375,1.1865234
	s-1.2587891-0.5087891-1.34375-1.1865234l-0.7734375-6.1894531c-0.0488281-0.3847656,0.0712891-0.7724609,0.328125-1.0644531
	c0.2578125-0.2900391,0.6269531-0.4570313,1.015625-0.4570313h1.546875c0.3886719,0,0.7578125,0.1669922,1.015625,0.4570313
	C16.9179688,5.9794922,17.0380859,6.3671875,16.9892578,6.7519531z"/>
<radialGradient gradientTransform="rotate({backgroundAngle}, 12, 12)" id="SVGID_1_" cx="12" cy="3.1728516" r="22.2501049" gradientUnits="userSpaceOnUse">
	<stop  offset="0.351515" style="stop-color:#FFFFFF;stop-opacity:0.4"/>
	<stop  offset="0.842424" style="stop-color:#FFFFFF;stop-opacity:0"/>
</radialGradient>
<path fill="url(#SVGID_1_)" d="M12,0C5.3828125,0,0,5.3828125,0,12s5.3828125,12,12,12s12-5.3828125,12-12S18.6171875,0,12,0z"/>
</svg>
