<?xml version="1.0" encoding="utf-8"?>
<!-- Generator: Adobe Illustrator 14.0.0, SVG Export Plug-In  -->
<!DOCTYPE svg PUBLIC "-//W3C//DTD SVG 1.1//EN" "http://www.w3.org/Graphics/SVG/1.1/DTD/svg11.dtd" [
	<!ENTITY ns_flows "http://ns.adobe.com/Flows/1.0/">
]>
<svg version="1.1"
	 xmlns="http://www.w3.org/2000/svg" xmlns:xlink="http://www.w3.org/1999/xlink" xmlns:a="http://ns.adobe.com/AdobeSVGViewerExtensions/3.0/"
	 x="0px" y="0px" width="100%" height="100%" viewBox="0 0 24 24" enable-background="new 0 0 24 24" xml:space="preserve">
<defs>
</defs>
<path fill="{color}" transform="rotate({angle}, 12, 12)" d="M12,0C5.3828125,0,0,5.3833008,0,12c0,6.6171875,5.3828125,12,12,12s12-5.3828125,12-12
	C24,5.3833008,18.6171875,0,12,0z M12,21.2919922c-5.1230469,0-9.2919922-4.1679688-9.2919922-9.2919922
	S6.8769531,2.7080078,12,2.7080078S21.2919922,6.8769531,21.2919922,12C21.2919922,17.1240234,17.1230469,21.2910156,12,21.2919922z
	 M12.8203125,13.5009766c0.453125,0.4521484,0.453125,1.1865234,0,1.640625l-3.0947266,3.0947266
	c-0.4521484,0.453125-1.1875,0.453125-1.640625,0l-3.0947266-3.0947266c-0.453125-0.4541016-0.453125-1.1875,0-1.640625
	c0.453125-0.4541016,1.1875-0.4541016,1.640625,0l0.9208984,0.9208984V8.9052734
	c0-0.7475586,0.6054688-1.3540039,1.3535156-1.3540039c0.7470703,0,1.3535156,0.6064453,1.3535156,1.3540039l0.0009766,5.515625
	l0.9199219-0.9199219C11.6328125,13.046875,12.3671875,13.046875,12.8203125,13.5009766z M19.0097656,10.4990234
	c-0.453125,0.4541016-1.1875,0.4541016-1.640625,0l-0.9199219-0.9199219v5.5166016
	c-0.0009766,0.7460938-0.6074219,1.3535156-1.3544922,1.3535156c-0.3740234,0-0.7119141-0.1523438-0.9570313-0.3964844
	c-0.2451172-0.2460938-0.3964844-0.5839844-0.3964844-0.9580078v-5.515625l-0.9208984,0.9199219
	c-0.453125,0.4541016-1.1875,0.4541016-1.640625,0c-0.453125-0.4521484-0.453125-1.1875,0-1.640625l3.0947266-3.0942383
	c0.453125-0.4541016,1.1875-0.4541016,1.640625,0l3.0947266,3.0942383
	C19.4628906,9.3115234,19.4628906,10.046875,19.0097656,10.4990234z"/>
</svg>
