<?xml version="1.0" encoding="utf-8"?>
<!-- Generator: Adobe Illustrator 14.0.0, SVG Export Plug-In  -->
<!DOCTYPE svg PUBLIC "-//W3C//DTD SVG 1.1//EN" "http://www.w3.org/Graphics/SVG/1.1/DTD/svg11.dtd" [
	<!ENTITY ns_flows "http://ns.adobe.com/Flows/1.0/">
]>
<svg version="1.1"
	 xmlns="http://www.w3.org/2000/svg" xmlns:xlink="http://www.w3.org/1999/xlink" xmlns:a="http://ns.adobe.com/AdobeSVGViewerExtensions/3.0/"
	 x="0px" y="0px" width="100%" height="100%" viewBox="0 0 24 24" enable-background="new 0 0 24 24" xml:space="preserve">
<defs>
</defs>
<path fill="{color}" transform="rotate({angle}, 12, 12)" d="M12,24C5.3828125,24,0,18.6171875,0,12S5.3828125,0,12,0s12,5.3828125,12,12S18.6171875,24,12,24L12,24z
	 M12,2.7075195c-5.1240234,0-9.2919922,4.1689453-9.2919922,9.2924805c0,5.1230469,4.1679688,9.2929688,9.2919922,9.2929688
	S21.2919922,17.1230469,21.2919922,12C21.2919922,6.8764648,17.1240234,2.7075195,12,2.7075195L12,2.7075195z M9.6796875,17.2216797
	c0.7470703,0,1.3535156-0.6054688,1.3535156-1.3535156V8.1318359c0-0.7480469-0.6064453-1.3535156-1.3535156-1.3535156
	c-0.7490234,0-1.3544922,0.6054688-1.3544922,1.3535156v7.7363281C8.3251953,16.6162109,8.9306641,17.2216797,9.6796875,17.2216797
	L9.6796875,17.2216797z M14.3203125,17.2216797c0.7490234,0,1.3544922-0.6054688,1.3544922-1.3535156V8.1318359
	c0-0.7480469-0.6054688-1.3535156-1.3544922-1.3535156c-0.7470703,0-1.3535156,0.6054688-1.3535156,1.3535156v7.7363281
	C12.9667969,16.6162109,13.5732422,17.2216797,14.3203125,17.2216797L14.3203125,17.2216797z"/>
</svg>
