<?xml version="1.0" encoding="utf-8"?>
<!-- Generator: Adobe Illustrator 14.0.0, SVG Export Plug-In  -->
<!DOCTYPE svg PUBLIC "-//W3C//DTD SVG 1.1//EN" "http://www.w3.org/Graphics/SVG/1.1/DTD/svg11.dtd" [
	<!ENTITY ns_flows "http://ns.adobe.com/Flows/1.0/">
]>
<svg version="1.1"
	 xmlns="http://www.w3.org/2000/svg" xmlns:xlink="http://www.w3.org/1999/xlink" xmlns:a="http://ns.adobe.com/AdobeSVGViewerExtensions/3.0/"
	 x="0px" y="0px" width="100%" height="100%" viewBox="0 0 24 24" enable-background="new 0 0 24 24" xml:space="preserve">
<defs>
</defs>
<circle fill="#FFFFFF" cx="12" cy="12" r="12"/>
<path fill="{color}" transform="rotate({angle}, 12, 12)" d="M12,0C5.3828125,0,0,5.3828125,0,12s5.3828125,12,12,12s12-5.3828125,12-12S18.6171875,0,12,0z
	 M18.5761719,17.4160156c0,0.640625-0.5195313,1.1601563-1.1601563,1.1601563H9.6787109
	c-0.640625,0-1.1601563-0.5195313-1.1601563-1.1601563v-2.7080078H6.5839844c-0.640625,0-1.1601563-0.5195313-1.1601563-1.1611328
	V6.5839844c0-0.640625,0.5195313-1.1601563,1.1601563-1.1601563h6.9628906c0.6416016,0,1.1611328,0.5195313,1.1611328,1.1601563
	v1.9345703h2.7080078c0.640625,0,1.1601563,0.5195313,1.1601563,1.1601563V17.4160156z M8.5185547,9.6787109v2.7080078H7.7451172
	V7.7451172h4.6416016v0.7734375H9.6787109C9.0380859,8.5185547,8.5185547,9.0380859,8.5185547,9.6787109z M16.2548828,16.2548828
	h-5.4150391v-5.4150391h5.4150391V16.2548828z"/>
<radialGradient gradientTransform="rotate({backgroundAngle}, 12, 12)" id="SVGID_1_" cx="12" cy="3.1728516" r="22.2501049" gradientUnits="userSpaceOnUse">
	<stop  offset="0.351515" style="stop-color:#FFFFFF;stop-opacity:0.4"/>
	<stop  offset="0.842424" style="stop-color:#FFFFFF;stop-opacity:0"/>
</radialGradient>
<path fill="url(#SVGID_1_)" d="M12,0C5.3828125,0,0,5.3828125,0,12s5.3828125,12,12,12s12-5.3828125,12-12S18.6171875,0,12,0z"/>
</svg>
