<?xml version="1.0" encoding="utf-8"?>
<!-- Generator: Adobe Illustrator 16.0.3, SVG Export Plug-In . SVG Version: 6.00 Build 0)  -->
<!DOCTYPE svg PUBLIC "-//W3C//DTD SVG 1.1//EN" "http://www.w3.org/Graphics/SVG/1.1/DTD/svg11.dtd">
<svg version="1.1" id="Layer_1" xmlns="http://www.w3.org/2000/svg" xmlns:xlink="http://www.w3.org/1999/xlink" x="0px" y="0px"
	 width="100%" height="100%" viewBox="0 0 16 16" enable-background="new 0 0 16 16" xml:space="preserve">
<path transform="translate(-1, 0) rotate({angle}, 7, 7)" fill="{color}" d="M6,1.5v6.379l0.439-0.439c0.586-0.586,1.535-0.586,2.121,0s0.586,1.535,0,2.121l-3,3
	C5.268,12.854,4.884,13,4.5,13s-0.768-0.146-1.061-0.439l-3-3c-0.586-0.586-0.586-1.535,0-2.121s1.535-0.586,2.121,0L3,7.879V1.5
	C3,0.672,3.672,0,4.5,0S6,0.672,6,1.5z M11.5,13c0.828,0,1.5-0.672,1.5-1.5V5.121l0.439,0.439C13.732,5.854,14.116,6,14.5,6
	s0.768-0.146,1.061-0.439c0.586-0.586,0.586-1.535,0-2.121l-3-3c-0.586-0.586-1.535-0.586-2.121,0l-3,3
	c-0.586,0.586-0.586,1.535,0,2.121s1.535,0.586,2.121,0L10,5.121V11.5C10,12.328,10.672,13,11.5,13z"/>
</svg>
