<?xml version="1.0" encoding="utf-8"?>
<!-- Generator: Adobe Illustrator 14.0.0, SVG Export Plug-In  -->
<!DOCTYPE svg PUBLIC "-//W3C//DTD SVG 1.1//EN" "http://www.w3.org/Graphics/SVG/1.1/DTD/svg11.dtd" [
	<!ENTITY ns_flows "http://ns.adobe.com/Flows/1.0/">
]>
<svg version="1.1"
	 xmlns="http://www.w3.org/2000/svg" xmlns:xlink="http://www.w3.org/1999/xlink" xmlns:a="http://ns.adobe.com/AdobeSVGViewerExtensions/3.0/"
	 x="0px" y="0px" width="100%" height="100%" viewBox="0 0 24 24" enable-background="new 0 0 24 24" xml:space="preserve">
<defs>
</defs>
<path fill="{color}" transform="rotate({angle}, 12, 12)" d="M12,0C5.3828125,0,0,5.3828125,0,12s5.3828125,12,12,12s12-5.3828125,12-12S18.6171875,0,12,0z
	 M12,21.2919922c-5.1230469,0-9.2919922-4.1679688-9.2919922-9.2919922S6.8769531,2.7080078,12,2.7080078
	c5.1240234,0,9.2919922,4.1679688,9.2919922,9.2919922S17.1240234,21.2919922,12,21.2919922z M16.6611328,5.6875
	c0.2568359,0.2919922,0.3769531,0.6796875,0.328125,1.0644531l-0.7734375,6.1894531
	c-0.0849609,0.6777344-0.6611328,1.1865234-1.34375,1.1865234s-1.2587891-0.5087891-1.34375-1.1865234l-0.7734375-6.1894531
	c-0.0488281-0.3847656,0.0712891-0.7724609,0.328125-1.0644531c0.2578125-0.2900391,0.6269531-0.4570313,1.015625-0.4570313
	h1.546875C16.0341797,5.2304688,16.4033203,5.3974609,16.6611328,5.6875z M16.6123047,17.0292969
	c0,0.9589844-0.7802734,1.7392578-1.7402344,1.7392578s-1.7402344-0.7802734-1.7402344-1.7392578
	c0-0.9609375,0.7802734-1.7412109,1.7402344-1.7412109S16.6123047,16.0683594,16.6123047,17.0292969z M10.9169922,5.6875
	c0.2568359,0.2919922,0.3769531,0.6796875,0.328125,1.0644531l-0.7734375,6.1894531
	c-0.0849609,0.6777344-0.6611328,1.1865234-1.34375,1.1865234s-1.2587891-0.5087891-1.34375-1.1865234L7.0107422,6.7519531
	C6.9619141,6.3671875,7.0820313,5.9794922,7.3388672,5.6875c0.2578125-0.2900391,0.6269531-0.4570313,1.015625-0.4570313h1.546875
	C10.2900391,5.2304688,10.6591797,5.3974609,10.9169922,5.6875z M10.8681641,17.0292969
	c0,0.9589844-0.7802734,1.7392578-1.7402344,1.7392578s-1.7402344-0.7802734-1.7402344-1.7392578
	c0-0.9609375,0.7802734-1.7412109,1.7402344-1.7412109S10.8681641,16.0683594,10.8681641,17.0292969z"/>
</svg>
