<?xml version="1.0" encoding="utf-8"?>
<!-- Generator: Adobe Illustrator 14.0.0, SVG Export Plug-In  -->
<!DOCTYPE svg PUBLIC "-//W3C//DTD SVG 1.1//EN" "http://www.w3.org/Graphics/SVG/1.1/DTD/svg11.dtd" [
	<!ENTITY ns_flows "http://ns.adobe.com/Flows/1.0/">
]>
<svg version="1.1"
	 xmlns="http://www.w3.org/2000/svg" xmlns:xlink="http://www.w3.org/1999/xlink" xmlns:a="http://ns.adobe.com/AdobeSVGViewerExtensions/3.0/"
	 x="0px" y="0px" width="100%" height="100%" viewBox="0 0 24 24" enable-background="new 0 0 24 24" xml:space="preserve">
<defs>
</defs>
<path fill="{color}" transform="rotate({angle}, 12, 12)" d="M12,0C5.3828125,0,0,5.3828125,0,12s5.3828125,12,12,12s12-5.3828125,12-12S18.6171875,0,12,0z
	 M12,21.2919922c-5.1240234,0-9.2919922-4.1679688-9.2919922-9.2919922S6.8759766,2.7080078,12,2.7080078
	S21.2919922,6.8759766,21.2919922,12S17.1240234,21.2919922,12,21.2919922z M17.4160156,8.5185547h-2.7080078V6.5839844
	c0-0.640625-0.5195313-1.1601563-1.1611328-1.1601563H6.5839844c-0.640625,0-1.1601563,0.5195313-1.1601563,1.1601563v6.9628906
	c0,0.6416016,0.5195313,1.1611328,1.1601563,1.1611328h1.9345703v2.7080078c0,0.640625,0.5195313,1.1601563,1.1601563,1.1601563
	h7.7373047c0.640625,0,1.1601563-0.5195313,1.1601563-1.1601563V9.6787109
	C18.5761719,9.0380859,18.0566406,8.5185547,17.4160156,8.5185547z M8.5185547,9.6787109v2.7080078H7.7451172V7.7451172h4.6416016
	v0.7734375H9.6787109C9.0380859,8.5185547,8.5185547,9.0380859,8.5185547,9.6787109z M16.2548828,16.2548828h-5.4150391v-5.4150391
	h5.4150391V16.2548828z"/>
</svg>
