<?xml version="1.0" encoding="utf-8"?>
<!-- Generator: Adobe Illustrator 14.0.0, SVG Export Plug-In  -->
<!DOCTYPE svg PUBLIC "-//W3C//DTD SVG 1.1//EN" "http://www.w3.org/Graphics/SVG/1.1/DTD/svg11.dtd" [
	<!ENTITY ns_flows "http://ns.adobe.com/Flows/1.0/">
]>
<svg version="1.1"
	 xmlns="http://www.w3.org/2000/svg" xmlns:xlink="http://www.w3.org/1999/xlink" xmlns:a="http://ns.adobe.com/AdobeSVGViewerExtensions/3.0/"
	 x="0px" y="0px" width="100%" height="100%" viewBox="0 0 24 24" enable-background="new 0 0 24 24" xml:space="preserve">
<defs>
</defs>
<path fill="{color}" transform="rotate({angle}, 12, 12)" d="M12,0C5.3828125,0,0,5.3828125,0,12s5.3828125,12,12,12s12-5.3828125,12-12S18.6171875,0,12,0z
	 M12,21.2910156c-5.1230469,0-9.2919922-4.1669922-9.2919922-9.2910156c0-5.1230469,4.1689453-9.2919922,9.2919922-9.2919922
	c5.1240234,0,9.2919922,4.1689453,9.2919922,9.2919922C21.2919922,17.1240234,17.1240234,21.2910156,12,21.2910156z
	 M7.1738281,10.25c-0.5283203-0.5292969-0.5283203-1.3867188,0-1.9150391c0.5292969-0.5283203,1.3867188-0.5283203,1.9160156,0
	l1.5566406,1.5576172V5.8105469c0-0.7470703,0.6054688-1.3535156,1.3535156-1.3535156s1.3535156,0.6064453,1.3535156,1.3535156
	v4.0820313l1.5576172-1.5576172c0.5283203-0.5283203,1.3857422-0.5283203,1.9150391,0
	c0.5283203,0.5283203,0.5283203,1.3857422,0,1.9150391l-3.8691406,3.8681641
	C12.6933594,14.3818359,12.3466797,14.5136719,12,14.5136719s-0.6933594-0.1318359-0.9570313-0.3955078L7.1738281,10.25z
	 M17.9960938,15.0957031v1.5458984c0,0.7470703-0.6064453,1.3544922-1.3535156,1.3544922
	c-0.0664063,0-0.1308594-0.0107422-0.1933594-0.0195313c-0.0644531,0.0087891-0.1279297,0.0195313-0.1933594,0.0195313H7.7451172
	c-0.0664063,0-0.1298828-0.0107422-0.1933594-0.0195313c-0.0634766,0.0087891-0.1269531,0.0195313-0.1943359,0.0195313
	c-0.7470703,0-1.3535156-0.6074219-1.3535156-1.3544922v-1.5458984c0-0.7490234,0.6064453-1.3554688,1.3535156-1.3554688
	c0.7480469,0,1.3544922,0.6064453,1.3544922,1.3554688v0.1933594h6.5761719v-0.1933594
	c0-0.7490234,0.6064453-1.3554688,1.3544922-1.3554688C17.3896484,13.7402344,17.9960938,14.3466797,17.9960938,15.0957031z"/>
</svg>
