<?xml version="1.0" encoding="utf-8"?>
<!-- Generator: Adobe Illustrator 14.0.0, SVG Export Plug-In  -->
<!DOCTYPE svg PUBLIC "-//W3C//DTD SVG 1.1//EN" "http://www.w3.org/Graphics/SVG/1.1/DTD/svg11.dtd" [
	<!ENTITY ns_flows "http://ns.adobe.com/Flows/1.0/">
]>
<svg version="1.1"
	 xmlns="http://www.w3.org/2000/svg" xmlns:xlink="http://www.w3.org/1999/xlink" xmlns:a="http://ns.adobe.com/AdobeSVGViewerExtensions/3.0/"
	 x="0px" y="0px" width="100%" height="100%" viewBox="0 0 24 24" enable-background="new 0 0 24 24" xml:space="preserve">
<defs>
</defs>
<circle fill="#FFFFFF" cx="12" cy="12" r="12"/>
<path fill="#4594d0" transform="rotate({angle}, 12, 12)" d="M12,0C5.3828125,0,0,5.3828125,0,12s5.3828125,12,12,12s12-5.3828125,12-12S18.6171875,0,12,0z
	 M7.1738281,8.3349609c0.5292969-0.5283203,1.3867188-0.5283203,1.9160156,0l1.5566406,1.5576172V5.8105469
	c0-0.7470703,0.6054688-1.3535156,1.3535156-1.3535156s1.3535156,0.6064453,1.3535156,1.3535156v4.0820313l1.5576172-1.5576172
	c0.5283203-0.5283203,1.3857422-0.5283203,1.9150391,0c0.5283203,0.5283203,0.5283203,1.3857422,0,1.9150391l-3.8691406,3.8681641
	C12.6933594,14.3818359,12.3466797,14.5136719,12,14.5136719s-0.6933594-0.1318359-0.9570313-0.3955078L7.1738281,10.25
	C6.6455078,9.7207031,6.6455078,8.8632813,7.1738281,8.3349609z M17.9960938,16.6416016
	c0,0.7470703-0.6064453,1.3544922-1.3535156,1.3544922c-0.0664063,0-0.1308594-0.0107422-0.1933594-0.0195313
	c-0.0644531,0.0087891-0.1279297,0.0195313-0.1933594,0.0195313H7.7451172c-0.0664063,0-0.1298828-0.0107422-0.1933594-0.0195313
	c-0.0634766,0.0087891-0.1269531,0.0195313-0.1943359,0.0195313c-0.7470703,0-1.3535156-0.6074219-1.3535156-1.3544922v-1.5458984
	c0-0.7490234,0.6064453-1.3554688,1.3535156-1.3554688c0.7480469,0,1.3544922,0.6064453,1.3544922,1.3554688v0.1933594h6.5761719
	v-0.1933594c0-0.7490234,0.6064453-1.3554688,1.3544922-1.3554688c0.7470703,0,1.3535156,0.6064453,1.3535156,1.3554688V16.6416016z
	"/>
<radialGradient gradientTransform="rotate({backgroundAngle}, 12, 12)" id="SVGID_1_" cx="12" cy="3.1728516" r="22.2501049" gradientUnits="userSpaceOnUse">
	<stop  offset="0.351515" style="stop-color:#FFFFFF;stop-opacity:0.4"/>
	<stop  offset="0.842424" style="stop-color:#FFFFFF;stop-opacity:0"/>
</radialGradient>
<path fill="url(#SVGID_1_)" d="M12,0C5.3828125,0,0,5.3828125,0,12s5.3828125,12,12,12s12-5.3828125,12-12S18.6171875,0,12,0z"/>
</svg>
