<?xml version="1.0" encoding="utf-8"?>
<!-- Generator: Adobe Illustrator 14.0.0, SVG Export Plug-In  -->
<!DOCTYPE svg PUBLIC "-//W3C//DTD SVG 1.1//EN" "http://www.w3.org/Graphics/SVG/1.1/DTD/svg11.dtd" [
	<!ENTITY ns_flows "http://ns.adobe.com/Flows/1.0/">
]>
<svg version="1.1"
	 xmlns="http://www.w3.org/2000/svg" xmlns:xlink="http://www.w3.org/1999/xlink" xmlns:a="http://ns.adobe.com/AdobeSVGViewerExtensions/3.0/"
	 x="0px" y="0px" width="16px" height="16px" viewBox="0 0 16 16" enable-background="new 0 0 16 16" xml:space="preserve">
<defs>
</defs>
<path fill="#939598" d="M15,0h-3.3549805C10.0375977,0,9.027832,0.9199219,8.5,1.59375C7.972168,0.9199219,6.9624023,0,5.3549805,0
	H2H1v1H0v13.9501953V16h1h1h6h1h6h1v-1.0498047V14v-1V1V0H15z M5.3549805,1C6.9624023,1,7.7954102,2.2646484,8,2.625v11.4296875
	C7.4155273,13.5146484,6.5517578,13,5.3549805,13H2V1H5.3549805z M2,14h3.3549805
	c1.0039063,0,1.6958008,0.4921875,2.1313477,0.9501953H2V14z M15,14.9501953H9.5136719
	C9.9492188,14.4921875,10.6411133,14,11.6450195,14H15V14.9501953z M15,13h-3.3549805
	C10.4482422,13,9.5844727,13.5146484,9,14.0546875V2.625C9.2045898,2.2651367,10.0375977,1,11.6450195,1H15V13z M7,4H3V3h4V4z M7,6
	H3V5h4V6z M7,8H3V7h4V8z M10,3h4v1h-4V3z M10,5h4v1h-4V5z M10,7h4v1h-4V7z M3,10V9h4v1H3z M10,9h4v1h-4V9z"/>
</svg>
