<?xml version="1.0" encoding="utf-8"?>
<!-- Generator: Adobe Illustrator 14.0.0, SVG Export Plug-In  -->
<!DOCTYPE svg PUBLIC "-//W3C//DTD SVG 1.1//EN" "http://www.w3.org/Graphics/SVG/1.1/DTD/svg11.dtd" [
	<!ENTITY ns_flows "http://ns.adobe.com/Flows/1.0/">
]>
<svg version="1.1"
	 xmlns="http://www.w3.org/2000/svg" xmlns:xlink="http://www.w3.org/1999/xlink" xmlns:a="http://ns.adobe.com/AdobeSVGViewerExtensions/3.0/"
	 x="0px" y="0px" width="16px" height="16px" viewBox="0 0 16 16" enable-background="new 0 0 16 16" xml:space="preserve">
<defs>
</defs>
<path fill="{color}" d="M8,1c3.86,0,7,3.14,7,7c0,3.859-3.14,7-7,7s-7-3.141-7-7C1,4.14,4.14,1,8,1 M8,0C3.583,0,0,3.583,0,8
	c0,4.418,3.583,8,8,8s8-3.582,8-8C16,3.583,12.417,0,8,0L8,0z M11,10v1h-1v-1H11 M12,9H9v3h3V9L12,9z M6,10v1H5v-1H6 M7,9H4v3h3V9
	L7,9z M11,5v1h-1V5H11 M12,4H9v3h3V4L12,4z M6,5v1H5V5H6 M7,4H4v3h3V4L7,4z"/>
</svg>
