<?xml version="1.0" encoding="utf-8"?>
<!-- Generator: Adobe Illustrator 16.0.3, SVG Export Plug-In . SVG Version: 6.00 Build 0)  -->
<!DOCTYPE svg PUBLIC "-//W3C//DTD SVG 1.1//EN" "http://www.w3.org/Graphics/SVG/1.1/DTD/svg11.dtd">
<svg version="1.1" id="Layer_1" xmlns="http://www.w3.org/2000/svg" xmlns:xlink="http://www.w3.org/1999/xlink" x="0px" y="0px"
	 width="16px" height="16px" viewBox="0 0 16 16" enable-background="new 0 0 16 16" xml:space="preserve">
<path fill="{color}" transform="rotate({angle}, 8, 8)" d="M1.439,9.561c0.586,0.586,1.536,0.586,2.122,0L7,6.121V14.5C7,15.328,7.671,16,8.5,16s1.5-0.672,1.5-1.5
	V6.121l3.439,3.439c0.586,0.586,1.535,0.586,2.121,0s0.586-1.535,0-2.121L9.562,1.441c-0.069-0.07-0.146-0.133-0.228-0.188
	C9.313,1.24,9.289,1.23,9.268,1.219C9.206,1.182,9.144,1.145,9.077,1.115C9.045,1.104,9.012,1.098,8.98,1.086
	c-0.06-0.02-0.12-0.043-0.183-0.055C8.7,1.012,8.601,1,8.5,1S8.3,1.012,8.203,1.031C8.14,1.043,8.08,1.066,8.02,1.086
	C7.988,1.098,7.955,1.104,7.923,1.115C7.856,1.145,7.794,1.182,7.732,1.219C7.711,1.23,7.687,1.24,7.666,1.254
	C7.584,1.309,7.508,1.371,7.438,1.441L1.439,7.439C0.854,8.025,0.854,8.975,1.439,9.561z" />
</svg>