<?xml version="1.0" encoding="utf-8"?>
<!-- Generator: Adobe Illustrator 14.0.0, SVG Export Plug-In  -->
<!DOCTYPE svg PUBLIC "-//W3C//DTD SVG 1.1//EN" "http://www.w3.org/Graphics/SVG/1.1/DTD/svg11.dtd" [
	<!ENTITY ns_flows "http://ns.adobe.com/Flows/1.0/">
]>
<svg version="1.1"
	 xmlns="http://www.w3.org/2000/svg" xmlns:xlink="http://www.w3.org/1999/xlink" xmlns:a="http://ns.adobe.com/AdobeSVGViewerExtensions/3.0/"
	 x="0px" y="0px" width="16px" height="16px" viewBox="0 0 16 16" enable-background="new 0 0 16 16" xml:space="preserve">
<defs>
</defs>
<rect fill="none" width="16" height="16"/>
<path fill="{color}" d="M13.931,8.883c-0.236,1.583-1.074,2.981-2.361,3.935c-1.016,0.751-2.214,1.154-3.452,1.176
	c0.313,0.27,0.36,0.74,0.1,1.066c-0.154,0.189-0.377,0.29-0.605,0.29c-0.169,0-0.34-0.056-0.482-0.17l-1.935-1.547
	c-0.183-0.146-0.29-0.369-0.29-0.604c0-0.234,0.107-0.457,0.29-0.604l1.935-1.547c0.333-0.267,0.82-0.213,1.087,0.121
	c0.259,0.323,0.213,0.788-0.092,1.06c0.822-0.024,1.618-0.295,2.293-0.794c0.872-0.646,1.44-1.593,1.6-2.666
	c0.088-0.597,0.046-1.19-0.126-1.764c-0.153-0.511,0.137-1.05,0.649-1.204c0.51-0.154,1.05,0.136,1.203,0.648
	C13.999,7.126,14.063,8.002,13.931,8.883z M3.982,7.402c0.16-1.073,0.728-2.019,1.6-2.666c0.675-0.5,1.471-0.771,2.293-0.794
	C7.57,4.214,7.524,4.678,7.783,5.002C7.937,5.193,8.16,5.292,8.388,5.292c0.169,0,0.34-0.056,0.483-0.17l1.934-1.547
	c0.184-0.146,0.291-0.369,0.291-0.604c0-0.234-0.107-0.457-0.291-0.604L8.871,0.82C8.537,0.553,8.05,0.607,7.783,0.94
	C7.521,1.267,7.57,1.739,7.885,2.009C6.646,2.03,5.447,2.43,4.431,3.183C3.144,4.136,2.305,5.534,2.07,7.117
	c-0.131,0.88-0.068,1.756,0.187,2.605c0.125,0.418,0.51,0.689,0.926,0.689c0.092,0,0.186-0.013,0.278-0.041
	c0.511-0.153,0.801-0.692,0.648-1.205C3.936,8.592,3.894,8,3.982,7.402z">
	<animateTransform
		attributeName="transform"
		attributeType="xml"
		type="rotate"
		from="0 8 8"
		to="360 8 8"
		dur="1s"
		repeatCount="indefinite"/>
</path>
</svg>
