<?xml version="1.0" encoding="utf-8"?>
<!-- Generator: Adobe Illustrator 14.0.0, SVG Export Plug-In  -->
<!DOCTYPE svg PUBLIC "-//W3C//DTD SVG 1.1//EN" "http://www.w3.org/Graphics/SVG/1.1/DTD/svg11.dtd" [
	<!ENTITY ns_flows "http://ns.adobe.com/Flows/1.0/">
]>
<svg version="1.1"
	 xmlns="http://www.w3.org/2000/svg" xmlns:xlink="http://www.w3.org/1999/xlink" xmlns:a="http://ns.adobe.com/AdobeSVGViewerExtensions/3.0/"
	 x="0px" y="0px" width="16px" height="16px" viewBox="0 0 16 16" enable-background="new 0 0 16 16" xml:space="preserve">
<defs>
</defs>
<path fill="{color}" d="M15,1.9995117V0h-2v1.9995117h-1V0h-2v1.9995117H9V0H7v1.9995117H6V0H4v1.9995117H3V0H1v1.9995117H0V2
	v2.9995117V16h16V4.9995117V2V1.9995117H15z M15,15H1V4.9995117h14V15z M7,7v1H4V7H7z M4,10h3v1H4V10z M3,8h1v1H3V8z M3,11h1v1h4v1
	H4H3V11z M7,10V8h1v2H7z M9,8h1v1H9V8z M11,13H9v-1h2V8h-1V7h1h1v5h1v1h-1H11z"/>
</svg>
