<?xml version="1.0" encoding="utf-8"?>
<!-- Generator: Adobe Illustrator 16.0.3, SVG Export Plug-In . SVG Version: 6.00 Build 0)  -->
<!DOCTYPE svg PUBLIC "-//W3C//DTD SVG 1.1//EN" "http://www.w3.org/Graphics/SVG/1.1/DTD/svg11.dtd">
<svg version="1.1" id="Layer_1" xmlns="http://www.w3.org/2000/svg" xmlns:xlink="http://www.w3.org/1999/xlink" x="0px" y="0px"
	 width="16px" height="16px" viewBox="0 0 16 16" enable-background="new 0 0 16 16" xml:space="preserve">
<path fill="{color}" d="M15.229,2.858l-7,10.001c-0.275,0.393-0.724,0.631-1.204,0.639c-0.008,0-0.017,0-0.024,0
	c-0.472,0-0.916-0.221-1.2-0.6l-3-4C2.303,8.235,2.438,7.295,3.1,6.798c0.665-0.496,1.604-0.362,2.101,0.3l1.758,2.345l5.813-8.305
	c0.474-0.68,1.411-0.843,2.089-0.368C15.539,1.244,15.704,2.18,15.229,2.858z M13,13.998H2v-11h7.638l1.399-2H1v14L15,15v-0.002
	V5.802l-2,2.857V13.998z"/>
</svg>
