<?xml version="1.0" encoding="utf-8"?>
<!-- Generator: Adobe Illustrator 14.0.0, SVG Export Plug-In  -->
<!DOCTYPE svg PUBLIC "-//W3C//DTD SVG 1.1//EN" "http://www.w3.org/Graphics/SVG/1.1/DTD/svg11.dtd" [
	<!ENTITY ns_flows "http://ns.adobe.com/Flows/1.0/">
]>
<svg version="1.1"
	 xmlns="http://www.w3.org/2000/svg" xmlns:xlink="http://www.w3.org/1999/xlink" xmlns:a="http://ns.adobe.com/AdobeSVGViewerExtensions/3.0/"
	 x="0px" y="0px" width="16px" height="16px" viewBox="0 0 16 16" enable-background="new 0 0 16 16" xml:space="preserve">
<defs>
</defs>
<path fill="{color}" d="M8.952,1L8.952,1c1.559,0,3.014,0.652,4.208,1.887c1.988,1.942,1.746,8.056-2.681,10.204
	c0.288-1.236,0.112-2.923-2.278-2.923c-1.687,0-2.486,1.603-2.718,2.472c-0.305,1.142-0.749,1.277-1.193,1.341
	c-0.392-0.019-0.966-0.22-1.367-0.636c-2.664-2.753-2.466-6.584,0.599-9.752C5.139,1.921,7.067,1,8.952,1 M8.951,0
	C6.794,0,4.595,1.045,2.803,2.897c-3.247,3.355-3.929,8.092-0.683,11.447c0.548,0.567,1.245,0.964,1.939,0.996
	c0.064,0.003,0.126,0.004,0.187,0.004c3.078,0,1.987-3.631,3.611-3.732c0.092,0,0.192,0.008,0.299,0.023
	C10.353,11.96,6.59,16,9.375,16c1.278,0,2.333-1.047,3.821-2.36c3.247-3.355,3.93-8.092,0.683-11.448C12.424,0.688,10.702,0,8.951,0
	L8.951,0z M7.5,3C7.775,3,8,3.225,8,3.5S7.775,4,7.5,4S7,3.775,7,3.5S7.224,3,7.5,3 M7.5,2C6.671,2,6,2.672,6,3.5S6.671,5,7.5,5
	S9,4.328,9,3.5S8.328,2,7.5,2L7.5,2z M4.5,6C4.775,6,5,6.225,5,6.5S4.775,7,4.5,7S4,6.775,4,6.5S4.224,6,4.5,6 M4.5,5
	C3.671,5,3,5.672,3,6.5S3.671,8,4.5,8S6,7.328,6,6.5S5.328,5,4.5,5L4.5,5z M11.5,4C11.775,4,12,4.225,12,4.5S11.775,5,11.5,5
	S11,4.775,11,4.5S11.224,4,11.5,4 M11.5,3C10.671,3,10,3.672,10,4.5S10.671,6,11.5,6S13,5.328,13,4.5S12.328,3,11.5,3L11.5,3z
	 M3.5,10C3.775,10,4,10.225,4,10.5S3.775,11,3.5,11S3,10.775,3,10.5S3.224,10,3.5,10 M3.5,9C2.671,9,2,9.672,2,10.5S2.671,12,3.5,12
	S5,11.328,5,10.5S4.328,9,3.5,9L3.5,9z M11.5,8C11.775,8,12,8.225,12,8.5S11.775,9,11.5,9S11,8.775,11,8.5S11.224,8,11.5,8 M11.5,7
	C10.671,7,10,7.672,10,8.5s0.671,1.5,1.5,1.5S13,9.328,13,8.5S12.328,7,11.5,7L11.5,7z"/>
</svg>
