<?xml version="1.0" encoding="utf-8" ?>
<!-- Generator: Adobe Illustrator 16.0.3, SVG Export Plug-In . SVG Version: 6.00 Build 0)  -->
<!DOCTYPE SVG PUBLIC "-//W3C//DTD SVG 1.1//EN" "http://www.w3.org/Graphics/SVG/1.1/DTD/svg11.dtd">
<svg version="1.1" id="Layer_1" xmlns="http://www.w3.org/2000/svg" xmlns:xlink="http://www.w3.org/1999/xlink" x="0px" y="0px"
     width="16px" height="16px" viewBox="0 0 16 16" enable-background="new 0 0 16 16" xml:space="preserve">
    <path fill="{color}" d="M13,0H1v1H0v15h16V3L13,0z M14.586,3H13V1.414L14.586,3z M15,15H2V1h10v3h3V15z M9,5v3h3V5H9z M11,6v1h-1V6
    H11z M5,5v3h3V5H5z M7,6v1H6V6H7z M9,9v3h3V9H9z M11,10v1h-1v-1H11z M5,9v3h3V9H5z M7,10v1H6v-1H7z" />
</svg>
