<?xml version="1.0" encoding="utf-8"?>
<!-- Generator: Adobe Illustrator 14.0.0, SVG Export Plug-In  -->
<!DOCTYPE svg PUBLIC "-//W3C//DTD SVG 1.1//EN" "http://www.w3.org/Graphics/SVG/1.1/DTD/svg11.dtd" [
	<!ENTITY ns_flows "http://ns.adobe.com/Flows/1.0/">
]>
<svg version="1.1"
	 xmlns="http://www.w3.org/2000/svg" xmlns:xlink="http://www.w3.org/1999/xlink" xmlns:a="http://ns.adobe.com/AdobeSVGViewerExtensions/3.0/"
	 x="0px" y="0px" width="16px" height="16px" viewBox="0 0 16 16" enable-background="new 0 0 16 16" xml:space="preserve">
<defs>
</defs>
<path fill="{color}" d="M15,7V0H2v3h1V1h11v6h-1c0,0,0-3.999-4-3.999s-8,0-8,0V4H0v12h1h15V7H15z M15,15H2V4.001h7
	c2.823,0,2.994,2.503,3,2.999v1h1h1h1V15z M8,9h2v1H8v2H7v-2H5V9h2V7h1V9z M7.5,5C5.015,5,3,7.015,3,9.5S5.015,14,7.5,14
	S12,11.985,12,9.5S9.985,5,7.5,5z M7.5,13C5.57,13,4,11.43,4,9.5S5.57,6,7.5,6S11,7.57,11,9.5S9.43,13,7.5,13z"/>
</svg>
