<?xml version="1.0" encoding="utf-8"?>
<!-- Generator: Adobe Illustrator 14.0.0, SVG Export Plug-In  -->
<!DOCTYPE svg PUBLIC "-//W3C//DTD SVG 1.1//EN" "http://www.w3.org/Graphics/SVG/1.1/DTD/svg11.dtd" [
	<!ENTITY ns_flows "http://ns.adobe.com/Flows/1.0/">
]>
<svg version="1.1"
	 xmlns="http://www.w3.org/2000/svg" xmlns:xlink="http://www.w3.org/1999/xlink" xmlns:a="http://ns.adobe.com/AdobeSVGViewerExtensions/3.0/"
	 x="0px" y="0px" width="16px" height="16px" viewBox="0 0 16 16" enable-background="new 0 0 16 16" xml:space="preserve">
<defs>
</defs>
<path fill="{color}" d="M8,8c2.2084961,0,4-1.7910156,4-4s-1.7915039-4-4-4S4,1.7910156,4,4S5.7915039,8,8,8z M8,1
	c1.6542969,0,3,1.3457031,3,3S9.6542969,7,8,7S5,5.6542969,5,4S6.3457031,1,8,1z M11,8c0,0-1,1-3,1S5,8,5,8
	c-3.5898438,0-5,2.1337891-5,6v2h16v-2C16,10.1337891,14.5898438,8,11,8z M15,15h-2v-3h-1v3H4v-3H3v3H1v-1
	c0-4.1494141,1.7138672-4.9208984,3.6542969-4.9941406C5.1894531,9.3925781,6.3022461,10,8,10
	s2.8105469-0.6074219,3.3457031-0.9941406C13.2861328,9.0791016,15,9.8505859,15,14V15z"/>
</svg>
