<?xml version="1.0" encoding="utf-8"?>
<!-- Generator: Adobe Illustrator 14.0.0, SVG Export Plug-In  -->
<!DOCTYPE svg PUBLIC "-//W3C//DTD SVG 1.1//EN" "http://www.w3.org/Graphics/SVG/1.1/DTD/svg11.dtd" [
	<!ENTITY ns_flows "http://ns.adobe.com/Flows/1.0/">
]>
<svg version="1.1"
	 xmlns="http://www.w3.org/2000/svg" xmlns:xlink="http://www.w3.org/1999/xlink" xmlns:a="http://ns.adobe.com/AdobeSVGViewerExtensions/3.0/"
	 x="0px" y="0px" width="16px" height="16px" viewBox="0 0 16 16" enable-background="new 0 0 16 16" xml:space="preserve">
<defs>
</defs>
<path fill="{color}" d="M15,7V0H2v3.001c-0.626,0-1,0-1,0V4H0v12h16V7H15z M3,1h11v6h-1c0,0,0-3.999-4-3.999c-2.232,0-4.463,0-6,0V1
	z M15,15H2V4.001h7c2.823,0,2.994,2.503,3,2.999v1h3V15z M7,7l4,3l-4,3v-2H5v3H3V9h4V7z"/>
</svg>
