<?xml version="1.0" encoding="UTF-8" standalone="no"?>
<!-- Generator: Adobe Illustrator 14.0.0, SVG Export Plug-In  -->
<svg version="1.1"
	 xmlns="http://www.w3.org/2000/svg" xmlns:xlink="http://www.w3.org/1999/xlink" xmlns:a="http://ns.adobe.com/AdobeSVGViewerExtensions/3.0/"
	 x="0px" y="0px" width="16px" height="16px" viewBox="0 0 16 16" enable-background="new 0 0 16 16" xml:space="preserve">
<defs>
</defs>
<path
     d="M7,0C3,0,1,0,1,0v0.999H0V16h1h15V2.999h-6C10,2.999,10,0,7,0z M15,15H2V1h5c1.827,0,1.993,1.536,2,1.999v1  h1h5V15z"
     id="path3342"
     style="fill:#666666" />
<path
     style="fill:{color}"
     d="m 2.0338983,7.9903553 0,-6.9791366 2.1864407,0.032059 c 3.3182213,0.048654 3.5152553,0.064962 3.8992105,0.3227284 0.440547,0.2957591 0.7618064,0.9130842 0.7618064,1.4638707 0,0.215001 0.019601,0.5784371 0.043557,0.8076358 l 0.043556,0.4167248 3.0072915,0 3.007291,0 0,5.4576271 0,5.4576276 -6.4745764,0 -6.4745763,0 0,-6.9791367 z"
     id="path3350"
/>
</svg>