<?xml version="1.0" encoding="utf-8"?>
<!-- Generator: Adobe Illustrator 16.0.3, SVG Export Plug-In . SVG Version: 6.00 Build 0)  -->
<!DOCTYPE svg PUBLIC "-//W3C//DTD SVG 1.1//EN" "http://www.w3.org/Graphics/SVG/1.1/DTD/svg11.dtd">
<svg version="1.1" id="Layer_1" xmlns="http://www.w3.org/2000/svg" xmlns:xlink="http://www.w3.org/1999/xlink" x="0px" y="0px"
	 width="16px" height="16px" viewBox="0 0 16 16" enable-background="new 0 0 16 16" xml:space="preserve">
<path fill="{color}" d="M14.561,12.439c0.586,0.586,0.586,1.535,0,2.121C14.268,14.854,13.884,15,13.5,15s-0.768-0.146-1.061-0.439
	L8,10.121l-4.439,4.439C3.268,14.854,2.884,15,2.5,15s-0.768-0.146-1.061-0.439c-0.586-0.586-0.586-1.535,0-2.121L5.879,8
	L1.439,3.561c-0.586-0.586-0.586-1.535,0-2.121s1.535-0.586,2.121,0L8,5.879l4.439-4.439c0.586-0.586,1.535-0.586,2.121,0
	s0.586,1.535,0,2.121L10.121,8L14.561,12.439z"/>
</svg>
