<?xml version="1.0" encoding="UTF-8" standalone="no"?>
<!-- Generator: Adobe Illustrator 14.0.0, SVG Export Plug-In  -->
<svg version="1.1"
	 xmlns="http://www.w3.org/2000/svg" xmlns:xlink="http://www.w3.org/1999/xlink" xmlns:a="http://ns.adobe.com/AdobeSVGViewerExtensions/3.0/"
	 x="0px" y="0px" width="16px" height="16px" viewBox="0 0 16 16" enable-background="new 0 0 16 16" xml:space="preserve">
<defs>
</defs>
<path
     id="path3356"
     d="M15,7V0H2v3h1V1h11v6h-4c0,0,0-3.9990234-4-3.9990234s-5,0-5,0V4H0v12h1h15V7H15z M15,15H2V4.0009766h4  c2.8227539,0,2.9941406,2.5029297,3,2.9990234v1h1h4h1V15z"
     fill="#999999" />
<path
     id="path3362"
     d="m 2.0338983,9.5086706 0,-5.4608208 2.4237288,0.020143 c 2.3492143,0.019524 2.4356129,0.024945 2.8102802,0.1763295 0.4500136,0.1818286 1.0037294,0.653903 1.2401201,1.0572733 0.3134614,0.5348813 0.3894431,0.8512937 0.4330797,1.8034892 l 0.041944,0.9152543 3.0000002,0.017654 3,0.017654 0,3.4569213 0,3.456923 -6.4745764,0 -6.4745763,0 0,-5.4608214 z"
     style="fill:{color}" />
</svg>