<?xml version="1.0" encoding="utf-8"?>
<!-- Generator: Adobe Illustrator 14.0.0, SVG Export Plug-In  -->
<!DOCTYPE svg PUBLIC "-//W3C//DTD SVG 1.1//EN" "http://www.w3.org/Graphics/SVG/1.1/DTD/svg11.dtd" [
	<!ENTITY ns_flows "http://ns.adobe.com/Flows/1.0/">
]>
<svg version="1.1"
	 xmlns="http://www.w3.org/2000/svg" xmlns:xlink="http://www.w3.org/1999/xlink" xmlns:a="http://ns.adobe.com/AdobeSVGViewerExtensions/3.0/"
	 x="0px" y="0px" width="16px" height="16px" viewBox="0 0 16 16" enable-background="new 0 0 16 16" xml:space="preserve">
<defs>
</defs>
<path fill="{color}" d="M11,4.0004883H4v-1h7V4.0004883z M4,6.0004883h9v-1H4V6.0004883z M4,8.0004883h9v-1H4V8.0004883z
	 M4,10.0004883h9v-1H4V10.0004883z M4,12.0004883h6v-1H4V12.0004883z M16,3v1v12H1l0,0H0V1.0004883h1V0h11h1L16,3z M13,1.4140625V3
	h1.5859375L13,1.4140625z M15,4h-2h-1V3V1H2v14h13V4z"/>
</svg>
