<?xml version="1.0" encoding="utf-8"?>
<!-- Generator: Adobe Illustrator 14.0.0, SVG Export Plug-In  -->
<!DOCTYPE svg PUBLIC "-//W3C//DTD SVG 1.1//EN" "http://www.w3.org/Graphics/SVG/1.1/DTD/svg11.dtd" [
	<!ENTITY ns_flows "http://ns.adobe.com/Flows/1.0/">
]>
<svg version="1.1"
	 xmlns="http://www.w3.org/2000/svg" xmlns:xlink="http://www.w3.org/1999/xlink" xmlns:a="http://ns.adobe.com/AdobeSVGViewerExtensions/3.0/"
	 x="0px" y="0px" width="16px" height="16px" viewBox="0 0 16 16" enable-background="new 0 0 16 16" xml:space="preserve">
<defs>
</defs>
<path fill="{color}" d="M0,0v1v15h1h14h1v-1V1V0H0z M1,15V1.999h14v0h0v12h0v1H1z M2,2.999v5h1h3h1v-4v-1H3H2z M6,3.999v3H3v-3H6z
	 M9,11L9,11l-1-0.001V14h1h5v-1v-1v-1h-1H9z M13,13H9v-1h4V13z M2,9v5h1h0h3h1v-4h0V9H3H2z M5.999,10v3H3v-3H5.999z M9,7L9,7L8,7V10
	h1h5V9V8V7h-1H9z M13,9H9V8h4V9z M9,3L9,3L8,3V6h1h5V5V4V3h-1H9z M13,5H9V4h4V5z"/>
</svg>
