<?xml version="1.0" encoding="utf-8"?>
<!-- Generator: Adobe Illustrator 16.0.3, SVG Export Plug-In . SVG Version: 6.00 Build 0)  -->
<!DOCTYPE svg PUBLIC "-//W3C//DTD SVG 1.1//EN" "http://www.w3.org/Graphics/SVG/1.1/DTD/svg11.dtd">
<svg version="1.1" id="Layer_1" xmlns="http://www.w3.org/2000/svg" xmlns:xlink="http://www.w3.org/1999/xlink" x="0px" y="0px"
	 width="16px" height="16px" viewBox="0 0 16 16" enable-background="new 0 0 16 16" xml:space="preserve">
<path fill="{color}" d="M9.804,13.201C9.804,14.193,8.999,15,8.005,15c-0.991,0-1.798-0.807-1.798-1.799
	c0-0.993,0.807-1.799,1.798-1.799C8.999,11.402,9.804,12.208,9.804,13.201z M8.014,1C5.529,1,4.285,2.08,3.839,2.584
	C3.571,2.841,3.4,3.198,3.4,3.598c0,0.773,0.627,1.399,1.399,1.399c0.49,0,0.918-0.251,1.168-0.631l0.015,0.008
	c0,0-0.011,0.021-0.039,0.054c0.021-0.025,0.539-0.629,2.071-0.629c1.093,0,1.8,0.393,1.8,0.999c0,0.908-1.576,1.816-2.29,2.088
	C6.978,7.091,6.615,7.613,6.615,8.196v0.599c0,0.772,0.626,1.399,1.399,1.399c0.665,0,1.222-0.463,1.364-1.086
	c1.221-0.639,3.234-2.036,3.234-4.312C12.612,2.968,11.174,1,8.014,1z"/>
</svg>
