<?xml version="1.0" encoding="utf-8"?>
<!-- Generator: Adobe Illustrator 16.0.3, SVG Export Plug-In . SVG Version: 6.00 Build 0)  -->
<!DOCTYPE svg PUBLIC "-//W3C//DTD SVG 1.1//EN" "http://www.w3.org/Graphics/SVG/1.1/DTD/svg11.dtd">
<svg version="1.1" id="Layer_1" xmlns="http://www.w3.org/2000/svg" xmlns:xlink="http://www.w3.org/1999/xlink" x="0px" y="0px"
	 width="16px" height="16px" viewBox="0 0 16 16" enable-background="new 0 0 16 16" xml:space="preserve">
<path fill="{color}" d="M5,15c-0.222,0-0.444-0.049-0.649-0.147l-2.5-1.2c-0.488-0.235-0.813-0.715-0.848-1.256
	c-0.035-0.541,0.225-1.059,0.68-1.354l2-1.3c0.694-0.451,1.624-0.254,2.075,0.44c0.205,0.316,0.276,0.68,0.228,1.026
	c0.922-0.578,2.06-1.375,2.954-2.269c0.897-0.897,1.694-2.034,2.271-2.954c-0.348,0.048-0.711-0.022-1.027-0.228
	c-0.695-0.452-0.892-1.38-0.44-2.075l1.3-2c0.296-0.454,0.812-0.71,1.354-0.68c0.541,0.035,1.021,0.359,1.255,0.848l1.2,2.5
	c0.201,0.418,0.197,0.906-0.01,1.32c-0.066,0.131-1.634,3.242-3.781,5.39s-5.258,3.716-5.39,3.781C5.46,14.947,5.23,15,5,15z"/>
</svg>
