<?xml version="1.0" encoding="utf-8"?>
<!-- Generator: Adobe Illustrator 16.0.3, SVG Export Plug-In . SVG Version: 6.00 Build 0)  -->
<!DOCTYPE svg PUBLIC "-//W3C//DTD SVG 1.1//EN" "http://www.w3.org/Graphics/SVG/1.1/DTD/svg11.dtd">
<svg version="1.1" id="Layer_1" xmlns="http://www.w3.org/2000/svg" xmlns:xlink="http://www.w3.org/1999/xlink" x="0px" y="0px"
	 width="100%" height="100%" viewBox="0 0 48 48" enable-background="new 0 0 48 48" xml:space="preserve">
<path fill="{color}" d="M27,18.5c0,0.828-0.671,1.5-1.5,1.5h-11c-0.829,0-1.5-0.672-1.5-1.5s0.671-1.5,1.5-1.5h11
	C26.329,17,27,17.672,27,18.5z M27,8.5v5c0,0.828-0.671,1.5-1.5,1.5h-11c-0.829,0-1.5-0.672-1.5-1.5v-5C13,7.672,13.671,7,14.5,7h11
	C26.329,7,27,7.672,27,8.5z M16,10v2h8v-2H16z M19.256,42H9V3h22v18.148C31.656,21.061,32.32,21,33,21c0.337,0,0.668,0.028,1,0.051
	V4.143L39,7v15.257c1.074,0.469,2.075,1.067,3,1.764V7c0-1.076-0.577-2.07-1.512-2.604l-7-4C33.035,0.137,32.521,0,32,0H9
	C7.343,0,6,1.343,6,3v39c0,1.657,1.343,3,3,3h12.02C20.324,44.075,19.726,43.074,19.256,42z"/>
<g transform="translate(21,24)">{image1}</g>
</svg>
