<?xml version="1.0" encoding="utf-8"?>
<!-- Generator: Adobe Illustrator 16.0.3, SVG Export Plug-In . SVG Version: 6.00 Build 0)  -->
<!DOCTYPE svg PUBLIC "-//W3C//DTD SVG 1.1//EN" "http://www.w3.org/Graphics/SVG/1.1/DTD/svg11.dtd">
<svg version="1.1" id="Layer_1" xmlns="http://www.w3.org/2000/svg" xmlns:xlink="http://www.w3.org/1999/xlink" x="0px" y="0px"
	 width="100%" height="100%" viewBox="0 0 48 48" enable-background="new 0 0 48 48" xml:space="preserve">
<path fill="{color}" d="M6,24h3v4H6V24z M6,21h3v-4H6V21z M6,35h3v-4H6V35z M6,14h3v-4H6V14z M40.664,16.837L37,14.395V3
	c0-1.657-1.343-3-3-3H9C7.343,0,6,1.343,6,3v4h3V3h25v13l5,3.333v2.923c1.074,0.47,2.075,1.068,3,1.765v-4.688
	C42,18.33,41.499,17.394,40.664,16.837z M9,42v-4H6v4c0,1.657,1.343,3,3,3h12.021c-0.696-0.925-1.294-1.926-1.764-3H9z"/>
<g transform="translate(12,6)">{image1}</g>
<g transform="translate(21,24)">{image2}</g>
</svg>
