<?xml version="1.0" encoding="utf-8"?>
<!-- Generator: Adobe Illustrator 16.0.3, SVG Export Plug-In . SVG Version: 6.00 Build 0)  -->
<!DOCTYPE svg PUBLIC "-//W3C//DTD SVG 1.1//EN" "http://www.w3.org/Graphics/SVG/1.1/DTD/svg11.dtd">
<svg version="1.1" id="Layer_1" xmlns="http://www.w3.org/2000/svg" xmlns:xlink="http://www.w3.org/1999/xlink" x="0px" y="0px"
	 width="100%" height="100%" viewBox="0 0 48 48" enable-background="new 0 0 48 48" xml:space="preserve">
<path fill="{color}" d="M18.556,40H9v-6c0-9.665,6.714-15,15-15c2.988,0,5.765,0.704,8.104,2.045C32.402,21.027,32.697,21,33,21
	c1.61,0,3.158,0.26,4.611,0.729c-2.238-2.51-5.232-4.303-8.773-5.153C31.336,14.976,33,12.182,33,9c0-4.963-4.038-9-9-9
	s-9,4.037-9,9c0,3.182,1.664,5.976,4.162,7.576C11.223,18.483,6,25.107,6,34v6c0,1.657,1.343,3,3,3h10.738
	C19.239,42.056,18.846,41.05,18.556,40z M18,9c0-3.313,2.687-6,6-6c3.313,0,6,2.688,6,6c0,3.313-2.688,6-6,6
	C20.687,15,18,12.313,18,9z"/>
<g transform="translate(21,24)">{image1}</g>
</svg>
