<?xml version="1.0" encoding="utf-8"?>
<!-- Generator: Adobe Illustrator 16.0.3, SVG Export Plug-In . SVG Version: 6.00 Build 0)  -->
<!DOCTYPE svg PUBLIC "-//W3C//DTD SVG 1.1//EN" "http://www.w3.org/Graphics/SVG/1.1/DTD/svg11.dtd">
<svg version="1.1" id="Layer_1" xmlns="http://www.w3.org/2000/svg" xmlns:xlink="http://www.w3.org/1999/xlink" x="0px" y="0px"
	 width="100%" height="100%" viewBox="0 0 48 48" enable-background="new 0 0 48 48" xml:space="preserve">
<path fill="{color}" d="M41.121,8.879l-8-8C32.559,0.316,31.796,0,31,0H9C7.343,0,6,1.343,6,3v4h3V3h20v8.5
	c0,0.828,0.672,1.5,1.5,1.5H39v9.257c1.074,0.469,2.075,1.067,3,1.764V11C42,10.204,41.684,9.441,41.121,8.879z M32,10V4l6,6H32z
	 M6,31h3v4H6V31z M6,17h3v4H6V17z M6,24h3v4H6V24z M19.256,42c0.47,1.074,1.068,2.075,1.765,3H9c-1.657,0-3-1.343-3-3v-4h3v4H19.256
	z M6,10h3v4H6V10z"/>
<g transform="translate(12,6)">{image1}</g>
<g transform="translate(21,24)">{image2}</g>
</svg>
