<?xml version="1.0" encoding="utf-8"?>
<!-- Generator: Adobe Illustrator 16.0.3, SVG Export Plug-In . SVG Version: 6.00 Build 0)  -->
<!DOCTYPE svg PUBLIC "-//W3C//DTD SVG 1.1//EN" "http://www.w3.org/Graphics/SVG/1.1/DTD/svg11.dtd">
<svg version="1.1" id="Layer_1" xmlns="http://www.w3.org/2000/svg" xmlns:xlink="http://www.w3.org/1999/xlink" x="0px" y="0px"
	 width="100%" height="100%" viewBox="0 0 48 48" enable-background="new 0 0 48 48" xml:space="preserve">
<path fill="{color}" d="M18.148,38H7V8h14l3,5h17v10.327c1.108,0.7,2.114,1.541,3,2.499V13c0-1.657-1.343-3-3-3H25.699l-2.126-3.544
	C23.03,5.553,22.054,5,21,5H7C5.343,5,4,6.343,4,8v30c0,1.657,1.343,3,3,3h11.872C18.532,40.04,18.287,39.038,18.148,38z"/>
<g transform="translate(10,11)">{image1}</g>
<g transform="translate(21,24)">{image2}</g>
</svg>
