<?xml version="1.0" encoding="utf-8"?>
<!-- Generator: Adobe Illustrator 16.0.3, SVG Export Plug-In . SVG Version: 6.00 Build 0)  -->
<!DOCTYPE svg PUBLIC "-//W3C//DTD SVG 1.1//EN" "http://www.w3.org/Graphics/SVG/1.1/DTD/svg11.dtd">
<svg version="1.1" id="Layer_1" xmlns="http://www.w3.org/2000/svg" xmlns:xlink="http://www.w3.org/1999/xlink" x="0px" y="0px"
	 width="100%" height="100%" viewBox="0 0 48 48" enable-background="new 0 0 48 48" xml:space="preserve">
<path fill="{color}" d="M8.964,33l9.584-11.327l4.123,3.468c1.965-1.869,4.429-3.215,7.179-3.804L41,11.959v11.367
	c1.108,0.701,2.114,1.542,3,2.5V10c0-1.657-1.343-3-3-3H7c-1.657,0-3,1.343-3,3v23c0,1.657,1.343,3,3,3h11
	c0-1.027,0.104-2.03,0.301-3H8.964z M38.67,10L24,22.339L9.33,10H38.67z M7,11.959l9.253,7.783L7,30.678V11.959z"/>
<g transform="translate(21,24)">{image1}</g>
</svg>
